<svg width="334" height="449" viewBox="0 0 334 449" fill="none" xmlns="http://www.w3.org/2000/svg">
<path d="M167.011 0C175.21 8.61514 184.736 17.9157 193.95 25.2615C222.667 48.155 256.963 63.6293 292.429 72.5876C306.146 75.9472 320.02 78.6317 334 80.6316C334 84.8308 333.888 89.1253 333.789 93.3266C333.003 126.688 334.271 160.635 331.276 193.865C329.927 209.213 327.53 224.45 324.108 239.472C310.981 298.764 280.712 352.893 237.064 395.134C217.353 414.262 190.753 434.145 167.415 449C161.025 444.864 154.731 440.583 148.538 436.159C128.11 421.82 110.175 407.691 92.4974 389.922C55.8175 352.896 29.0564 307.233 14.6829 257.146C7.0665 230.464 2.28408 198.93 0.855929 171.164C-0.666746 141.551 0.294376 110.407 0.351949 80.6179C3.39472 80.3534 8.44267 79.4554 11.58 78.9276C20.5012 77.4159 29.3683 75.6024 38.1662 73.4903C74.6228 64.6179 109.513 49.4785 139.212 26.1496C149.543 18.0343 157.929 9.42122 167.011 0Z" fill="#FDFBF6" fill-opacity="0.2"/>
<g filter="url(#filter1_i_4170_56)">
<path d="M165.716 31C171.787 36.4183 176.489 40.8019 183.149 45.8681C221.707 75.1964 264.821 90.7714 311.947 99.5455C311.907 129.41 312.564 159.075 310.146 188.857C305.371 247.668 285.688 302.926 248.961 349.409C227.704 376.313 204.417 396.596 176.305 416.239C174.896 417.221 167.124 422.889 166.153 423C142.207 406.724 121.882 391.291 101.617 370.389C81.2572 349.308 64.2738 325.222 51.2655 298.979C27.4834 250.676 20.182 202.527 19.1066 149.314C18.7743 132.868 19.3019 116.113 19.5595 99.6509C30.5342 97.2821 40.2874 95.4129 51.2303 92.3758C92.5083 80.9201 134.659 61.0181 165.716 31Z" fill="#FDFBF6" fill-opacity="0.2"/>
</g>
<defs>
<filter id="filter1_i_4170_56" x="19" y="31" width="293" height="392" filterUnits="userSpaceOnUse" color-interpolation-filters="sRGB">
<feFlood flood-opacity="0" result="BackgroundImageFix"/>
<feBlend mode="normal" in="SourceGraphic" in2="BackgroundImageFix" result="shape"/>
<feColorMatrix in="SourceAlpha" type="matrix" values="0 0 0 0 0 0 0 0 0 0 0 0 0 0 0 0 0 0 127 0" result="hardAlpha"/>
<feOffset/>
<feGaussianBlur stdDeviation="2.9"/>
<feComposite in2="hardAlpha" operator="arithmetic" k2="-1" k3="1"/>
<feColorMatrix type="matrix" values="0 0 0 0 0 0 0 0 0 0 0 0 0 0 0 0 0 0 0.25 0"/>
<feBlend mode="normal" in2="shape" result="effect1_innerShadow_4170_56"/>
</filter>
</defs>
</svg>
