<svg width="327" height="436" viewBox="0 0 327 436" fill="none" xmlns="http://www.w3.org/2000/svg">
<g filter="url(#filter0_i_4170_56)">
<path d="M164.736 1.44531C172.644 9.75345 181.83 18.7226 190.715 25.8066C218.409 47.8843 251.483 62.8072 285.685 71.4463C298.913 74.6862 312.293 77.275 325.775 79.2037C325.775 83.2532 325.667 87.3947 325.572 91.4462C324.813 123.619 326.036 156.357 323.148 188.402C321.847 203.203 319.535 217.897 316.235 232.383C303.576 289.563 274.386 341.763 232.293 382.499C213.284 400.945 187.632 420.12 165.126 434.445C158.964 430.457 152.894 426.328 146.922 422.062C127.222 408.234 109.926 394.609 92.8781 377.473C57.5052 341.766 31.6977 297.73 17.8364 249.428C10.4914 223.697 5.87945 193.286 4.50219 166.51C3.03377 137.952 3.96064 107.918 4.01617 79.1904C6.95051 78.9353 11.8186 78.0693 14.8441 77.5603C23.4474 76.1025 31.9985 74.3536 40.4829 72.3168C75.6404 63.7606 109.287 49.1607 137.928 26.663C147.891 18.8369 155.978 10.5308 164.736 1.44531Z" fill="white" fill-opacity="0.7"/>
<path d="M164.736 1.44531C172.644 9.75345 181.83 18.7226 190.715 25.8066C218.409 47.8843 251.483 62.8072 285.685 71.4463C298.913 74.6862 312.293 77.275 325.775 79.2037C325.775 83.2532 325.667 87.3947 325.572 91.4462C324.813 123.619 326.036 156.357 323.148 188.402C321.847 203.203 319.535 217.897 316.235 232.383C303.576 289.563 274.386 341.763 232.293 382.499C213.284 400.945 187.632 420.12 165.126 434.445C158.964 430.457 152.894 426.328 146.922 422.062C127.222 408.234 109.926 394.609 92.8781 377.473C57.5052 341.766 31.6977 297.73 17.8364 249.428C10.4914 223.697 5.87945 193.286 4.50219 166.51C3.03377 137.952 3.96064 107.918 4.01617 79.1904C6.95051 78.9353 11.8186 78.0693 14.8441 77.5603C23.4474 76.1025 31.9985 74.3536 40.4829 72.3168C75.6404 63.7606 109.287 49.1607 137.928 26.663C147.891 18.8369 155.978 10.5308 164.736 1.44531Z" stroke="white" stroke-opacity="0.5" stroke-width="2"/>
</g>
<g filter="url(#filter1_dd_4170_56)">
<path d="M163.488 31.3408C169.343 36.566 173.877 40.7935 180.3 45.6791C217.483 73.9623 259.061 88.9822 304.508 97.4437C304.47 126.244 305.103 154.852 302.771 183.573C298.166 240.288 279.184 293.577 243.767 338.403C223.267 364.348 200.81 383.909 173.699 402.852C172.34 403.798 164.845 409.265 163.909 409.372C140.817 393.676 121.216 378.793 101.673 358.636C82.0387 338.306 65.6605 315.078 53.1157 289.77C30.1811 243.189 23.1399 196.756 22.1028 145.439C21.7823 129.579 22.2912 113.421 22.5396 97.5454C33.1231 95.261 42.5288 93.4584 53.0818 90.5295C92.8889 79.4821 133.538 60.2892 163.488 31.3408Z" fill="url(#paint0_linear_4170_56)" fill-opacity="0.5" shape-rendering="crispEdges"/>
<path d="M163.51 32.7031C169.026 37.6379 173.489 41.754 179.694 46.4746C216.813 74.7086 258.275 89.7637 303.508 98.2725C303.482 126.823 304.08 155.098 301.774 183.492C297.183 240.034 278.264 293.129 242.982 337.783C222.559 363.633 200.18 383.129 173.128 402.031C172.782 402.272 172.049 402.798 171.147 403.44C170.24 404.087 169.151 404.859 168.076 405.604C166.999 406.351 165.945 407.066 165.107 407.597C164.687 407.863 164.334 408.076 164.065 408.222C164.052 408.229 164.038 408.234 164.025 408.241C141.155 392.676 121.741 377.899 102.391 357.939C83.4397 338.317 67.5332 315.985 55.1943 291.685L54.0117 289.326C31.1657 242.923 24.138 196.651 23.1025 145.419C22.7879 129.847 23.2716 113.995 23.5244 98.3564C33.7717 96.1549 43.0192 94.3603 53.3496 91.4932C92.963 80.4994 133.469 61.4429 163.51 32.7031Z" stroke="white" stroke-opacity="0.7" stroke-width="2" shape-rendering="crispEdges"/>
</g>
<defs>
<filter id="filter0_i_4170_56" x="2.67676" y="0" width="324.098" height="436.634" filterUnits="userSpaceOnUse" color-interpolation-filters="sRGB">
<feFlood flood-opacity="0" result="BackgroundImageFix"/>
<feBlend mode="normal" in="SourceGraphic" in2="BackgroundImageFix" result="shape"/>
<feColorMatrix in="SourceAlpha" type="matrix" values="0 0 0 0 0 0 0 0 0 0 0 0 0 0 0 0 0 0 127 0" result="hardAlpha"/>
<feOffset dy="1"/>
<feGaussianBlur stdDeviation="5"/>
<feComposite in2="hardAlpha" operator="arithmetic" k2="-1" k3="1"/>
<feColorMatrix type="matrix" values="0 0 0 0 1 0 0 0 0 1 0 0 0 0 1 0 0 0 0.5 0"/>
<feBlend mode="normal" in2="shape" result="effect1_innerShadow_4170_56"/>
</filter>
<filter id="filter1_dd_4170_56" x="0" y="12.3408" width="326.559" height="422.031" filterUnits="userSpaceOnUse" color-interpolation-filters="sRGB">
<feFlood flood-opacity="0" result="BackgroundImageFix"/>
<feColorMatrix in="SourceAlpha" type="matrix" values="0 0 0 0 0 0 0 0 0 0 0 0 0 0 0 0 0 0 127 0" result="hardAlpha"/>
<feOffset/>
<feComposite in2="hardAlpha" operator="out"/>
<feColorMatrix type="matrix" values="0 0 0 0 1 0 0 0 0 1 0 0 0 0 1 0 0 0 0.5 0"/>
<feBlend mode="normal" in2="BackgroundImageFix" result="effect1_dropShadow_4170_56"/>
<feColorMatrix in="SourceAlpha" type="matrix" values="0 0 0 0 0 0 0 0 0 0 0 0 0 0 0 0 0 0 127 0" result="hardAlpha"/>
<feOffset dy="3"/>
<feGaussianBlur stdDeviation="11"/>
<feComposite in2="hardAlpha" operator="out"/>
<feColorMatrix type="matrix" values="0 0 0 0 0 0 0 0 0 0 0 0 0 0 0 0 0 0 0.1 0"/>
<feBlend mode="normal" in2="effect1_dropShadow_4170_56" result="effect2_dropShadow_4170_56"/>
<feBlend mode="normal" in="BackgroundImageFix" in2="effect2_dropShadow_4170_56" result="BackgroundImageFix"/>
<feBlend mode="normal" in="SourceGraphic" in2="BackgroundImageFix" result="shape"/>
</filter>
<linearGradient id="paint0_linear_4170_56" x1="21.6768" y1="164.945" x2="304.677" y2="167.445" gradientUnits="userSpaceOnUse">
<stop offset="0.419332" stop-color="#FDFBF6"/>
<stop offset="0.600497" stop-color="#FAE3BB"/>
</linearGradient>
</defs>
</svg>
