<svg width="547" height="73" viewBox="0 0 547 73" fill="none" xmlns="http://www.w3.org/2000/svg">
<path d="M184.104 0.350586L184.95 0.370117C193.718 0.697006 202.938 4.78087 209.532 11.21L209.681 11.3555L209.565 11.5283L201.86 23.0449L201.693 23.2949L201.478 23.085C196.116 17.8496 190.012 14.8916 183.931 14.8916C173.357 14.8916 162.649 23.8672 162.649 36.6025C162.65 48.4458 171.865 58.1845 185.212 58.1846C190.095 58.1846 194.265 56.9324 197.267 54.6719C200.198 52.464 202.028 49.2853 202.321 45.3291H184.49V32.0312H217.411L217.435 32.2549C217.639 34.1854 217.765 36.0376 217.775 37.8506H217.781V38.1006C217.781 48.9917 214.025 57.6314 207.99 63.5479C201.957 69.4628 193.664 72.6406 184.616 72.6406C164.149 72.6406 148.025 56.4337 148.024 36.6025C148.024 16.7753 164.231 0.350586 184.102 0.350586H184.104Z" stroke="black" stroke-width="0.5"/>
<path d="M58.6279 3.58398V18.0908H37.6709V72.6426H21.1094V18.0908H0.25V3.58398H58.6279Z" stroke="black" stroke-width="0.5"/>
<path d="M103.323 0.25C110.734 0.250028 117.255 1.74333 122.878 4.7373C128.5 7.73113 132.843 11.9587 135.906 17.4209H135.907C138.966 22.8834 140.493 29.2279 140.493 36.4463C140.493 43.6647 138.966 50.0091 135.907 55.4717C132.848 60.9342 128.505 65.1623 122.878 68.1562L122.877 68.1553C117.254 71.1489 110.734 72.6426 103.323 72.6426C95.9118 72.6426 89.3913 71.1489 83.7686 68.1553C78.1461 65.1614 73.8027 60.9341 70.7393 55.4717C67.6804 50.009 66.1524 43.6648 66.1523 36.4463C66.1523 29.2278 67.6804 22.8835 70.7393 17.4209C73.7984 11.9584 78.1421 7.73114 83.7686 4.7373C89.3913 1.74339 95.9118 0.25 103.323 0.25ZM103.327 15.0469C99.2526 15.0469 95.6734 15.9369 92.583 17.709C89.4921 19.4817 87.0904 21.9758 85.3838 25.2002C83.6736 28.424 82.8164 32.1674 82.8164 36.4463C82.8164 40.7253 83.6736 44.4688 85.3838 47.6885L85.7119 48.2842C87.3934 51.2215 89.6851 53.5176 92.583 55.1797C95.6734 56.9519 99.2526 57.8418 103.327 57.8418C107.402 57.8418 110.998 56.9515 114.123 55.1787C117.248 53.4058 119.662 50.9122 121.368 47.6885C123.075 44.4641 123.937 40.7207 123.937 36.4463C123.937 32.1717 123.079 28.424 121.368 25.2002C119.658 21.9761 117.244 19.4818 114.123 17.709C110.998 15.9363 107.402 15.0469 103.327 15.0469Z" stroke="black" stroke-width="0.5"/>
<path d="M279.39 3.57812V17.3701H241.315V30.8984H276.014V44.3203H241.315V58.585H279.334V72.7432H225.312V3.57812H279.39Z" stroke="black" stroke-width="0.5"/>
<path d="M475.926 3.57812V17.3701H437.854V30.8984H472.551V44.3203H437.854V58.585H475.872V72.7432H421.848V3.57812H475.926Z" stroke="black" stroke-width="0.5"/>
<path d="M345.298 3.63281V18.1396H324.339V72.6914H307.778V18.1396H286.919V3.63281H345.298Z" stroke="black" stroke-width="0.5"/>
<path d="M369.328 3.58398V30.125H397.912V3.58398H414.377V72.6426H397.912V45.1221H369.328V72.6426H352.767V3.58398H369.328Z" stroke="black" stroke-width="0.5"/>
<path d="M517.038 3.58398C522.029 3.584 526.414 4.55277 530.179 6.50293C533.707 8.33093 536.485 10.8691 538.505 14.1191L538.899 14.7793L539.271 15.4541C541.067 18.8601 541.965 22.7273 541.965 27.0498C541.965 32.3192 540.6 36.8437 537.852 40.6172C535.17 44.2993 531.402 46.933 526.566 48.5264L545.729 72.2402L546.058 72.6475H526.314L526.239 72.5498L508.882 50.0186H499.958V72.6426H483.396V3.58398H517.038ZM499.854 36.5889H515.178C518.601 36.5889 521.175 35.7627 522.94 34.1543C524.703 32.548 525.6 30.2549 525.6 27.2373C525.6 24.2215 524.688 21.9147 522.891 20.2734L522.825 20.2139C521.029 18.6106 518.49 17.793 515.178 17.793H499.854V36.5889Z" stroke="black" stroke-width="0.5"/>
</svg>
