<svg width="247" height="36" viewBox="0 0 247 36" fill="none" xmlns="http://www.w3.org/2000/svg">
<path d="M65.3471 11.3219C65.3471 17.8443 60.8495 21.6464 55.4366 21.6464C49.315 21.6464 44.4944 16.7995 44.4944 10.8706C44.4944 4.94178 49.3407 0.0307617 55.2815 0.0307617C57.9758 0.0564 60.8495 1.29345 62.8861 3.27914L60.5662 6.74672C58.9422 5.16099 57.0862 4.25852 55.2303 4.25852C52.008 4.25852 48.7472 6.99156 48.7472 10.8706C48.7472 14.4792 51.5568 17.4443 55.6161 17.4443C58.5808 17.4443 60.7072 15.924 60.8482 13.4229H55.4738V9.5695H65.2433C65.3074 10.1758 65.3458 10.7553 65.3458 11.3219H65.3471Z" fill="black"/>
<path d="M17.4266 1.00366V5.22117H11.1166V21.6463H6.28055V5.22117H0V1.00366H17.4266Z" fill="black"/>
<path d="M25.1069 20.3043C23.4265 19.4095 22.1294 18.1468 21.2142 16.5149C20.3004 14.883 19.8428 12.9858 19.8428 10.8232C19.8428 8.66062 20.3004 6.76339 21.2142 5.13151C22.1281 3.49963 23.4253 2.23695 25.1069 1.34217C26.7873 0.447392 28.7381 0 30.9594 0C33.1806 0 35.1314 0.447392 36.8118 1.34217C38.4922 2.23695 39.7893 3.49963 40.7045 5.13151C41.6183 6.76339 42.0759 8.66062 42.0759 10.8232C42.0759 12.9858 41.6183 14.883 40.7045 16.5149C39.7906 18.1468 38.4935 19.4095 36.8118 20.3043C35.1314 21.199 33.1806 21.6464 30.9594 21.6464C28.7381 21.6464 26.7873 21.199 25.1069 20.3043ZM34.2483 16.529C35.2019 15.988 35.9389 15.2266 36.4593 14.2434C36.9797 13.2601 37.2412 12.1205 37.2412 10.8232C37.2412 9.52591 36.981 8.38501 36.4593 7.40178C35.9377 6.41855 35.2006 5.6571 34.2483 5.11613C33.2947 4.57516 32.1988 4.30467 30.9606 4.30467C29.7225 4.30467 28.6317 4.57516 27.6883 5.11613C26.745 5.6571 26.0118 6.41855 25.4914 7.40178C24.9698 8.38501 24.7096 9.52463 24.7096 10.8232C24.7096 12.1218 24.9698 13.2614 25.4914 14.2434C26.0118 15.2266 26.745 15.988 27.6883 16.529C28.6317 17.07 29.7225 17.3405 30.9606 17.3405C32.1988 17.3405 33.2947 17.07 34.2483 16.529Z" fill="black"/>
<path d="M72.4328 17.5648H83.88V21.6772H67.7646V1.00244H83.8967V5.00458H72.4328V9.22849H82.8803V13.1191H72.4328V17.5648Z" fill="black"/>
<path d="M131.608 17.5648H143.056V21.6772H126.94V1.00244H143.072V5.00458H131.608V9.22849H142.056V13.1191H131.608V17.5648Z" fill="black"/>
<path d="M103.741 1.01904V5.23655H97.4305V21.6617H92.5945V5.23655H86.314V1.01904H103.741Z" fill="black"/>
<path d="M119.734 1.00366H124.541V21.6463H119.734V13.36H110.977V21.6463H106.141V1.00366H110.977V8.99512H119.734V1.00366Z" fill="black"/>
<path d="M153.11 14.8342H150.309V21.6463H145.473V1.00366H155.527C157.021 1.00366 158.328 1.29337 159.45 1.87408C160.57 2.45479 161.435 3.27522 162.044 4.33664C162.653 5.39807 162.958 6.61716 162.958 7.99394C162.958 9.56685 162.55 10.9129 161.734 12.0345C160.917 13.1549 159.762 13.951 158.269 14.4227L164.107 21.6476H158.357L153.109 14.8355L153.11 14.8342ZM157.341 5.89801C156.781 5.38653 155.989 5.13143 154.967 5.13143H150.279V10.9411H154.967C156.009 10.9411 156.805 10.6898 157.355 10.1886C157.905 9.68736 158.181 8.97461 158.181 8.05035C158.181 7.12609 157.9 6.4095 157.34 5.89801H157.341Z" fill="black"/>
<path d="M162.829 26.4895H0V36H162.829H246.095V26.4895H162.829Z" fill="#FFCC05"/>
<path d="M3.87452 33.2056H3.86042V35.0156H2.64404V29.738H3.77326L3.80274 30.302H3.81684C4.11677 29.8982 4.53462 29.6572 5.03322 29.6572C6.08168 29.6572 6.69692 30.5289 6.69692 31.6955C6.69692 32.862 6.04451 33.7555 5.01912 33.7555C4.54231 33.7555 4.16163 33.5581 3.8758 33.2056H3.87452ZM5.46388 31.7108C5.46388 31.0801 5.19984 30.5597 4.64357 30.5597C4.08729 30.5597 3.81556 31.0648 3.81556 31.725C3.81556 32.3851 4.0937 32.8543 4.63587 32.8543C5.17805 32.8543 5.46388 32.3633 5.46388 31.7108Z" fill="black"/>
<path d="M7.40576 29.7379H8.53498L8.56446 30.3609H8.57856C8.79774 29.9353 9.12074 29.6648 9.56038 29.6648C9.70009 29.6648 9.82442 29.6943 9.93465 29.7314V30.7429C9.84621 30.7288 9.6924 30.7134 9.56038 30.7134C8.95155 30.7134 8.62214 31.08 8.62214 31.512V33.6746H7.40576V29.7391V29.7379Z" fill="black"/>
<path d="M10.4897 28.0457H11.7356V29.0712H10.4897V28.0457ZM10.5051 33.6745V29.7391H11.7215V33.6745H10.5051Z" fill="black"/>
<path d="M16.4195 29.7378L14.9532 33.6733H13.6702L12.2039 29.7378H13.4715L14.329 32.449H14.3431L15.2006 29.7378H16.417H16.4195Z" fill="black"/>
<path d="M19.049 33.6747L19.0195 33.1325H19.0054C18.7709 33.5286 18.3684 33.7555 17.8544 33.7555C17.0777 33.7555 16.5791 33.2504 16.5791 32.5531C16.5791 32.0916 16.7919 31.7032 17.334 31.5198C17.7442 31.3801 18.3312 31.3442 18.9683 31.3224V31.0878C18.9683 30.7584 18.7414 30.5379 18.3453 30.5379C17.9493 30.5379 17.7301 30.743 17.6199 31.0289L16.7111 30.5738C17.0046 29.9585 17.5314 29.6572 18.412 29.6572C19.5925 29.6572 20.1706 30.1918 20.1706 31.0571V33.6735H19.049V33.6747ZM18.9683 32.2082V32.0031C18.7414 32.0172 18.4697 32.0403 18.2351 32.0762C18.0006 32.1134 17.7737 32.2005 17.7737 32.4864C17.7737 32.721 17.9493 32.912 18.2864 32.912C18.7042 32.912 18.9683 32.6108 18.9683 32.2082Z" fill="black"/>
<path d="M20.8438 31.7249C20.8438 30.5443 21.5551 29.6584 22.8881 29.6584C23.7674 29.6584 24.3314 30.0392 24.6326 30.6404L23.7097 31.1314C23.5482 30.7724 23.306 30.5519 22.933 30.5519C22.3536 30.5519 22.0755 31.0647 22.0755 31.7095C22.0755 32.3543 22.3536 32.8607 22.9471 32.8607C23.3432 32.8607 23.6072 32.6338 23.7674 32.2748L24.6621 32.7581C24.3686 33.3517 23.7905 33.7542 22.8881 33.7542C21.5692 33.7542 20.8438 32.8966 20.8438 31.7236V31.7249Z" fill="black"/>
<path d="M28.9494 29.7379L27.3959 33.9079C27.1101 34.6771 26.7294 35.095 25.8861 35.095C25.6297 35.095 25.4387 35.0514 25.3003 35.0142V34.1707C25.3951 34.2002 25.5131 34.222 25.6451 34.222C25.9681 34.222 26.1578 34.1053 26.2539 33.79L24.7363 29.7366H26.004L26.8615 32.4414H26.8756L27.733 29.7366H28.9494V29.7379Z" fill="black"/>
<path d="M33.4704 33.6747L33.4409 33.1325H33.4268C33.1923 33.5286 32.7898 33.7555 32.2758 33.7555C31.4991 33.7555 31.0005 33.2504 31.0005 32.5531C31.0005 32.0916 31.2133 31.7032 31.7554 31.5198C32.1656 31.3801 32.7526 31.3442 33.3897 31.3224V31.0878C33.3897 30.7584 33.1628 30.5379 32.7667 30.5379C32.3707 30.5379 32.1515 30.743 32.0413 31.0289L31.1325 30.5738C31.426 29.9585 31.9528 29.6572 32.8334 29.6572C34.0139 29.6572 34.5919 30.1918 34.5919 31.0571V33.6735H33.4704V33.6747ZM33.3897 32.2082V32.0031C33.1628 32.0172 32.8911 32.0403 32.6565 32.0762C32.4219 32.1134 32.1951 32.2005 32.1951 32.4864C32.1951 32.721 32.3707 32.912 32.7078 32.912C33.1256 32.912 33.3897 32.6108 33.3897 32.2082Z" fill="black"/>
<path d="M35.4775 29.738H36.6068L36.6285 30.2802H36.6426C36.8913 29.8841 37.3092 29.6572 37.8231 29.6572C38.6511 29.6572 39.1933 30.1918 39.1933 30.9981V33.6735H37.9769V31.1301C37.9769 30.8148 37.7796 30.5661 37.4053 30.5661C36.958 30.5661 36.6939 30.8661 36.6939 31.2776V33.6747H35.4775V29.7393V29.738Z" fill="black"/>
<path d="M39.8879 31.7326C39.8879 30.5597 40.5327 29.6585 41.5516 29.6585C42.0285 29.6585 42.4232 29.8636 42.7091 30.2161H42.7232V28.0471H43.9395V33.676H42.8039L42.7821 33.112H42.768C42.4822 33.5222 42.0349 33.7568 41.5222 33.7568C40.4968 33.7568 39.8879 32.8774 39.8879 31.7339V31.7326ZM42.768 31.7031C42.768 31.0212 42.4899 30.5597 41.94 30.5597C41.3901 30.5597 41.1197 31.0583 41.1197 31.7172C41.1197 32.3326 41.3837 32.853 41.94 32.853C42.4963 32.853 42.768 32.3543 42.768 31.7019V31.7031Z" fill="black"/>
<path d="M46.4465 29.738H47.1502V28.4919H48.3525V29.738H49.21V30.5661H48.3525V32.3326C48.3525 32.6697 48.4704 32.8671 48.9318 32.8671C49.0203 32.8671 49.1292 32.8594 49.21 32.8453V33.6734C49.0267 33.717 48.755 33.7542 48.4845 33.7542C47.5617 33.7542 47.1502 33.3286 47.1502 32.5671V30.5661H46.4465V29.738Z" fill="black"/>
<path d="M53.349 33.0594C52.9965 33.4773 52.4992 33.7555 51.6853 33.7555C50.2933 33.7555 49.5896 32.9273 49.5896 31.7185C49.5896 30.5096 50.2856 29.6584 51.5827 29.6584C52.8798 29.6584 53.4887 30.502 53.4887 31.5941C53.4887 31.7557 53.481 31.9313 53.4592 32.0556H50.806C50.8726 32.5607 51.1213 32.8838 51.7224 32.8838C52.0595 32.8838 52.3671 32.7517 52.6094 32.43L53.3502 33.0607L53.349 33.0594ZM52.3082 31.3288C52.2646 30.8378 52.0736 30.5302 51.575 30.5302C51.0764 30.5302 50.8572 30.8378 50.806 31.3288H52.3082Z" fill="black"/>
<path d="M53.9343 31.7249C53.9343 30.5443 54.6457 29.6584 55.9787 29.6584C56.858 29.6584 57.422 30.0392 57.7232 30.6404L56.8003 31.1314C56.6388 30.7724 56.3966 30.5519 56.0236 30.5519C55.4442 30.5519 55.1661 31.0647 55.1661 31.7095C55.1661 32.3543 55.4442 32.8607 56.0377 32.8607C56.4337 32.8607 56.6978 32.6338 56.858 32.2748L57.7526 32.7581C57.4591 33.3517 56.8811 33.7542 55.9787 33.7542C54.6598 33.7542 53.9343 32.8966 53.9343 31.7236V31.7249Z" fill="black"/>
<path d="M58.2361 28.0457H59.4525V30.2518H59.4666C59.7012 29.8775 60.1113 29.6583 60.6099 29.6583C61.4162 29.6583 61.9506 30.1788 61.9506 30.971V33.6758H60.7343V31.1325C60.7343 30.8171 60.5433 30.5685 60.1626 30.5685C59.7153 30.5685 59.4512 30.8684 59.4512 31.2799V33.6771H58.2349V28.0482L58.2361 28.0457Z" fill="black"/>
<path d="M63.6527 32.4568H62.4351V33.6746H63.6527V32.4568Z" fill="#E30615"/>
</svg>
