<svg width="114" height="78" viewBox="0 0 114 78" fill="none" xmlns="http://www.w3.org/2000/svg">
<path d="M34.4938 2.52485C34.5581 2.55904 34.6225 2.59323 34.6888 2.62846C37.3162 4.03764 39.6667 6.2308 41.4868 8.5785C41.5928 8.7029 41.6993 8.82692 41.8064 8.95033C42.0087 9.20474 42.0087 9.20474 42.0087 9.41348C42.0775 9.41348 42.1464 9.41348 42.2174 9.41348C42.3805 9.60563 42.5311 9.79814 42.6806 10.0006C42.7755 10.1266 42.8705 10.2526 42.9655 10.3785C43.0146 10.4438 43.0636 10.509 43.1141 10.5762C43.3418 10.8768 43.5753 11.1725 43.8091 11.4683C44.255 12.0341 44.698 12.602 45.1399 13.1709C46.0222 14.3063 46.9097 15.437 47.8099 16.5583C48.1961 17.0405 48.5744 17.5282 48.9496 18.0189C49.1981 18.3435 49.4498 18.6649 49.7062 18.9832C50.0948 19.4658 50.4747 19.9548 50.8543 20.4444C51.3126 21.0355 51.7745 21.6233 52.2438 22.2057C52.6833 22.7515 53.1118 23.3045 53.5354 23.8627C54.0408 24.5284 54.5604 25.1806 55.0901 25.8271C55.4358 26.2499 55.7745 26.6769 56.1056 27.1113C56.473 27.5931 56.8474 28.0681 57.2276 28.5399C57.6827 29.1049 58.1264 29.6775 58.5649 30.2555C58.952 30.7658 59.3447 31.2671 59.7586 31.7559C60.2187 32.2995 60.6445 32.8637 61.0687 33.4353C61.4351 33.9277 61.8157 34.4049 62.2077 34.8773C63.0679 35.9317 63.8887 37.0192 64.7156 38.0998C64.899 38.3366 65.0839 38.5711 65.2717 38.8043C66.1339 39.8779 66.8468 40.8395 66.9278 42.265C66.9341 42.3756 66.9341 42.3756 66.9405 42.4885C66.9664 43.0846 66.9181 43.6009 66.7451 44.1698C66.7194 44.2615 66.6937 44.3533 66.6672 44.4478C66.1257 46.1567 64.7508 47.4252 63.1964 48.2403C61.9168 48.7764 60.4124 49.0378 59.0708 48.5653C58.3 48.2182 57.5428 47.7885 56.934 47.1966C56.934 47.1277 56.934 47.0588 56.934 46.9879C56.8758 46.9657 56.8175 46.9435 56.7575 46.9206C56.4363 46.732 56.231 46.472 56.0012 46.1855C55.9554 46.1293 55.9096 46.0732 55.8624 46.0153C54.9509 44.8899 54.9509 44.8899 54.9509 44.5873C54.8821 44.5873 54.8132 44.5873 54.7422 44.5873C54.5465 44.3476 54.3628 44.1067 54.1812 43.8567C54.0675 43.7025 53.9537 43.5484 53.8399 43.3943C53.7817 43.315 53.7235 43.2356 53.6636 43.1539C53.3968 42.7908 53.1271 42.4298 52.857 42.0693C52.8052 42.0001 52.7534 41.931 52.7001 41.8598C52.2204 41.2212 51.7282 40.5932 51.2323 39.9672C51.0352 39.7179 50.8391 39.4677 50.643 39.2175C50.2787 38.7528 49.9133 38.2891 49.5431 37.8291C49.1589 37.3508 48.7836 36.8659 48.408 36.3809C47.9282 35.7617 47.4425 35.148 46.9468 34.5413C46.2146 33.6451 45.4997 32.7363 44.7913 31.8211C44.6683 31.6624 44.5453 31.5036 44.4223 31.3449C44.3609 31.2657 44.2996 31.1866 44.2363 31.105C43.765 30.4989 43.2824 29.9028 42.796 29.3089C42.3925 28.8144 42.0085 28.3079 41.6291 27.7946C41.3361 27.4092 41.0307 27.0353 40.7236 26.6612C40.2169 26.0432 39.7296 25.4143 39.2534 24.7727C38.6767 23.997 38.0815 23.2361 37.4863 22.4746C37.0688 21.9402 36.6527 21.4047 36.238 20.868C35.4759 19.883 34.7019 18.9093 33.9122 17.9463C33.7768 17.7801 33.6433 17.6124 33.51 17.4445C33.0087 16.8159 32.474 16.253 31.8938 15.6983C31.6757 15.4671 31.6757 15.4671 31.6757 15.2584C31.6184 15.2338 31.5611 15.2091 31.502 15.1838C31.1962 15.0155 30.9599 14.8034 30.6972 14.5734C29.6233 13.6606 28.531 12.9942 27.1877 12.5447C27.1089 12.5151 27.0302 12.4855 26.9491 12.455C26.7176 12.3701 26.4855 12.2992 26.2483 12.2316C26.102 12.1878 26.102 12.1878 25.9527 12.1431C23.4386 11.5138 20.3028 11.7121 18.0028 12.9622C17.8589 13.0274 17.8589 13.0274 17.7121 13.0939C16.9056 13.4647 16.226 13.9516 15.5239 14.487C15.3276 14.6365 15.1607 14.7481 14.9368 14.8556C14.7287 14.9406 14.7287 14.9406 14.6629 15.2584C14.4606 15.4867 14.4606 15.4867 14.2454 15.6759C14.1765 15.6759 14.1076 15.6759 14.0366 15.6759C13.9955 15.7657 13.9955 15.7657 13.9535 15.8573C13.8203 16.1077 13.6669 16.31 13.4887 16.5304C11.3963 19.2021 10.7395 22.4107 11.0335 25.7567C11.2471 27.4904 11.9203 29.296 12.9142 30.7411C13.0973 31.0187 13.0973 31.0187 13.0973 31.2275C13.1662 31.2275 13.235 31.2275 13.306 31.2275C13.4679 31.4146 13.4679 31.4146 13.6517 31.6646C13.9332 32.0363 14.22 32.3667 14.5585 32.6887C14.6182 32.7518 14.678 32.8149 14.7395 32.8799C15.2575 33.4218 15.8086 33.8477 16.4372 34.2543C16.5187 34.308 16.6003 34.3617 16.6843 34.417C17.8683 35.1643 19.1472 35.6216 20.5078 35.9243C20.633 35.9523 20.633 35.9523 20.7607 35.9808C23.8642 36.616 27.0562 35.9394 29.7061 34.2555C32.5225 32.3835 34.0748 29.8369 35.0156 26.6351C35.4331 26.6351 35.4331 26.6351 35.6094 26.8091C35.6662 26.8883 35.7229 26.9674 35.7813 27.0489C35.8445 27.135 35.9077 27.2211 35.9728 27.3098C36.0358 27.3971 36.0988 27.4844 36.1638 27.5744C36.2776 27.7229 36.392 27.8709 36.507 28.0184C36.5637 28.0916 36.6203 28.1648 36.6786 28.2401C37.221 28.9403 37.7688 29.6351 38.3295 30.3208C38.7542 30.8409 39.176 31.363 39.5885 31.8929C39.6731 32.0013 39.7578 32.1098 39.845 32.2215C40.0256 32.48 40.0256 32.48 40.0256 32.6887C40.0945 32.6887 40.1633 32.6887 40.2343 32.6887C40.3647 32.8321 40.3647 32.8321 40.5103 33.032C40.5638 33.1045 40.6173 33.177 40.6724 33.2518C40.728 33.3286 40.7837 33.4054 40.841 33.4846C40.9502 33.6339 41.0596 33.7831 41.1692 33.9322C41.2221 34.0045 41.2751 34.0768 41.3297 34.1513C41.4764 34.3449 41.6295 34.5295 41.7881 34.7134C42.0087 34.9849 42.0087 34.9849 42.0087 35.1937C42.0775 35.1937 42.1464 35.1937 42.2174 35.1937C42.4013 35.3808 42.4013 35.3808 42.6023 35.6307C42.6694 35.7119 42.7366 35.793 42.8057 35.8766C42.948 36.133 42.948 36.133 42.9395 36.3785C42.816 36.7347 42.6619 37.0695 42.4914 37.4051C42.4547 37.4774 42.418 37.5497 42.3802 37.6242C41.6453 39.046 40.8236 40.3332 39.743 41.5163C39.5652 41.712 39.3945 41.9135 39.2232 42.1149C38.1085 43.3773 36.8286 44.3859 35.4331 45.3179C35.3399 45.3813 35.2467 45.4446 35.1506 45.5099C33.9354 46.3133 32.6258 46.9117 31.2582 47.4053C31.1942 47.43 31.1302 47.4546 31.0643 47.4799C29.6432 48.026 28.1718 48.3506 26.6658 48.5535C26.5641 48.5673 26.4624 48.5812 26.3576 48.5954C23.3888 48.9123 20.3151 48.5711 17.4747 47.6773C17.2897 47.6195 17.1038 47.5645 16.9179 47.5097C14.0307 46.6553 11.4526 45.2478 9.13108 43.3348C9.04173 43.2643 9.04173 43.2643 8.95057 43.1923C8.79818 43.0705 8.651 42.9422 8.50484 42.8129C8.50484 42.744 8.50484 42.6752 8.50484 42.6042C8.41544 42.5658 8.41544 42.5658 8.32423 42.5267C7.56484 42.1058 6.97514 41.2769 6.41738 40.6211C6.34526 40.541 6.27315 40.461 6.19885 40.3785C3.1646 36.9144 1.3714 32.5666 0.468101 28.0963C0.451418 28.0162 0.434734 27.9361 0.417545 27.8536C-0.159791 25.0329 -0.134196 21.9332 0.468101 19.1202C0.487576 19.0241 0.507052 18.9281 0.527117 18.8291C0.880997 17.1053 1.42388 15.5088 2.13807 13.9015C2.17386 13.821 2.20965 13.7405 2.24652 13.6575C3.04901 11.8882 4.14165 10.2827 5.37364 8.78725C5.44899 8.68795 5.52433 8.58866 5.60196 8.48636C5.66439 8.41343 5.72682 8.34051 5.79114 8.26538C5.86002 8.26538 5.92891 8.26538 5.99988 8.26538C6.0279 8.20356 6.05592 8.14175 6.08479 8.07806C6.2915 7.69387 6.60537 7.41595 6.91315 7.11075C6.98281 7.04145 7.05247 6.97215 7.12424 6.90075C7.78621 6.25291 8.4922 5.68486 9.23546 5.13418C9.33044 5.0618 9.42543 4.98941 9.5233 4.91483C10.8696 3.9061 12.284 3.10949 13.8147 2.41793C14.0059 2.33021 14.1948 2.23758 14.3832 2.14405C20.5006 -0.87471 28.5212 -0.667692 34.4938 2.52485Z" fill="#FEFEFE"/>
<path d="M55.9953 1.06361C55.9953 1.13249 55.9953 1.20138 55.9953 1.27235C56.0578 1.30249 56.1202 1.33263 56.1845 1.36368C56.4128 1.4811 56.4128 1.4811 56.7259 1.68985C56.7259 1.75873 56.7259 1.82762 56.7259 1.89859C56.7851 1.922 56.8443 1.94541 56.9053 1.96953C57.2144 2.14842 57.387 2.36565 57.6131 2.64225C57.6805 2.72456 57.6805 2.72456 57.7492 2.80852C58.2204 3.39021 58.6667 3.99072 59.1131 4.5915C59.9622 5.73386 60.836 6.85769 61.7115 7.97986C62.0686 8.43804 62.4226 8.89839 62.774 9.36097C63.3312 10.0945 63.9007 10.8155 64.4844 11.5281C64.8301 11.9508 65.1687 12.3778 65.4998 12.8121C65.8804 13.3111 66.2681 13.8035 66.661 14.2929C66.7663 14.4243 66.8716 14.5558 66.9769 14.6872C67.1542 14.9083 67.3317 15.1293 67.5094 15.3501C67.576 15.4339 67.6426 15.5177 67.7112 15.6041C67.796 15.7101 67.796 15.7101 67.8825 15.8182C67.9983 15.989 67.9983 15.989 67.9983 16.1977C68.0671 16.1977 68.136 16.1977 68.207 16.1977C68.3764 16.3986 68.5339 16.5999 68.6897 16.8109C68.7846 16.937 68.8796 17.0629 68.9747 17.1889C69.0217 17.2514 69.0687 17.314 69.1172 17.3784C69.2945 17.6123 69.4774 17.8414 69.6617 18.0699C70.1413 18.666 70.6131 19.2681 71.0853 19.8702C71.2784 20.1163 71.4717 20.3623 71.665 20.6083C71.8087 20.7912 71.9524 20.9742 72.0961 21.1571C72.2833 21.3953 72.4706 21.6334 72.658 21.8714C74.7341 24.5091 74.7341 24.5091 75.7064 25.8139C75.9569 26.1483 76.2107 26.4801 76.4655 26.8112C76.5308 26.8962 76.5308 26.8962 76.5975 26.9829C76.7974 27.2425 76.9987 27.5007 77.2027 27.7571C77.2694 27.841 77.3361 27.925 77.4049 28.0115C77.4633 28.084 77.5217 28.1565 77.5818 28.2312C77.705 28.4094 77.705 28.4094 77.705 28.6181C77.7739 28.6181 77.8427 28.6181 77.9137 28.6181C78.0745 28.8128 78.2234 29.007 78.3703 29.2118C78.7217 29.6931 78.7217 29.6931 79.092 30.1597C79.2706 30.3925 79.2706 30.3925 79.2706 30.6012C79.3395 30.6012 79.4083 30.6012 79.4793 30.6012C79.6383 30.7819 79.6383 30.7819 79.8316 31.0383C80.2441 31.5701 80.6893 32.0593 81.1545 32.5447C81.3964 32.8004 81.5584 32.9766 81.6712 33.3149C81.8101 33.385 81.9493 33.4545 82.0886 33.5237C82.2791 33.6961 82.4656 33.8728 82.6497 34.0521C83.9869 35.3135 85.6334 36.1981 87.4117 36.6549C87.5274 36.6862 87.6431 36.7176 87.7623 36.7499C88.7159 36.9699 89.6503 36.9974 90.6277 37.0006C90.8199 37.0015 90.8199 37.0015 91.016 37.0024C94.1325 36.9779 96.9764 35.6111 99.2311 33.5041C101.776 30.9086 102.705 27.6926 102.673 24.1256C102.627 22.0295 101.939 19.8803 100.746 18.1454C100.563 17.8677 100.563 17.8677 100.563 17.659C100.494 17.659 100.425 17.659 100.354 17.659C100.181 17.4681 100.181 17.4681 99.9887 17.2154C99.9252 17.133 99.8616 17.0507 99.7962 16.9659C99.6445 16.7497 99.5244 16.5415 99.4146 16.3021C99.3457 16.3021 99.2768 16.3021 99.2059 16.3021C99.2059 16.2332 99.2059 16.1643 99.2059 16.0934C99.1454 16.0667 99.085 16.0401 99.0228 16.0126C98.7647 15.8717 98.589 15.7101 98.3774 15.5063C96.3165 13.6471 93.3728 12.7071 90.6342 12.7208C90.4485 12.7217 90.4485 12.7217 90.259 12.7226C86.9008 12.7687 83.9142 14.2437 81.5668 16.6152C80.0638 18.2453 79.1531 20.2188 78.6443 22.3558C78.3663 22.3172 78.2474 22.2729 78.0506 22.0671C77.9938 21.9892 77.9371 21.9113 77.8787 21.831C77.8155 21.7459 77.7522 21.6607 77.6871 21.573C77.6241 21.4869 77.5611 21.4008 77.4962 21.312C77.3823 21.1636 77.2679 21.0156 77.1529 20.868C77.0963 20.7949 77.0397 20.7217 76.9814 20.6463C76.3838 19.8751 75.7777 19.1122 75.1598 18.3571C74.8179 17.9383 74.4841 17.5148 74.1563 17.0849C73.7121 16.5025 73.2531 15.9336 72.7897 15.3665C72.3103 14.7791 71.8404 14.1847 71.3737 13.5872C71.1365 13.2759 71.1365 13.2759 70.882 13.0058C70.712 12.7534 70.712 12.7534 70.7148 12.5088C70.8489 12.1427 71.0111 11.7955 71.1882 11.4487C71.2445 11.3379 71.2445 11.3379 71.302 11.2249C73.7578 6.46266 78.0745 2.85481 83.1622 1.20169C88.847 -0.578296 95.1659 0.12328 100.458 2.83795C101.522 3.39532 102.528 4.02459 103.505 4.72319C103.587 4.78168 103.669 4.84016 103.753 4.90042C103.828 4.95509 103.902 5.00975 103.979 5.06608C104.045 5.11452 104.111 5.16297 104.179 5.21288C104.226 5.25579 104.272 5.2987 104.32 5.34291C104.32 5.4118 104.32 5.48068 104.32 5.55166C104.377 5.57493 104.433 5.59821 104.491 5.62219C104.817 5.8048 105.074 6.04765 105.344 6.30184C105.4 6.35377 105.456 6.40571 105.513 6.45922C105.673 6.6084 105.832 6.75834 105.99 6.90851C106.06 6.97376 106.13 7.03902 106.201 7.10625C106.738 7.62407 107.196 8.20519 107.66 8.78723C107.75 8.89698 107.841 9.00665 107.931 9.11625C111.179 13.0942 113.383 18.5185 113.57 23.6669C113.574 23.762 113.578 23.857 113.582 23.9549C113.609 24.6401 113.628 25.3232 113.609 26.0088C113.608 26.0767 113.607 26.1445 113.605 26.2145C113.541 29.1229 112.899 32.1521 111.626 34.7762C111.596 34.8386 111.566 34.9011 111.535 34.9654C110.733 36.62 109.848 38.1347 108.704 39.5773C108.657 39.6364 108.61 39.6954 108.562 39.7563C107.445 41.1561 106.165 42.4612 104.738 43.5435C104.682 43.5869 104.626 43.6302 104.569 43.6749C101.346 46.1799 97.4357 47.8392 93.4066 48.4621C93.2974 48.4797 93.1883 48.4974 93.0758 48.5155C88.9831 49.1608 84.6651 48.8337 80.8362 47.1966C80.765 47.1662 80.6938 47.1358 80.6204 47.1045C78.887 46.3528 77.3928 45.3573 75.9306 44.1698C75.8483 44.1115 75.7659 44.0532 75.6811 43.9932C75.6257 43.9482 75.5702 43.9031 75.5131 43.8566C75.5131 43.7878 75.5131 43.7189 75.5131 43.6479C75.4529 43.6215 75.3926 43.5951 75.3306 43.568C75.0671 43.4235 74.8896 43.2601 74.6769 43.0482C74.5983 42.9699 74.5196 42.8917 74.4386 42.8111C74.3562 42.7278 74.2738 42.6444 74.1889 42.5585C74.0619 42.4306 74.0619 42.4306 73.9322 42.3002C73.4216 41.7814 72.9377 41.2584 72.49 40.6843C72.3271 40.4757 72.1615 40.2732 71.9901 40.0719C71.9414 40.0145 71.8926 39.9571 71.8423 39.898C71.7047 39.7365 71.5669 39.5752 71.4291 39.4138C71.2338 39.1598 71.2338 39.1598 71.2338 38.9511C71.1649 38.9511 71.0961 38.9511 71.0251 38.9511C70.8448 38.7372 70.6761 38.523 70.5097 38.2988C70.4635 38.2376 70.4173 38.1763 70.3697 38.1133C70.2799 37.9942 70.1906 37.8748 70.1017 37.7551C70.0005 37.6199 69.8965 37.4869 69.7918 37.3545C69.6682 37.1768 69.6682 37.1768 69.6682 36.968C69.5993 36.968 69.5305 36.968 69.4595 36.968C69.3045 36.7868 69.1584 36.5981 69.0159 36.407C68.9233 36.2837 68.8306 36.1604 68.7378 36.0372C68.6617 35.9358 68.6617 35.9358 68.584 35.8324C68.3993 35.5895 68.211 35.3496 68.0219 35.1101C67.9553 35.0256 67.8888 34.9411 67.8202 34.854C67.6875 34.6858 67.5546 34.5178 67.4212 34.3502C67.3606 34.2729 67.3 34.1957 67.2375 34.1161C67.1829 34.0471 67.1283 33.9781 67.0721 33.9071C66.9545 33.7324 66.9545 33.7324 66.9545 33.5237C66.8856 33.5237 66.8168 33.5237 66.7458 33.5237C66.5483 33.2796 66.3621 33.0341 66.1782 32.78C66.0649 32.6261 65.9514 32.4722 65.8378 32.3185C65.7803 32.2405 65.7228 32.1626 65.6636 32.0822C65.4123 31.7451 65.1538 31.4139 64.8932 31.084C64.8455 31.0235 64.7978 30.9631 64.7486 30.9009C64.4101 30.4728 64.069 30.0468 63.7275 29.6211C63.3188 29.1088 62.9151 28.5926 62.5107 28.0769C62.27 27.7701 62.029 27.4635 61.788 27.1569C61.4972 26.7868 61.2064 26.4167 60.916 26.0463C60.5022 25.5189 60.0883 24.9916 59.668 24.4693C59.1588 23.8347 58.6611 23.1912 58.1627 22.5482C57.8936 22.2012 57.6227 21.8557 57.3506 21.511C57.2831 21.4252 57.2156 21.3394 57.1461 21.2511C57.0158 21.0854 56.885 20.92 56.7538 20.7549C56.6954 20.6804 56.6369 20.6059 56.5767 20.5292C56.5248 20.4636 56.4729 20.3979 56.4194 20.3303C56.3085 20.1639 56.3085 20.1639 56.3085 19.9552C56.2396 19.9552 56.1707 19.9552 56.0997 19.9552C55.928 19.7521 55.7684 19.5488 55.6105 19.3355C55.5152 19.2092 55.4199 19.0829 55.3247 18.9567C55.2783 18.8948 55.2319 18.8329 55.1841 18.7691C54.7092 18.1362 54.214 17.5192 53.7187 16.9022C53.2266 16.2891 52.7431 15.6701 52.266 15.0451C51.9894 14.6847 51.7066 14.3292 51.4217 13.9753C51.2985 13.7971 51.2985 13.7971 51.2985 13.5884C51.2296 13.5884 51.1608 13.5884 51.0898 13.5884C50.8923 13.3443 50.7062 13.0988 50.5223 12.8447C50.4084 12.6901 50.2943 12.5356 50.1802 12.3812C50.0938 12.2641 50.0938 12.2641 50.0057 12.1447C49.7635 11.8193 49.5145 11.4997 49.2633 11.1813C49.2172 11.1227 49.1711 11.064 49.1236 11.0036C48.8701 10.6823 48.6134 10.3638 48.3537 10.0475C48.2695 9.94424 48.2695 9.94424 48.1836 9.83894C48.0766 9.70782 47.9688 9.57722 47.8603 9.44728C46.9735 8.35952 46.5852 7.05783 46.7061 5.65603C46.7505 5.33323 46.8227 5.02904 46.9149 4.71667C46.9532 4.58145 46.9532 4.58145 46.9923 4.44351C47.5153 2.80981 48.7869 1.57098 50.2772 0.781473C52.2932 -0.187684 54.0802 -0.0614346 55.9953 1.06361Z" fill="#FEFEFE"/>
<path d="M0.752485 56.4713C0.836091 56.4715 0.919697 56.4717 1.00584 56.472C1.09116 56.4719 1.17648 56.4718 1.26439 56.4717C1.44513 56.4716 1.62588 56.4718 1.80663 56.4722C2.08427 56.4728 2.36189 56.4722 2.63952 56.4715C2.8147 56.4716 2.98988 56.4717 3.16506 56.472C3.24867 56.4717 3.33227 56.4715 3.41841 56.4713C4.00436 56.4738 4.00436 56.4738 4.12073 56.5902C4.13359 56.7759 4.13929 56.9621 4.14216 57.1482C4.14528 57.3268 4.14528 57.3268 4.14847 57.5091C4.15021 57.6387 4.15195 57.7683 4.15375 57.9018C4.15592 58.0337 4.15809 58.1656 4.16032 58.3015C4.16601 58.6527 4.17125 59.004 4.17628 59.3552C4.18151 59.7134 4.18733 60.0716 4.1931 60.4298C4.2043 61.133 4.21492 61.8362 4.2251 62.5395C4.33566 62.4822 4.44622 62.425 4.56013 62.366C4.70883 62.29 4.85754 62.2141 5.00627 62.1383C5.0787 62.1006 5.15114 62.063 5.22577 62.0242C7.08444 61.0809 9.33975 60.9954 11.3158 61.6272C12.3623 62.0027 13.3004 62.5425 14.1406 63.2701C14.2255 63.3352 14.3104 63.4003 14.3978 63.4674C16.0371 64.8314 16.7838 66.8582 17.063 68.9062C17.1295 69.762 17.0303 70.5737 16.8543 71.4112C16.8364 71.502 16.8185 71.5928 16.8 71.6864C16.2829 73.9186 14.7922 75.6711 12.8816 76.8712C11.003 77.9477 8.66968 78.206 6.56983 77.6866C5.76323 77.4247 4.93222 77.1013 4.2251 76.6299C4.19066 77.0087 4.15621 77.3876 4.12073 77.778C3.55779 77.7805 2.99486 77.7824 2.43192 77.7837C2.24027 77.7842 2.04861 77.7849 1.85695 77.7858C1.58208 77.7871 1.30721 77.7877 1.03234 77.7882C0.903013 77.789 0.903013 77.789 0.771075 77.7898C0.565527 77.7898 0.359989 77.7844 0.154543 77.778C-0.0288414 77.5946 0.0371141 77.3531 0.0362103 77.1088C0.0364432 77.0271 0.036676 76.9455 0.0369159 76.8613C0.036753 76.7752 0.0365902 76.6891 0.0364225 76.6004C0.0360035 76.3096 0.036337 76.0188 0.0366642 75.728C0.0365229 75.5204 0.0363372 75.3129 0.03611 75.1053C0.0356324 74.5399 0.0358194 73.9745 0.0361496 73.4091C0.0364129 72.8188 0.036169 72.2285 0.0360049 71.6382C0.0358147 70.6467 0.036066 69.6552 0.0365623 68.6636C0.0371304 67.5155 0.0369464 66.3674 0.0363717 65.2193C0.0358988 64.2355 0.0358308 63.2517 0.0361043 62.2679C0.0362675 61.6795 0.0362876 61.091 0.035944 60.5026C0.0356436 59.9495 0.0358495 59.3965 0.0364548 58.8434C0.0365934 58.6398 0.0365521 58.4362 0.036323 58.2326C0.0360402 57.9559 0.0363927 57.6792 0.0369159 57.4024C0.036683 57.3208 0.0364502 57.2391 0.0362103 57.155C0.0387089 56.4795 0.0795877 56.4742 0.752485 56.4713ZM6.12991 65.5076C6.03788 65.5677 5.94586 65.6279 5.85104 65.6898C4.75622 66.4612 4.1647 67.4838 3.91198 68.8019C3.78855 70.2502 4.04162 71.2518 4.85134 72.4549C5.09923 72.7551 5.09923 72.7551 5.37321 72.9768C5.4277 73.0278 5.48219 73.0788 5.53833 73.1313C5.9673 73.5235 6.40617 73.7908 6.9388 74.0205C7.01886 74.0571 7.09891 74.0937 7.18139 74.1314C8.36142 74.5449 9.63464 74.3138 10.7541 73.8383C12.0514 73.1731 12.8655 72.0572 13.3382 70.7067C13.5925 69.4796 13.4437 68.2147 12.8082 67.1307C12.0411 66.0239 11.0069 65.1203 9.65251 64.8357C9.33317 64.8106 9.01381 64.8116 8.69358 64.8096C8.60875 64.8074 8.52392 64.8053 8.43652 64.8031C7.56374 64.7975 6.85851 65.0236 6.12991 65.5076Z" fill="#FEFEFE"/>
<path d="M54.221 62.4351C54.2287 62.3239 54.2287 62.3239 54.2365 62.2104C54.2443 62.1145 54.2521 62.0186 54.2601 61.9197C54.2674 61.8241 54.2747 61.7284 54.2821 61.6299C54.2964 61.5512 54.3107 61.4724 54.3254 61.3914C54.649 61.2295 54.9912 61.2722 55.3463 61.2731C55.4667 61.273 55.4667 61.273 55.5896 61.2728C55.7594 61.2727 55.9293 61.2729 56.0991 61.2734C56.3596 61.2739 56.62 61.2734 56.8805 61.2727C57.0453 61.2728 57.2102 61.2729 57.375 61.2731C57.4923 61.2728 57.4923 61.2728 57.6119 61.2725C58.1632 61.275 58.1632 61.275 58.3959 61.3914C58.3959 66.7989 58.3959 72.2065 58.3959 77.778C57.0526 77.778 55.7094 77.778 54.3254 77.778C54.2737 77.313 54.2737 77.313 54.221 76.8386C54.0529 76.9141 54.0529 76.9141 53.8814 76.9911C53.7315 77.0577 53.5816 77.1243 53.4317 77.1909C53.3581 77.224 53.2846 77.2571 53.2089 77.2912C51.3293 78.1227 49.1484 78.1985 47.2019 77.5496C46.0457 77.0962 45.026 76.5161 44.0968 75.6905C44.0305 75.6316 43.9641 75.5726 43.8958 75.5119C42.5166 74.2092 41.5265 72.2132 41.4524 70.3047C41.4186 68.0776 41.8815 66.0426 43.3662 64.3138C43.418 64.2472 43.4698 64.1806 43.5231 64.112C44.8168 62.5129 46.8696 61.535 48.8924 61.3061C50.7554 61.1399 52.6146 61.4355 54.221 62.4351ZM46.2886 66.2969C45.3403 67.5926 45.052 68.7774 45.1405 70.3675C45.268 71.156 45.6342 71.8014 46.0799 72.4549C46.1434 72.5532 46.1434 72.5532 46.2083 72.6535C46.7557 73.3963 47.823 73.9446 48.6892 74.2293C50.0317 74.4325 51.3266 74.2945 52.4866 73.5472C53.5757 72.7368 54.3243 71.723 54.6091 70.3756C54.7938 69.0112 54.463 67.7494 53.6991 66.61C53.0045 65.7204 51.8999 64.998 50.7767 64.8357C49.0339 64.6997 47.5712 65.0143 46.2886 66.2969Z" fill="#FEFEFE"/>
<path d="M84.5932 62.3306C84.6448 62.3822 84.6448 62.3822 84.6975 62.4349C84.7052 62.3237 84.7052 62.3237 84.713 62.2103C84.7208 62.1144 84.7286 62.0184 84.7367 61.9196C84.7439 61.8239 84.7512 61.7283 84.7587 61.6297C84.773 61.551 84.7872 61.4723 84.8019 61.3912C85.1256 61.2294 85.4677 61.272 85.8228 61.273C85.9432 61.2728 85.9432 61.2728 86.0661 61.2727C86.236 61.2726 86.4058 61.2728 86.5757 61.2732C86.8361 61.2738 87.0966 61.2732 87.357 61.2726C87.5219 61.2726 87.6867 61.2728 87.8516 61.273C87.9688 61.2727 87.9688 61.2727 88.0885 61.2723C88.6397 61.2748 88.6397 61.2748 88.8725 61.3912C88.8725 66.7988 88.8725 72.2064 88.8725 77.7778C87.5292 77.7778 86.1859 77.7778 84.8019 77.7778C84.7502 77.3128 84.7502 77.3128 84.6975 76.8385C84.5939 76.8876 84.4903 76.9367 84.3836 76.9873C83.4589 77.4153 82.5809 77.729 81.5663 77.8822C81.465 77.8982 81.3637 77.9142 81.2593 77.9307C79.0876 78.1937 76.8479 77.4792 75.1137 76.1733C74.2428 75.4702 73.5846 74.6636 73.0077 73.7073C72.9177 73.5597 72.9177 73.5597 72.8259 73.4092C71.8062 71.5703 71.6707 69.2543 72.2363 67.2504C72.6709 65.879 73.4341 64.4751 74.5733 63.5831C74.6586 63.4968 74.7439 63.4106 74.8318 63.3217C77.4278 60.7539 81.5193 60.8054 84.5932 62.3306ZM76.5112 66.6963C75.7143 67.8012 75.4773 69.0266 75.6171 70.3673C75.7675 71.0308 76.0176 71.652 76.3477 72.246C76.4166 72.246 76.4854 72.246 76.5564 72.246C76.5986 72.3385 76.5986 72.3385 76.6416 72.4328C77.1119 73.3113 78.053 73.7947 78.9513 74.1378C79.5024 74.2957 80.0565 74.3127 80.627 74.3335C80.7055 74.3375 80.7841 74.3416 80.8651 74.3457C81.8974 74.3179 83.0503 73.6243 83.7777 72.931C84.1681 72.499 84.4519 72.0415 84.6975 71.5154C84.7456 71.4186 84.7456 71.4186 84.7946 71.3197C85.3675 70.0974 85.1463 68.7619 84.7248 67.5333C84.2208 66.3651 83.1884 65.5598 82.0654 65.0418C80.0064 64.2732 77.8734 65.0654 76.5112 66.6963Z" fill="#FEFEFE"/>
<path d="M29.2754 61.8089C29.3828 61.8455 29.4902 61.8821 29.6008 61.9198C31.6669 62.6926 33.2004 64.3201 34.1443 66.281C34.6226 67.3966 34.811 68.4466 34.8268 69.6499C34.8289 69.7566 34.8289 69.7566 34.831 69.8655C34.8317 70.3466 34.7576 70.6207 34.5985 71.0981C30.3964 71.0981 26.1943 71.0981 21.8649 71.0981C22.5675 72.5032 23.3198 73.434 24.811 73.9822C25.308 74.1419 25.7682 74.1774 26.2878 74.1706C26.3745 74.1696 26.4613 74.1687 26.5507 74.1677C27.8751 74.1305 28.8973 73.5793 29.823 72.6327C29.9944 72.4382 30.1599 72.2419 30.3192 72.0375C30.7904 72.1538 31.2612 72.2714 31.7318 72.3902C31.9082 72.4346 32.0847 72.4787 32.2612 72.5226C32.5339 72.5905 32.8062 72.6596 33.0785 72.7289C33.1656 72.7504 33.2527 72.7719 33.3425 72.794C33.5541 72.8485 33.7635 72.9119 33.9722 72.9768C34.0067 73.0457 34.0411 73.1146 34.0766 73.1856C33.3457 75.0388 31.573 76.4817 29.8169 77.2822C27.6224 78.1695 25.1763 78.156 22.9935 77.2366C22.2684 76.9155 21.6506 76.4973 21.03 76.0036C20.875 75.9003 20.875 75.9003 20.7168 75.7949C20.7168 75.726 20.7168 75.6571 20.7168 75.5862C20.6135 75.5517 20.5102 75.5173 20.4037 75.4818C20.4037 75.4129 20.4037 75.344 20.4037 75.273C20.3004 75.2386 20.1971 75.2041 20.0906 75.1687C18.5337 73.453 17.9129 71.208 18.0219 68.932C18.1782 67.4273 18.6844 66.0619 19.5687 64.8357C19.6376 64.7324 19.7065 64.629 19.7775 64.5226C19.8464 64.5226 19.9152 64.5226 19.9862 64.5226C20.0099 64.4645 20.0336 64.4063 20.058 64.3465C20.2361 64.0325 20.4525 63.8303 20.7168 63.5832C20.8074 63.4973 20.8074 63.4973 20.8999 63.4095C21.6616 62.711 22.4756 62.2523 23.4371 61.8872C23.5047 61.8615 23.5724 61.8358 23.6421 61.8093C25.4349 61.1579 27.4847 61.153 29.2754 61.8089ZM23.013 65.9838C23.013 66.0527 23.013 66.1216 23.013 66.1926C22.9097 66.227 22.8064 66.2614 22.6999 66.2969C22.5038 66.5443 22.5038 66.5443 22.3216 66.8449C22.2578 66.9445 22.194 67.044 22.1283 67.1466C21.9387 67.4681 21.9387 67.4681 21.8649 67.9669C24.827 67.9669 27.7892 67.9669 30.841 67.9669C30.182 66.4841 29.4083 65.6146 27.9186 64.9401C26.2327 64.4439 24.3196 64.8332 23.013 65.9838Z" fill="#FEFEFE"/>
<path d="M90.8555 61.287C92.1643 61.287 93.4732 61.287 94.8217 61.287C94.8733 61.4936 94.8733 61.4936 94.926 61.7045C95.0004 61.6831 95.0748 61.6617 95.1515 61.6396C95.2515 61.6115 95.3514 61.5834 95.4544 61.5544C95.6015 61.5126 95.6015 61.5126 95.7516 61.47C97.7507 60.9823 100.037 61.172 101.852 62.1603C102.287 62.429 102.682 62.7253 103.067 63.0613C103.13 63.1132 103.193 63.1652 103.258 63.2187C104.527 64.3566 105.126 66.2126 105.259 67.8625C105.272 68.2016 105.272 68.54 105.271 68.8793C105.271 68.9762 105.271 69.073 105.271 69.1728C105.271 69.4896 105.27 69.8064 105.269 70.1232C105.269 70.3442 105.269 70.5651 105.269 70.7861C105.268 71.3652 105.267 71.9443 105.266 72.5234C105.265 73.1153 105.265 73.7072 105.264 74.2992C105.263 75.4588 105.261 76.6183 105.259 77.7779C103.95 77.7779 102.641 77.7779 101.293 77.7779C101.291 77.4962 101.29 77.2145 101.288 76.9243C101.283 75.9903 101.276 75.0563 101.268 74.1223C101.264 73.5564 101.259 72.9905 101.257 72.4245C101.254 71.8777 101.25 71.3309 101.244 70.7841C101.243 70.5762 101.242 70.3683 101.241 70.1603C101.28 68.3366 101.28 68.3366 100.562 66.7144C100.562 66.6455 100.562 66.5766 100.562 66.5056C100.493 66.5056 100.424 66.5056 100.353 66.5056C100.282 66.4281 100.211 66.3506 100.138 66.2708C99.5894 65.6976 98.7979 65.4948 98.0311 65.4358C97.0442 65.5016 96.2085 65.9538 95.5131 66.6491C94.9961 67.4844 94.9114 68.3548 94.9046 69.3177C94.9036 69.4094 94.9025 69.5012 94.9015 69.5957C94.8982 69.8972 94.8956 70.1988 94.893 70.5003C94.8909 70.7101 94.8887 70.9198 94.8864 71.1295C94.8807 71.6803 94.8755 72.2311 94.8705 72.7819C94.8652 73.3444 94.8594 73.9069 94.8537 74.4694C94.8424 75.5722 94.8319 76.6751 94.8217 77.7779C93.5128 77.7779 92.204 77.7779 90.8555 77.7779C90.8555 72.3359 90.8555 66.8939 90.8555 61.287Z" fill="#FEFEFE"/>
<path d="M107.817 56.474C107.98 56.474 108.143 56.4746 108.305 56.4757C108.381 56.4758 108.457 56.4759 108.535 56.476C108.819 56.4765 109.104 56.478 109.388 56.4793C110.023 56.4815 110.658 56.4836 111.312 56.4858C111.312 58.0702 111.312 59.6546 111.312 61.287C112.036 61.287 112.759 61.287 113.504 61.287C113.691 61.4737 113.622 61.7249 113.623 61.9734C113.623 62.0954 113.623 62.0954 113.622 62.2199C113.622 62.3029 113.623 62.3859 113.623 62.4714C113.623 62.6472 113.623 62.8231 113.622 62.9989C113.622 63.269 113.622 63.539 113.623 63.8091C113.623 63.9795 113.623 64.1499 113.622 64.3204C113.623 64.4017 113.623 64.483 113.623 64.5668C113.621 65.1368 113.621 65.1368 113.504 65.2532C112.781 65.2532 112.058 65.2532 111.312 65.2532C111.312 69.3864 111.312 73.5196 111.312 77.778C110.003 77.778 108.695 77.778 107.346 77.778C107.346 73.6448 107.346 69.5116 107.346 65.2532C106.623 65.2532 105.9 65.2532 105.154 65.2532C105.154 63.9444 105.154 62.6355 105.154 61.287C105.878 61.287 106.601 61.287 107.346 61.287C107.345 60.9492 107.344 60.6113 107.342 60.2633C107.342 59.9375 107.341 59.6118 107.34 59.2861C107.34 59.059 107.339 58.8319 107.338 58.6048C107.337 58.2791 107.336 57.9535 107.336 57.6278C107.335 57.5256 107.335 57.4234 107.334 57.3181C107.334 57.2241 107.334 57.1301 107.334 57.0332C107.334 56.95 107.334 56.8668 107.334 56.7811C107.357 56.4287 107.453 56.4858 107.817 56.474Z" fill="#FEFEFE"/>
<path d="M61.185 56.4713C61.2686 56.4715 61.3522 56.4717 61.4384 56.472C61.5237 56.4719 61.609 56.4718 61.6969 56.4717C61.8777 56.4716 62.0584 56.4718 62.2392 56.4722C62.5168 56.4728 62.7944 56.4722 63.0721 56.4715C63.2472 56.4716 63.4224 56.4717 63.5976 56.472C63.6812 56.4717 63.7648 56.4715 63.851 56.4713C64.4369 56.4738 64.4369 56.4738 64.5533 56.5902C64.5635 56.8634 64.5668 57.1339 64.5658 57.4071C64.5659 57.4937 64.566 57.5803 64.5661 57.6696C64.5663 57.962 64.5657 58.2545 64.5651 58.547C64.5651 58.7558 64.5651 58.9645 64.5652 59.1733C64.5652 59.7419 64.5646 60.3106 64.5639 60.8792C64.5632 61.4728 64.5631 62.0663 64.563 62.6599C64.5627 63.7847 64.5618 64.9095 64.5608 66.0344C64.5596 67.3146 64.559 68.5948 64.5585 69.875C64.5574 72.5093 64.5555 75.1437 64.5533 77.778C63.21 77.778 61.8667 77.778 60.4827 77.778C60.4804 75.0172 60.4784 72.2565 60.4773 69.4957C60.4768 68.214 60.476 66.9322 60.4748 65.6505C60.4738 64.5337 60.4731 63.417 60.4729 62.3002C60.4728 61.7085 60.4724 61.1168 60.4717 60.5251C60.471 59.9689 60.4707 59.4126 60.4709 58.8564C60.4709 58.6516 60.4707 58.4468 60.4703 58.242C60.4698 57.9637 60.4699 57.6854 60.4702 57.4071C60.4699 57.325 60.4696 57.2428 60.4692 57.1582C60.4711 56.4809 60.51 56.4742 61.185 56.4713Z" fill="#FEFEFE"/>
<path d="M66.5366 61.287C67.8799 61.287 69.2232 61.287 70.6072 61.287C70.6072 66.729 70.6072 72.171 70.6072 77.778C69.2639 77.778 67.9206 77.778 66.5366 77.778C66.5366 72.3359 66.5366 66.8939 66.5366 61.287Z" fill="#FEFEFE"/>
<path d="M39.4387 73.1333C40.0182 73.4807 40.4423 73.9726 40.6977 74.5945C40.8211 75.3623 40.8103 76.0354 40.4433 76.7341C39.9607 77.3432 39.5169 77.7267 38.7297 77.8203C37.8468 77.8422 37.1489 77.7872 36.4771 77.1516C35.9911 76.4988 35.7976 75.8762 35.8508 75.0642C36.0118 74.2933 36.3449 73.7379 36.9688 73.2564C37.6855 72.824 38.6753 72.8006 39.4387 73.1333Z" fill="#FEFEFE"/>
<path d="M69.8117 56.8643C70.2711 57.2577 70.5592 57.611 70.6467 58.2195C70.6769 58.9049 70.5427 59.3461 70.19 59.9303C70.1211 59.9303 70.0522 59.9303 69.9813 59.9303C69.9813 59.9991 69.9813 60.068 69.9813 60.139C69.3436 60.6028 68.7764 60.6613 67.9982 60.5565C67.4844 60.3821 67.0894 60.0296 66.7457 59.6171C66.4551 58.9943 66.451 58.4096 66.6674 57.771C66.9973 57.1466 67.3383 56.745 68.0177 56.512C68.68 56.4532 69.2532 56.4729 69.8117 56.8643Z" fill="#FEFEFE"/>
</svg>
