<svg width="180" height="57" viewBox="0 0 180 57" fill="none" xmlns="http://www.w3.org/2000/svg">
<path fill-rule="evenodd" clip-rule="evenodd" d="M25.1776 0C25.8453 0 26.6008 0.123012 27.0927 0.333889C27.5671 0.509619 29.2714 1.44099 30.923 2.37237C32.557 3.32131 35.6844 5.11377 37.8631 6.37903C40.0417 7.62672 43.2395 9.45432 44.9613 10.4208C46.6832 11.4049 48.4401 12.5296 48.8267 12.9162C49.2308 13.3028 49.7403 13.9706 49.9511 14.4099C50.162 14.8493 50.4255 15.7103 50.5134 16.343C50.6364 17.081 50.6891 21.6325 50.6012 40.6817L50.1269 41.7361C49.8457 42.316 49.3011 43.1243 48.897 43.5285C48.4753 43.9327 46.8413 45.0047 45.2424 45.9185C43.6436 46.8323 40.2877 48.7477 37.7752 50.2063C35.2627 51.6473 32.0123 53.51 30.5716 54.3535C29.1133 55.1795 27.4617 56.023 26.8819 56.2339C26.3021 56.4272 25.5115 56.5853 25.1249 56.5853C24.7384 56.5853 23.9829 56.4272 23.4558 56.2339C22.9287 56.0406 21.5407 55.3376 20.3811 54.6699C19.2214 54.0021 16.2521 52.2975 13.7924 50.8741C11.3326 49.4507 7.76588 47.4122 5.88591 46.3402C4.00593 45.2683 2.10839 44.0733 1.68671 43.6691C1.26503 43.2825 0.720365 42.5796 0 41.2089V15.3764L0.439247 14.4978C0.667655 14.0233 1.19475 13.3028 1.58129 12.9162C2.03811 12.4769 5.14797 10.579 10.0148 7.80245C14.2667 5.35979 18.7295 2.79412 19.9418 2.0912C21.1541 1.38827 22.5773 0.632631 23.1044 0.421754C23.7545 0.140585 24.4221 0 25.1601 0L25.1776 0ZM19.608 8.80411C18.8876 8.99742 17.5699 9.48946 16.709 9.91122C15.8305 10.3154 14.4951 11.071 13.7221 11.5982C12.949 12.1254 11.6313 13.215 10.8055 14.0409C9.96212 14.8844 8.87279 16.1848 8.36326 16.958C7.8713 17.7312 7.18608 18.9262 6.86982 19.594C6.53599 20.2618 6.07918 21.4216 5.8332 22.1421C5.58722 22.8626 5.27096 24.2509 5.11283 25.2174C4.97227 26.1839 4.84929 27.5546 4.84929 28.2575C4.84929 28.9429 4.93713 30.1378 5.04255 30.8935C5.14797 31.6315 5.42909 32.9144 5.6575 33.7403C5.90348 34.5663 6.46571 36.0248 6.9401 36.9913C7.41449 37.9579 8.18756 39.2934 8.64438 39.9612C9.11876 40.629 9.61072 41.2089 9.71614 41.244C9.89184 41.2792 9.94455 39.7152 9.94455 33.8282C9.94455 27.6952 9.99726 26.1136 10.2257 25.0065C10.3838 24.2509 10.7352 23.091 11.0163 22.4057C11.2799 21.7379 11.8245 20.7011 12.1935 20.1212C12.5625 19.5413 13.3707 18.522 14.0032 17.8543C14.6181 17.1865 15.602 16.3078 16.1819 15.9036C16.7617 15.4819 17.7104 14.9195 18.2902 14.6208C18.87 14.3396 20.0121 13.8827 20.8379 13.6191C22.0151 13.2501 22.8057 13.1271 24.5275 13.0568C26.144 12.9865 27.0752 13.0392 28.0415 13.2325C28.7619 13.3907 29.8688 13.6894 30.5013 13.9179C31.1338 14.1463 32.2759 14.6911 33.0489 15.1129C33.945 15.6225 34.9641 16.4133 35.8777 17.3095C36.6683 18.0827 37.6874 19.3128 38.1618 20.0333C38.6186 20.7538 39.216 21.8609 39.4619 22.4935C39.7255 23.1262 40.0593 24.2157 40.235 24.9186C40.4107 25.7094 40.5161 26.9747 40.5161 28.3454C40.5161 29.927 40.4283 30.8583 40.1647 31.8951C39.9715 32.6684 39.5146 33.9336 39.1281 34.7068C38.7591 35.4801 37.9509 36.7805 37.336 37.6064C36.721 38.4148 35.702 39.5043 35.0695 40.0139C34.437 40.5411 33.2598 41.2967 32.434 41.7361C31.6082 42.1578 30.2202 42.7202 29.3593 42.9838C27.9537 43.4055 27.5144 43.4582 25.2303 43.4582C23.2801 43.4582 22.4016 43.3704 21.5055 43.1243L20.3283 42.7905L20.3108 47.8867C21.8745 48.2205 23.1571 48.3787 24.1761 48.4314C25.2128 48.5017 26.7238 48.4666 27.6023 48.3436C28.4632 48.2381 29.7809 47.9921 30.5013 47.8164C31.2217 47.6231 32.3286 47.2364 32.9611 46.9728C33.5936 46.7093 34.5775 46.2172 35.1573 45.9009C35.7371 45.5846 36.721 44.9519 37.3536 44.4775C37.9861 44.003 39.0227 43.0716 39.6903 42.4214C40.3404 41.7536 41.2365 40.7344 41.6757 40.1545C42.115 39.5746 42.8881 38.239 43.4152 37.1671C43.9423 36.0951 44.5748 34.4784 44.8208 33.5646C45.0492 32.6508 45.3478 31.0692 45.4533 30.05C45.5938 28.6793 45.5938 27.7303 45.4357 26.3596C45.3303 25.3404 45.0843 23.9697 44.9086 23.2843C44.7329 22.6166 44.3464 21.4216 44.0477 20.6484C43.749 19.8752 43.1165 18.6099 42.6421 17.8367C42.1677 17.0635 41.2541 15.8158 40.6215 15.0777C39.989 14.3221 38.8821 13.2501 38.1793 12.6878C37.4941 12.143 36.4399 11.3874 35.8601 11.0359C35.2803 10.6844 34.1734 10.1045 33.4003 9.73549C32.6273 9.38403 31.2392 8.89198 30.3256 8.66353C28.9552 8.29449 28.1469 8.20663 25.8453 8.15391C24.2991 8.13634 22.5597 8.17148 21.9799 8.27692C21.4001 8.36479 20.3283 8.59324 19.608 8.80411ZM22.4192 16.0091C21.8921 16.1145 20.9433 16.4133 20.3108 16.6769C19.6783 16.9405 18.6943 17.4852 18.1145 17.8718C17.5347 18.2584 16.5157 19.1547 15.8656 19.8752C15.0047 20.789 14.4249 21.65 13.8802 22.7571C13.441 23.6885 13.0017 24.9011 12.8436 25.7094C12.6327 26.8165 12.58 28.6441 12.58 35.5855V44.1084C13.8802 45.0574 14.9344 45.69 15.7777 46.1293C16.6387 46.5687 17.359 46.9201 17.4117 46.9201C17.4645 46.9201 17.4996 42.4566 17.4996 36.9913C17.4996 27.9236 17.5347 26.9747 17.8159 26.0609C17.9916 25.4985 18.4484 24.5672 18.8349 24.0048C19.2039 23.4249 19.9594 22.6166 20.4865 22.1948C21.0136 21.7731 21.8921 21.2634 22.4192 21.0701C22.999 20.8417 23.9829 20.6659 24.8789 20.6132C26.1088 20.5429 26.5657 20.5957 27.5144 20.912C28.1469 21.1228 29.0781 21.5797 29.6052 21.9488C30.1323 22.3002 30.8176 22.8977 31.1338 23.2843C31.4501 23.6709 31.9069 24.4266 32.1529 24.9538C32.3988 25.481 32.6975 26.4299 32.8205 27.0625C32.9611 27.8885 32.9787 28.5211 32.8381 29.347C32.7502 29.9797 32.4516 30.9638 32.188 31.5437C31.9069 32.1587 31.2744 33.0374 30.6946 33.6173C30.1148 34.2324 29.289 34.865 28.6565 35.1637C28.0767 35.4449 27.0927 35.7612 26.4602 35.8667C25.8277 35.9721 24.9141 35.9897 24.4397 35.937C23.9477 35.8667 23.2098 35.7085 22.7706 35.5679C22.3313 35.4449 21.6109 35.0934 21.1366 34.7947L20.3108 34.2675V39.8909C22.6476 40.6114 23.2625 40.6817 25.3182 40.6817C27.6374 40.6817 27.8658 40.6465 29.3593 40.1018C30.2202 39.803 31.3622 39.2758 31.8717 38.9771C32.3988 38.6608 33.2598 38.0106 33.7869 37.5185C34.3315 37.0441 35.21 35.9721 35.7547 35.1462C36.4223 34.1621 36.9319 33.1077 37.2657 32.0709C37.7401 30.6299 37.7928 30.2784 37.7928 28.2048C37.7752 26.1839 37.7225 25.7621 37.2833 24.5145C37.0197 23.7412 36.4751 22.5638 36.0885 21.8785C35.6844 21.2107 34.7708 20.0509 34.0328 19.3128C32.9611 18.2409 32.3637 17.8191 31.0284 17.1689C30.1148 16.712 28.8849 16.22 28.3051 16.0794C27.7253 15.9212 26.5305 15.7806 25.6696 15.7279C24.7911 15.6928 23.9302 15.6928 23.7369 15.7455C23.5436 15.7806 22.9463 15.9036 22.4192 16.0091ZM23.122 23.7237C22.876 23.8467 22.384 24.1981 22.0151 24.4969C21.6109 24.8132 21.119 25.481 20.8203 26.096C20.3986 26.9395 20.3108 27.3789 20.3108 28.2927C20.3108 29.0483 20.4338 29.6985 20.6797 30.2257C20.873 30.665 21.3298 31.3152 21.6812 31.6843C22.0326 32.0533 22.6476 32.5278 23.0341 32.7211C23.4206 32.932 24.2113 33.1253 24.7911 33.178C25.529 33.2307 26.1264 33.1604 26.8116 32.9495C27.4969 32.7211 28.0415 32.3696 28.674 31.737C29.3065 31.1044 29.6579 30.5596 29.8864 29.8742C30.0972 29.1889 30.1675 28.5914 30.1148 27.8533C30.0621 27.2734 29.8512 26.4651 29.6404 26.0609C29.4471 25.6391 28.9903 25.0241 28.6565 24.6902C28.3226 24.3563 27.7077 23.9345 27.286 23.7588C26.8819 23.5655 26.2318 23.3898 25.8453 23.3371C25.4587 23.3019 24.7911 23.3195 24.3518 23.3722C23.9126 23.4425 23.3679 23.6006 23.122 23.7237ZM176.472 27.4316C176.63 27.414 176.683 27.8885 176.683 31.1044H179.845V33.0374H176.683V36.7805C176.683 38.8189 176.718 40.752 176.771 41.0331C176.823 41.3143 177.016 41.7361 177.21 41.9645C177.473 42.2633 177.754 42.3511 178.352 42.3511C178.791 42.3511 179.301 42.2808 179.494 42.1754C179.828 42.0172 179.845 42.0524 179.845 42.9662C179.845 43.8624 179.81 43.9503 179.371 44.126C179.09 44.2314 178.317 44.2842 177.614 44.249C176.683 44.2139 176.226 44.1084 175.857 43.8273C175.593 43.634 175.172 43.1068 174.926 42.685C174.486 41.9294 174.486 41.8415 174.399 33.0374H172.29V31.1044H174.399L174.486 28.0642L175.365 27.7479C175.857 27.5722 176.349 27.4316 176.472 27.4316ZM72.1419 12.5999C73.0555 12.6526 74.4084 12.8284 75.1288 13.0217C75.8492 13.215 77.1142 13.6894 77.94 14.076C78.7657 14.4626 79.9078 15.1304 80.4876 15.5346C81.0674 15.9564 82.0865 16.8877 82.7717 17.6082C83.4569 18.3287 84.3705 19.594 84.8449 20.4023C85.3017 21.2107 85.9342 22.6341 86.2329 23.5479C86.7776 25.1471 86.7952 25.3404 86.8128 28.0291C86.8128 30.4542 86.76 31.0341 86.4086 32.2466C86.1802 33.0198 85.6707 34.2851 85.2842 35.0583C84.8976 35.8315 84.353 36.7805 84.0894 37.1671C83.8259 37.5537 83.1406 38.3796 82.5784 38.9947C82.0162 39.6097 80.9093 40.5235 80.1362 41.0507C79.3631 41.5603 78.063 42.2633 77.2372 42.5971C76.4114 42.931 75.1288 43.3352 74.3733 43.4758C73.3542 43.6867 71.9135 43.757 68.5401 43.757C64.7098 43.757 64.0422 43.7218 63.9719 43.4934C63.9192 43.3528 63.8841 42.2984 63.8841 41.1737C63.8665 39.6976 63.9368 39.0474 64.0949 38.8892C64.253 38.7486 65.764 38.6608 69.0672 38.6256C73.7759 38.5553 73.811 38.5553 75.0409 38.0809C75.7262 37.7997 76.7452 37.2374 77.325 36.8332C77.9048 36.4114 78.7482 35.6558 79.2226 35.1286C79.6794 34.6014 80.3295 33.67 80.6633 33.0374C80.9796 32.4048 81.3837 31.3855 81.5242 30.7529C81.6823 30.1203 81.8053 28.9429 81.8053 28.1169C81.8053 27.291 81.6824 26.1487 81.5418 25.5688C81.3837 24.9889 81.0147 24.0048 80.716 23.3722C80.3295 22.5814 79.7321 21.7906 78.7482 20.8065C77.8345 19.8927 76.9385 19.1898 76.2708 18.8383C75.691 18.5572 74.7422 18.1706 74.1624 17.9948C73.4069 17.7664 72.5636 17.6785 71.1756 17.6785C69.5591 17.6961 69.032 17.7664 67.9251 18.153C67.2048 18.4166 66.0979 18.9789 65.4654 19.4007C64.8328 19.8224 64.0246 20.4902 63.6557 20.8944C63.3043 21.2986 62.6893 22.1069 62.3028 22.722C61.8987 23.3195 61.4067 24.3211 61.1959 24.9538C60.8269 26.0609 60.8093 26.3772 60.7215 43.757H58.2617C56.2236 43.757 55.7844 43.7043 55.7141 43.4934C55.6614 43.3528 55.6262 39.7679 55.6262 35.5503C55.6262 31.0692 55.6965 27.2207 55.8195 26.3596C55.9249 25.5337 56.206 24.2333 56.452 23.4601C56.6804 22.6868 57.2075 21.4567 57.594 20.7362C57.9806 20.0157 58.701 18.9086 59.2105 18.2936C59.7024 17.6609 60.5985 16.7471 61.1959 16.2727C61.7757 15.7806 62.6893 15.1129 63.2164 14.8141C63.7259 14.4978 64.6923 14.0057 65.3775 13.7422C66.0627 13.461 67.1521 13.1095 67.8373 12.9514C68.5225 12.7932 69.3834 12.6175 69.77 12.5823C70.1565 12.5472 71.2283 12.5472 72.1419 12.5999ZM102.801 12.5823C103.574 12.635 104.716 12.7932 105.349 12.9338C105.981 13.0744 107.036 13.461 107.721 13.7773C108.406 14.076 109.337 14.6032 109.829 14.9371C110.304 15.271 111.094 15.9036 111.569 16.343C112.043 16.7823 112.763 17.6082 113.168 18.1881C113.572 18.7681 114.169 19.7521 114.485 20.3848C114.802 21.0174 115.206 22.1245 115.399 22.845C115.621 23.7237 115.733 24.778 115.733 26.0082C115.75 27.1328 115.627 28.3278 115.452 29.0835C115.294 29.7688 114.907 30.8759 114.591 31.5437C114.292 32.229 113.765 33.178 113.431 33.6525C113.097 34.1445 112.43 34.9529 111.938 35.4801C111.463 35.9897 110.585 36.7453 110.005 37.1319C109.425 37.5361 108.406 38.0984 107.721 38.4148C107.036 38.7311 105.981 39.1001 105.349 39.2583C104.716 39.3988 103.416 39.5394 102.45 39.5746C101.484 39.5922 99.7617 39.6097 96.564 39.5394V37.0792C96.564 35.0407 96.6167 34.6014 96.8276 34.5311C96.9681 34.4784 98.567 34.4432 100.377 34.4432C102.907 34.4432 103.908 34.3729 104.646 34.1621C105.173 34.0039 105.929 33.7227 106.315 33.5119C106.702 33.3186 107.475 32.7211 108.037 32.1763C108.599 31.6315 109.285 30.8056 109.566 30.3136C109.829 29.8391 110.181 28.9956 110.339 28.4684C110.497 27.9412 110.637 26.8692 110.637 26.096C110.637 25.1119 110.532 24.3387 110.269 23.5479C110.058 22.9153 109.636 22.0191 109.337 21.5446C109.021 21.0701 108.336 20.2793 107.809 19.8049C107.282 19.3128 106.368 18.6978 105.788 18.4342C105.208 18.153 104.189 17.8367 103.504 17.7312C102.573 17.5555 101.976 17.5555 101.044 17.7137C100.359 17.8191 99.3225 18.1706 98.6724 18.4869C97.9872 18.8383 97.0911 19.5061 96.4235 20.1563C95.6504 20.9471 95.1233 21.6852 93.8407 24.3036L93.7528 43.757H91.2931C88.886 43.757 88.8333 43.7394 88.7279 43.3704C88.6752 43.1419 88.6752 38.6959 88.7103 33.4767C88.763 25.3052 88.8157 23.8467 89.0617 23.0207C89.2198 22.4935 89.7294 21.2634 90.2037 20.2969C90.889 18.9262 91.3809 18.2057 92.4527 17.0635C93.2258 16.2551 94.3151 15.271 94.8949 14.8844C95.4747 14.4802 96.4235 13.953 97.0033 13.6894C97.5831 13.4258 98.4089 13.1271 98.8481 13.0041C99.2874 12.8811 100.025 12.7229 100.517 12.635C100.992 12.5648 102.028 12.5296 102.801 12.5823ZM133.724 12.5999C134.691 12.635 136.079 12.8284 136.799 13.0217C137.519 13.215 138.784 13.6894 139.61 14.076C140.436 14.4626 141.578 15.1304 142.158 15.5346C142.738 15.9564 143.757 16.8877 144.442 17.6258C145.127 18.3463 146.023 19.5588 146.462 20.3321C146.902 21.0877 147.464 22.3002 147.71 23.0207C147.973 23.7412 148.272 24.9011 148.395 25.5688C148.536 26.3596 148.588 27.5546 148.518 28.9077C148.465 30.2608 148.29 31.4734 148.061 32.2993C147.85 32.9847 147.341 34.2499 146.919 35.111C146.498 35.9545 145.795 37.1143 145.356 37.6943C144.934 38.2742 144.143 39.1353 143.634 39.6097C143.107 40.0842 142.14 40.8398 141.455 41.2792C140.77 41.7009 139.593 42.316 138.82 42.6323C138.046 42.9486 136.746 43.3352 135.921 43.4934C134.779 43.7394 133.9 43.7745 132.231 43.7218C130.491 43.634 129.718 43.5285 128.541 43.1419C127.715 42.8783 126.573 42.4214 125.994 42.1227C125.414 41.8415 124.5 41.3143 123.973 40.9453C123.446 40.5938 122.374 39.6273 121.601 38.8014C120.828 37.993 119.862 36.7277 119.458 36.0072C119.053 35.2867 118.474 33.9863 118.193 33.1253C117.894 32.2642 117.578 30.788 117.472 29.8742C117.314 28.609 117.314 27.783 117.472 26.4475C117.595 25.481 117.876 24.1103 118.105 23.4073C118.333 22.722 118.79 21.6149 119.124 20.9471C119.44 20.2969 120.196 19.1547 120.793 18.399C121.373 17.6609 122.48 16.5538 123.218 15.9739C123.973 15.3764 125.291 14.5505 126.169 14.1288C127.048 13.7246 128.26 13.2501 128.893 13.0744C129.525 12.9162 130.474 12.7229 131.001 12.635C131.528 12.5648 132.758 12.5472 133.724 12.5999ZM129.947 18.03C129.42 18.1881 128.506 18.5747 127.926 18.8911C127.346 19.225 126.45 19.8576 125.923 20.3321C125.414 20.789 124.588 21.773 124.114 22.4935C123.639 23.214 123.077 24.3211 122.884 24.9538C122.69 25.5864 122.497 26.8165 122.444 27.6776C122.374 28.8023 122.444 29.6106 122.655 30.4893C122.813 31.1746 123.2 32.229 123.499 32.8617C123.885 33.6525 124.518 34.4784 125.554 35.5152C126.731 36.7102 127.329 37.1671 128.365 37.6591C129.086 37.993 130.122 38.3796 130.65 38.4851C131.247 38.6256 132.354 38.6784 133.549 38.6256C135.095 38.5553 135.727 38.4323 136.711 38.0633C137.396 37.7997 138.415 37.2374 138.995 36.8332C139.575 36.4114 140.418 35.6558 140.893 35.1286C141.35 34.6014 142 33.67 142.334 33.0374C142.65 32.4048 143.054 31.3855 143.194 30.7529C143.353 30.1203 143.476 28.978 143.476 28.2048C143.476 27.3437 143.335 26.2542 143.124 25.3931C142.913 24.6199 142.544 23.6006 142.281 23.1086C142.017 22.6341 141.279 21.6852 140.647 20.9998C139.997 20.3321 138.978 19.471 138.363 19.1019C137.748 18.7329 136.729 18.276 136.096 18.0827C135.464 17.8894 134.287 17.7137 133.461 17.6609C132.635 17.6258 131.721 17.6434 131.44 17.6785C131.159 17.7312 130.474 17.8894 129.947 18.03ZM156.389 30.8232C156.987 30.8583 157.742 31.0341 158.146 31.2449C158.533 31.4382 159.025 31.7897 159.236 32.0182C159.447 32.229 159.798 32.8265 160.026 33.301C160.413 34.1445 160.431 34.3905 160.483 39.0122C160.518 42.808 160.483 43.88 160.308 43.9679C160.185 44.0381 159.798 44.1084 159.464 44.1084C159.13 44.1084 158.726 44.0206 158.586 43.9327C158.375 43.7921 158.305 43.0013 158.234 39.2407C158.146 35.111 158.111 34.6541 157.795 34.1094C157.602 33.7755 157.25 33.3713 157.004 33.178C156.758 33.0023 156.249 32.8089 155.862 32.7387C155.458 32.6859 154.861 32.7387 154.457 32.8792C154.07 33.0023 153.526 33.3186 153.244 33.5646C152.963 33.8106 152.577 34.3202 152.366 34.7068C152.032 35.357 151.997 35.7436 151.944 39.6273C151.892 42.5972 151.821 43.88 151.681 43.9679C151.558 44.0381 151.171 44.1084 150.802 44.1084C150.451 44.1084 150.029 43.9854 149.889 43.8448C149.66 43.6164 149.625 42.685 149.625 37.6064C149.625 34.3202 149.66 31.5085 149.713 31.368C149.783 31.1746 150.082 31.1044 151.909 31.1044V33.0374L152.788 32.1587C153.367 31.5788 153.947 31.1922 154.492 31.0165C154.984 30.8583 155.775 30.788 156.389 30.8232ZM167.898 30.8408C168.601 30.8935 169.374 31.0868 169.918 31.3504C170.393 31.5788 171.043 32.0709 171.341 32.4399C171.64 32.8265 172.009 33.3713 172.15 33.6525C172.308 33.9336 172.519 34.6014 172.624 35.111C172.729 35.6031 172.817 36.4993 172.817 38.1336H163.769L163.874 38.9771C163.945 39.434 164.12 40.0842 164.296 40.4181C164.472 40.752 164.735 41.1737 164.893 41.367C165.051 41.5428 165.456 41.8239 165.789 41.9997C166.123 42.1578 166.756 42.3511 167.195 42.4214C167.634 42.4917 168.425 42.4566 168.952 42.3336C169.479 42.2281 170.27 41.9469 170.709 41.7185C171.148 41.4725 171.605 41.2967 171.71 41.2967C171.869 41.2967 171.921 41.5779 171.851 43.1419L170.797 43.6691C169.795 44.1787 169.637 44.1963 167.546 44.1963C165.614 44.1963 165.262 44.1436 164.595 43.8097C164.19 43.5812 163.576 43.1419 163.224 42.8432C162.873 42.5269 162.398 41.8415 162.17 41.3495C161.942 40.8398 161.66 39.803 161.537 39.065C161.397 38.0106 161.397 37.3955 161.555 36.3763C161.678 35.6558 161.924 34.7068 162.117 34.2675C162.311 33.8282 162.838 33.0901 163.294 32.6332C163.751 32.1587 164.419 31.6315 164.77 31.4382C165.139 31.2625 165.737 31.0341 166.088 30.9286C166.457 30.8408 167.265 30.8056 167.898 30.8408ZM164.841 33.9336C164.559 34.2675 164.261 34.7244 164.173 34.9704C164.085 35.2165 163.98 35.5855 163.927 35.8139L163.857 36.2006H170.533C170.375 35.1813 170.199 34.619 170.041 34.2851C169.883 33.9512 169.497 33.4943 169.215 33.2658C168.864 33.0023 168.355 32.8265 167.722 32.7738C167.002 32.7035 166.58 32.7562 166.053 33.0023C165.666 33.178 165.122 33.5997 164.841 33.9336ZM25.2479 26.3596C25.7223 26.3596 26.0913 26.5002 26.4602 26.799C26.8116 27.0977 27.0225 27.4667 27.0927 27.9061C27.1455 28.2927 27.0927 28.7671 26.9522 29.0659C26.8292 29.3646 26.4954 29.7337 26.1967 29.9094C25.9156 30.0851 25.4763 30.2257 25.2303 30.2257C24.9844 30.2257 24.5627 30.0851 24.264 29.9094C23.9829 29.7337 23.6315 29.3646 23.5085 29.0659C23.3679 28.7671 23.3152 28.2927 23.3679 27.9061C23.4382 27.4492 23.649 27.0977 24.018 26.799C24.387 26.5002 24.7735 26.3596 25.2479 26.3596Z" fill="#006EA0"/>
</svg>
