<svg width="146" height="25" viewBox="0 0 146 25" fill="none" xmlns="http://www.w3.org/2000/svg">
<g clip-path="url(#clip0_5543_3)">
<path d="M4.61136 14.8895C4.61136 19.4982 6.79639 22.3181 10.1251 22.3181C13.4735 22.3181 15.5384 19.4982 15.5384 14.8895C15.5384 9.95029 13.4735 7.42193 10.1251 7.42193C6.79639 7.42193 4.61136 9.94941 4.61136 14.8895ZM20.1488 14.8895C20.1488 20.8399 15.7177 25.0013 10.0847 25.0013C4.5109 25.0013 0 20.8399 0 14.8895C0 8.93842 4.5109 4.77698 10.0847 4.77698C15.6782 4.77698 20.1488 8.93842 20.1488 14.8895Z" fill="#55A05E"/>
<path d="M119.524 10.2621C119.524 8.82741 120.926 7.8921 123.007 7.8921C125.455 7.8921 126.803 8.94139 126.966 10.6127H131.063C130.982 7.15517 127.978 4.78516 123.007 4.78516C118.642 4.78516 115.597 6.8437 115.597 10.4596C115.597 17.7298 127.496 14.5436 127.496 19.2802C127.496 20.8768 125.934 21.8869 123.568 21.8869C120.909 21.8869 119.338 20.7723 119.05 19.0609H114.929C115.173 22.6377 118.533 24.9991 123.569 24.9991C128.057 24.9991 131.423 22.9352 131.423 19.087C131.422 11.8169 119.524 14.9674 119.524 10.2621Z" fill="#55A05E"/>
<path d="M22.6719 24.628V5.16588H26.4563V11.1954C27.5864 6.99473 30.0172 4.77698 33.9918 4.77698C37.5751 4.77698 40.3765 6.93557 40.3765 11.2719V24.6271H36.2234V12.7501C36.2234 10.1634 34.816 8.12145 32.0355 8.12145C28.3489 8.12145 26.8249 11.2528 26.8249 13.4696V24.628H22.6719Z" fill="#55A05E"/>
<path d="M112.004 5.1676V24.6289H108.054V18.5846C107.133 22.7853 104.766 25.003 100.897 25.003C97.409 25.003 94.6821 22.8444 94.6821 18.5081V5.1676H98.8118V17.0299C98.8118 19.6165 100.095 21.6585 102.802 21.6585C106.39 21.6585 107.874 18.5272 107.874 16.3104V5.1676H112.004Z" fill="#55A05E"/>
<path d="M52.999 22.1422C49.4909 22.1422 47.6458 19.4982 47.6458 15.1228V14.7721H62.3615C62.2414 8.62695 59.0131 4.77698 52.8384 4.77698C47.0843 4.77698 43.0146 8.86011 43.0146 15.0444C43.0146 20.665 46.4232 25.0013 52.9586 25.0013C59.154 25.0013 62.0601 21.1043 62.2404 17.6233H57.9906C57.6902 20.4231 56.507 22.1422 52.999 22.1422ZM52.8787 7.63509C56.1868 7.63509 57.6524 10.0764 57.7807 12.6475H47.8395C48.3562 9.35256 50.0954 7.63509 52.8787 7.63509Z" fill="#55A05E"/>
<path d="M92.0003 5.1639V8.69891L91.9976 9.15917C90.6037 9.08173 90.0628 9.04258 89.5811 9.04258C86.6453 9.04258 84.7643 10.2676 84.1535 13.7965C84.037 14.4656 83.9885 15.1434 83.9885 15.8211V24.6234H79.8579V5.15955H83.6297V11.2699C83.6297 11.2699 83.6297 11.269 83.6306 11.2682C83.6575 11.182 84.4056 8.81463 85.0308 7.7697L85.0316 7.76796C85.8299 6.20274 87.3369 5.1639 89.1372 5.1639H92.0003Z" fill="#55A05E"/>
<path d="M140.81 20.2904C140.81 21.5764 141.289 22.0409 142.61 22.0409L145.999 22.0609V24.6258H141.171C138.366 24.6258 136.76 23.0728 136.76 20.3522V11.0809H136.756V7.93311H132.734V5.6675C133.001 5.6675 132.915 5.66316 133.281 5.65445C133.932 5.64575 134.425 5.62835 134.764 5.60137C135.606 5.55787 136.167 5.39953 136.447 5.1272C136.724 4.85923 136.908 4.3024 137.008 3.45931C137.081 2.99384 137.135 2.41526 137.171 1.72182C137.207 1.03275 137.225 0.113976 137.225 0H140.809V5.16461H145.999V7.93224H140.809L140.81 20.2904Z" fill="#55A05E"/>
<path d="M71.2362 20.2904C71.2362 21.5764 71.716 22.0409 73.0364 22.0409L76.4261 22.0609V24.6258H71.5977C68.7928 24.6258 67.1872 23.0728 67.1872 20.3522V11.0809H67.1827V7.93311H63.1606V5.6675C63.428 5.6675 63.3419 5.66316 63.7078 5.65445C64.3591 5.64575 64.8524 5.62835 65.1914 5.60137C66.0328 5.55787 66.5934 5.39953 66.8742 5.1272C67.1504 4.85923 67.3352 4.3024 67.4348 3.45931C67.5075 2.99384 67.5613 2.41526 67.598 1.72182C67.6339 1.03275 67.6528 0.113976 67.6528 0H71.2353V5.16461H76.4261V7.93224H71.2353L71.2362 20.2904Z" fill="#55A05E"/>
</g>
<defs>
<clipPath id="clip0_5543_3">
<rect width="146" height="25" fill="white"/>
</clipPath>
</defs>
</svg>
