<svg width="251" height="37" viewBox="0 0 251 37" fill="none" xmlns="http://www.w3.org/2000/svg">
<path fill-rule="evenodd" clip-rule="evenodd" d="M37.3232 1.36885e-05C37.8755 -0.00121096 38.2675 0.0796159 38.7316 0.29148C39.1027 0.461707 39.5682 0.810732 39.8327 1.11812C40.0838 1.41204 40.3544 1.89822 40.4328 2.20193C40.5124 2.50565 40.5492 3.11062 40.5149 3.54905C40.4806 3.98747 40.3679 4.5104 40.265 4.71247C40.1609 4.91453 39.8915 5.26601 39.6649 5.49257C39.4371 5.72035 39.0317 6.00815 38.7623 6.13306C38.4267 6.28859 37.9833 6.36207 37.3538 6.36452C36.5883 6.36819 36.325 6.31186 35.7702 6.03019C35.404 5.84404 34.9472 5.49869 34.7561 5.26356C34.5638 5.02843 34.3189 4.53122 34.2111 4.16137C34.08 3.70948 34.0421 3.27595 34.0923 2.84488C34.1351 2.49095 34.2748 1.99497 34.4034 1.74269C34.532 1.49041 34.8222 1.1071 35.0464 0.892784C35.2717 0.677245 35.7028 0.389452 36.0066 0.252292C36.3691 0.0881885 36.821 0.00246299 37.3232 1.36885e-05ZM12.2463 7.90758C12.8183 7.93942 13.645 8.04964 14.0835 8.15251C14.5219 8.25416 15.2102 8.49664 15.6144 8.68891C16.0186 8.8824 16.6934 9.29266 17.1147 9.60127C17.536 9.90988 18.1852 10.5345 18.5575 10.9888C18.9298 11.4431 19.4516 12.2563 19.7173 12.7952C19.9819 13.334 20.3138 14.2439 20.4534 14.8158C20.604 15.4343 20.7375 16.5022 20.7816 17.4488C20.8282 18.4494 20.7988 19.4964 20.702 20.2655C20.6175 20.9391 20.4387 21.849 20.304 22.2862C20.1705 22.7234 19.8472 23.4961 19.5863 24.0007C19.3242 24.5065 18.8208 25.2645 18.4656 25.687C18.1092 26.1096 17.5164 26.6815 17.1453 26.9558C16.7742 27.2313 16.2231 27.5828 15.9206 27.7359C15.6181 27.8902 15.0118 28.1376 14.5734 28.287C13.961 28.4964 13.3951 28.5735 12.1238 28.6189C10.8477 28.6654 10.2745 28.6323 9.6131 28.4768C9.14157 28.3654 8.40304 28.0984 7.97193 27.8828C7.44651 27.6195 6.93334 27.2191 6.41037 26.6643C5.84086 26.0581 5.55916 25.8463 5.08151 25.8989V31.2874C5.08151 34.251 5.03987 36.7444 4.98965 36.8289C4.92474 36.9367 4.50342 36.982 2.26457 36.9832L0 34.7164L0.060013 8.38642L2.50952 8.3558C4.36258 8.33376 4.98108 8.36315 5.04844 8.47827C5.09865 8.56277 5.1403 9.11386 5.1403 9.70292C5.14275 10.7304 5.15377 10.7745 5.41832 10.7794C5.60325 10.7831 5.81391 10.619 6.06131 10.2773C6.2634 9.99806 6.70431 9.56086 7.04112 9.30613C7.37792 9.0514 7.87395 8.73177 8.14339 8.59706C8.41284 8.46235 8.88192 8.28477 9.18444 8.20394C9.48695 8.12312 10.0663 8.01045 10.4704 7.95412C10.8746 7.89656 11.6731 7.87696 12.2463 7.90758ZM7.66574 13.0156C7.26769 13.2311 6.69696 13.683 6.39689 14.0198C6.09683 14.3566 5.74043 14.8807 5.6057 15.1832C5.46975 15.4857 5.28359 16.0931 5.19174 16.5303C5.09988 16.9675 5.02394 17.7121 5.02272 18.1836C5.02272 18.6551 5.07783 19.3997 5.14642 19.8369C5.21501 20.2741 5.45628 21.0187 5.68409 21.4902C5.91189 21.9617 6.31116 22.5421 6.56958 22.781C6.82923 23.0198 7.28852 23.3627 7.59226 23.5415C7.89477 23.7203 8.50102 23.9591 8.93948 24.0717C9.51267 24.2187 10.0258 24.2579 10.7766 24.2126C11.4061 24.1734 12.0834 24.046 12.4913 23.888C12.8624 23.7448 13.4674 23.3884 13.8385 23.0969C14.2121 22.803 14.6873 22.2727 14.9053 21.9066C15.1208 21.5428 15.3829 20.9146 15.487 20.5105C15.607 20.0463 15.6769 19.2344 15.6769 18.3061C15.6769 17.3778 15.607 16.5659 15.487 16.1017C15.3829 15.6976 15.1208 15.0706 14.9053 14.7093C14.6885 14.3468 14.2096 13.8067 13.8385 13.5067C13.4674 13.2079 12.8624 12.8478 12.4913 12.7058C12.0075 12.5221 11.4723 12.4388 10.5929 12.4143C9.91929 12.3947 9.14769 12.4339 8.87825 12.5012C8.6088 12.5686 8.06256 12.8013 7.66574 13.0156Z" fill="#0045BF"/>
<path d="M237.239 5.32475L242.411 5.19004C245.256 5.11534 248.216 5.04553 248.991 5.03451C249.956 5.02104 250.472 5.0639 250.629 5.16922C250.852 5.32108 250.853 5.48028 250.656 11.3255C250.544 14.626 250.428 17.6019 250.396 17.9386C250.341 18.5228 250.286 18.6049 249.176 19.7144C248.536 20.3537 247.872 20.9329 247.699 21.0003C247.405 21.1142 247.295 21.0309 244.615 18.306L244.71 17.4488C244.761 16.9773 244.841 16.1788 244.968 14.7546L230.929 28.7768L227.682 28.7731C224.777 28.7707 224.412 28.7486 224.217 28.5588C224.097 28.4437 224.003 28.238 224.008 28.1032C224.012 27.9489 227.123 24.7489 232.431 19.4352C237.06 14.8023 240.874 10.9777 240.908 10.9373C240.942 10.8969 240.612 10.8969 240.173 10.9385C239.735 10.979 238.881 11.0524 237.172 11.1872L235.852 9.90984C234.858 8.94604 234.532 8.55538 234.534 8.32514C234.537 8.10103 234.898 7.66016 237.239 5.32475Z" fill="#00CCDC"/>
<path fill-rule="evenodd" clip-rule="evenodd" d="M186.1 0.608643L188.365 2.87547L188.305 28.2257H183.283L183.251 14.5709C183.234 7.0601 183.246 0.847449 183.279 0.762948C183.321 0.65273 183.728 0.609867 186.1 0.608643ZM129.95 2.56931H135.089V8.57009L140.417 8.63132V12.7951L135.089 12.8564V23.5108L135.395 23.817C135.699 24.1207 135.722 24.1231 139.988 24.1231V28.287L136.773 28.2882C134.343 28.2894 133.409 28.2465 132.946 28.1131C132.609 28.0163 132.088 27.7542 131.79 27.5301C131.489 27.3072 131.058 26.8749 130.831 26.5724C130.602 26.27 130.327 25.7189 130.219 25.3478C130.053 24.7747 130.022 23.8023 130.006 12.9176L125.107 12.7951V8.63132L127.526 8.60071C129.355 8.57744 129.949 8.53335 129.959 8.41701C129.965 8.33251 129.966 6.98295 129.961 5.41662L129.95 2.56931ZM68.4011 8.09003C69.4066 8.08513 70.237 8.15861 71.0343 8.32394C71.7092 8.46232 72.5567 8.74277 73.0552 8.99015C73.5267 9.22528 74.215 9.65758 74.5861 9.94905C74.956 10.2417 75.4765 10.8088 75.7435 11.2092C76.0093 11.6097 76.3669 12.3236 76.5384 12.7951C76.8483 13.6475 76.8507 13.6842 76.9144 18.551C76.9511 21.3946 77.0283 23.5476 77.0981 23.6823C77.1642 23.8109 77.3431 23.9627 77.4949 24.0191C77.6456 24.0766 78.1832 24.1231 79.6076 24.1231V28.287L77.5562 28.2882C76.0681 28.2894 75.3357 28.2392 74.8923 28.1045C74.5555 28.0016 74.1048 27.7946 73.8905 27.6428C73.6774 27.4922 73.3871 27.2031 73.2487 27.0011C73.1091 26.799 72.9523 26.4255 72.9021 26.172C72.8249 25.7862 72.76 25.7103 72.5041 25.7103C72.2713 25.7103 72.1244 25.8364 71.8953 26.2332C71.73 26.521 71.3993 26.9692 71.1605 27.2289C70.9229 27.4897 70.3975 27.8828 69.9933 28.1033C69.5891 28.3237 68.9547 28.5784 68.5848 28.669C68.1954 28.7633 67.2633 28.8319 66.3803 28.8283C65.1702 28.8246 64.6423 28.7658 63.8695 28.5466C63.3306 28.3947 62.5603 28.0947 62.1573 27.8804C61.7556 27.6661 61.1175 27.1884 60.7391 26.8174C60.319 26.4047 59.9038 25.8352 59.6686 25.3478C59.4567 24.9106 59.2204 24.166 59.1407 23.6945C59.0624 23.2206 59.0317 22.4539 59.0722 21.98C59.1138 21.5085 59.2608 20.7921 59.3992 20.388C59.5376 19.9838 59.8315 19.4046 60.052 19.1021C60.2736 18.7996 60.6986 18.3489 60.9975 18.1015C61.2975 17.8542 61.8732 17.4868 62.2773 17.2859C62.6815 17.0851 63.3429 16.8255 63.7471 16.7079C64.3558 16.5315 65.1225 16.4875 72.0141 16.4079L72.0154 15.6424C72.0154 15.2212 71.9333 14.588 71.8317 14.2341C71.7116 13.8165 71.4851 13.4271 71.1874 13.1246C70.8972 12.8306 70.4795 12.5771 70.0545 12.4363C69.5291 12.2636 69.1115 12.2257 68.1562 12.2636C67.1629 12.304 66.8163 12.3702 66.3276 12.6151C65.9663 12.7964 65.556 13.1393 65.3086 13.4687C65.0808 13.7712 64.8016 14.2819 64.6877 14.6015C64.575 14.9224 64.4268 15.1832 64.3594 15.182C64.2921 15.1808 63.2559 14.8354 62.0581 14.4153C60.788 13.9708 59.8817 13.5887 59.8842 13.4993C59.8866 13.4148 60.1083 12.9188 60.3765 12.3971C60.6447 11.8754 61.1273 11.1504 61.4482 10.7855C61.7691 10.4218 62.3631 9.90129 62.7673 9.63064C63.1714 9.35877 63.8046 9.00362 64.1757 8.83951C64.5456 8.67541 65.3172 8.4415 65.8904 8.31904C66.5468 8.17943 67.4728 8.09493 68.4011 8.09003ZM64.7024 20.9636C64.4574 21.2158 64.2676 21.5746 64.1953 21.9188C64.1304 22.2213 64.1194 22.6352 64.1684 22.8373C64.2174 23.0393 64.3141 23.3149 64.3839 23.4496C64.4537 23.5843 64.6828 23.8464 64.8934 24.0313C65.1053 24.2162 65.594 24.4587 65.9822 24.5677C66.4868 24.7122 66.9792 24.7514 67.7275 24.7085C68.4232 24.6693 68.9706 24.5603 69.3809 24.3803C69.7177 24.2321 70.1856 23.9799 70.422 23.8194C70.6571 23.6578 71.0233 23.2879 71.234 22.9977C71.4446 22.7075 71.708 22.1674 71.817 21.7963C71.926 21.4252 72.0154 20.9158 72.0154 20.6635L72.0141 20.2043C66.9963 20.219 66.0447 20.2679 65.6454 20.3904C65.3417 20.4835 64.9179 20.7419 64.7024 20.9636ZM88.8545 8.0937C89.5281 8.0888 90.4369 8.13657 90.8754 8.19902C91.3126 8.26148 92.1124 8.45253 92.6513 8.62153C93.1902 8.79175 93.9887 9.13833 94.4272 9.39183C94.8644 9.64534 95.6654 10.2944 96.2055 10.8345C96.922 11.5509 97.3249 12.0799 97.6936 12.7951C97.9716 13.334 98.3158 14.1606 98.4591 14.6321C98.6011 15.1036 98.7175 15.5445 98.7175 15.6118C98.7162 15.6792 97.7365 15.9462 96.5411 16.2033C95.3445 16.4617 94.241 16.6969 94.0904 16.7238C93.854 16.7679 93.8025 16.7091 93.7352 16.316C93.6923 16.0637 93.538 15.5812 93.3922 15.2444C93.2465 14.9077 92.966 14.4202 92.7664 14.1606C92.568 13.9022 92.1577 13.5348 91.8552 13.345C91.5514 13.154 90.9734 12.9041 90.5692 12.789C90.0168 12.631 89.5588 12.5943 88.732 12.6421C87.9964 12.6837 87.384 12.7996 86.8949 12.9899C86.4062 13.1797 85.92 13.503 85.4448 13.9537C85.0517 14.3272 84.5973 14.9077 84.4344 15.2444C84.2715 15.5812 84.0572 16.2425 83.9567 16.714C83.8575 17.1855 83.7755 17.9852 83.7755 18.4898C83.7755 18.9943 83.8587 19.794 83.9616 20.2655C84.0633 20.737 84.3242 21.4473 84.5409 21.8428C84.7577 22.2396 85.1827 22.7883 85.4865 23.0626C85.789 23.3357 86.3132 23.6859 86.65 23.839C86.9868 23.9921 87.593 24.1795 87.9972 24.2566C88.4014 24.3326 89.1179 24.3669 89.5894 24.3313C90.0609 24.2958 90.7774 24.1427 91.1816 23.9897C91.6604 23.8084 92.1111 23.5169 92.4773 23.152C92.786 22.8446 93.1522 22.3719 93.2906 22.1025C93.4302 21.8331 93.6323 21.2954 93.7401 20.9084C93.8479 20.5215 94.0058 20.2043 94.0904 20.203C94.1736 20.2018 95.2355 20.4308 96.448 20.71C97.6605 20.9905 98.6979 21.2526 98.7542 21.293C98.8106 21.3346 98.7628 21.6702 98.6477 22.0412C98.5325 22.4123 98.197 23.1826 97.903 23.7558C97.6103 24.3289 97.1204 25.1139 96.8167 25.5009C96.5129 25.8879 95.9471 26.4561 95.5601 26.7635C95.1718 27.0709 94.4284 27.5399 93.9066 27.8044C93.3837 28.0702 92.5018 28.396 91.947 28.5294C91.391 28.6629 90.4124 28.8074 89.7731 28.8503C89.0725 28.8981 88.1454 28.8687 87.4461 28.778C86.8055 28.6948 85.9237 28.5172 85.4865 28.3837C85.048 28.249 84.2764 27.9269 83.7718 27.6661C83.266 27.4052 82.4944 26.897 82.0571 26.5369C81.6187 26.1769 81.0332 25.5829 80.7552 25.2168C80.4772 24.8506 80.0424 24.1378 79.7901 23.6333C79.5366 23.1275 79.2194 22.3009 79.0859 21.7963C78.9095 21.1338 78.825 20.3316 78.7821 18.9184C78.738 17.4476 78.7711 16.6993 78.9156 15.918C79.0222 15.3461 79.2622 14.4913 79.4509 14.0198C79.6395 13.5483 79.9848 12.86 80.2176 12.489C80.4515 12.1179 80.9463 11.4921 81.3186 11.0965C81.6909 10.701 82.2984 10.1719 82.6695 9.91966C83.0394 9.66738 83.6187 9.32325 83.9555 9.15547C84.2923 8.98647 84.8704 8.75012 85.2415 8.6301C85.6114 8.50886 86.3009 8.34108 86.7724 8.25658C87.244 8.17208 88.1809 8.0986 88.8545 8.0937ZM150.766 8.13657C152.067 8.16841 152.803 8.24801 153.522 8.43783C154.06 8.57866 154.942 8.90687 155.481 9.1665C156.02 9.4249 156.792 9.88659 157.196 10.1903C157.6 10.494 158.22 11.0953 158.575 11.5239C158.929 11.9538 159.435 12.718 159.698 13.2238C159.961 13.7283 160.304 14.6101 160.459 15.1832C160.704 16.0956 160.738 16.5058 160.735 18.4898C160.732 20.4247 160.693 20.8986 160.465 21.7351C160.319 22.2739 159.964 23.1802 159.677 23.7484C159.326 24.444 158.875 25.0796 158.298 25.6919C157.827 26.1916 157.055 26.8566 156.583 27.1676C156.112 27.4787 155.244 27.9122 154.654 28.1327C154.064 28.3519 153.045 28.6139 152.389 28.7144C151.731 28.816 150.836 28.8981 150.398 28.8981C149.96 28.8981 149.106 28.8172 148.5 28.7193C147.894 28.6201 147.039 28.4229 146.602 28.2808C146.163 28.1388 145.447 27.8289 145.01 27.5914C144.571 27.3538 143.965 26.9607 143.662 26.7182C143.359 26.4757 142.902 26.0544 142.645 25.7825C142.389 25.5095 142.022 25.0661 141.831 24.7967C141.639 24.5273 141.284 23.8929 141.041 23.3884C140.799 22.8826 140.504 22.0559 140.386 21.5514C140.222 20.8497 140.172 20.0977 140.173 18.3673C140.174 16.3748 140.207 15.9841 140.455 15.122C140.609 14.5831 140.924 13.7565 141.155 13.285C141.385 12.8135 141.867 12.0689 142.224 11.6317C142.583 11.1933 143.204 10.5834 143.606 10.2736C144.006 9.96497 144.583 9.56941 144.887 9.39306C145.19 9.21793 145.934 8.9081 146.54 8.7048C147.147 8.50151 147.945 8.27985 148.316 8.21372C148.686 8.14759 149.789 8.11207 150.766 8.13657ZM147.949 13.1625C147.612 13.3303 147.109 13.6757 146.831 13.9279C146.554 14.1802 146.184 14.6358 146.01 14.9383C145.835 15.2408 145.589 15.82 145.463 16.2242C145.296 16.7581 145.232 17.3435 145.23 18.3673C145.226 19.2797 145.295 20.0451 145.424 20.541C145.533 20.9623 145.724 21.5134 145.85 21.7657C145.976 22.018 146.347 22.5042 146.676 22.8446C147.006 23.1851 147.578 23.6063 147.949 23.779C148.319 23.9529 148.912 24.1562 149.266 24.2321C149.618 24.3068 150.156 24.3681 150.46 24.3681C150.762 24.3681 151.3 24.3056 151.654 24.2297C152.007 24.155 152.599 23.9407 152.97 23.7558C153.34 23.5708 153.909 23.1508 154.232 22.8226C154.555 22.4931 154.937 21.9763 155.081 21.6738C155.224 21.3714 155.414 20.8472 155.501 20.5104C155.589 20.1737 155.662 19.2637 155.664 18.4898C155.665 17.6043 155.595 16.8083 155.475 16.3466C155.37 15.9425 155.138 15.3632 154.959 15.0607C154.781 14.7582 154.46 14.3162 154.247 14.081C154.032 13.8447 153.562 13.4907 153.199 13.2936C152.837 13.0976 152.266 12.8637 151.929 12.7755C151.593 12.6861 150.903 12.6188 150.398 12.6249C149.893 12.631 149.273 12.6861 149.021 12.7461C148.767 12.8074 148.286 12.9935 147.949 13.1625ZM171.893 8.12799C173.174 8.15739 173.87 8.23699 174.649 8.4415C175.221 8.59214 176.02 8.86523 176.424 9.04771C176.829 9.23018 177.435 9.56696 177.772 9.79597C178.109 10.025 178.679 10.4903 179.042 10.8296C179.403 11.17 179.924 11.7787 180.198 12.1828C180.472 12.5869 180.843 13.2483 181.025 13.6524C181.206 14.0565 181.456 14.7729 181.582 15.2444C181.767 15.94 181.81 16.5499 181.811 18.4898C181.812 20.6304 181.783 20.9795 181.527 21.8575C181.37 22.3964 181.091 23.1398 180.906 23.5108C180.721 23.8819 180.411 24.433 180.219 24.7355C180.026 25.038 179.505 25.6454 179.059 26.0826C178.614 26.5198 177.949 27.0574 177.582 27.2754C177.214 27.4934 176.529 27.8302 176.057 28.0237C175.586 28.2172 174.814 28.4633 174.342 28.5711C173.871 28.6788 172.961 28.8038 172.322 28.8478C171.621 28.8968 170.694 28.8711 169.995 28.7817C169.354 28.6997 168.362 28.4792 167.79 28.2906C167.217 28.1008 166.473 27.7946 166.137 27.6097C165.8 27.4248 165.276 27.0941 164.973 26.8749C164.669 26.6545 164.141 26.1806 163.798 25.8193C163.456 25.4592 162.983 24.8604 162.748 24.4905C162.514 24.1195 162.174 23.4582 161.994 23.021C161.813 22.5838 161.574 21.8392 161.463 21.3677C161.318 20.7554 161.26 19.9336 161.257 18.4898C161.255 16.8046 161.299 16.2866 161.527 15.3669C161.676 14.7607 161.985 13.879 162.211 13.4075C162.438 12.936 162.876 12.2195 163.185 11.8154C163.495 11.4113 164.092 10.7904 164.513 10.434C164.934 10.0789 165.692 9.57675 166.198 9.31713C166.702 9.0575 167.419 8.74767 167.79 8.62765C168.16 8.50886 168.849 8.33863 169.321 8.24923C169.859 8.14759 170.816 8.10228 171.893 8.12799ZM168.402 13.5581C168.018 13.8251 167.535 14.3137 167.28 14.697C167.033 15.0656 166.733 15.6694 166.613 16.0405C166.475 16.4679 166.375 17.2296 166.344 18.1224C166.315 18.9037 166.353 19.8307 166.43 20.2043C166.505 20.5741 166.724 21.2085 166.915 21.6126C167.12 22.0437 167.512 22.5801 167.863 22.9083C168.193 23.2169 168.698 23.5892 168.984 23.7349C169.269 23.8819 169.849 24.0901 170.27 24.1991C170.8 24.3375 171.316 24.3791 171.954 24.3338C172.459 24.2983 173.175 24.1525 173.546 24.0105C173.916 23.8684 174.481 23.5598 174.802 23.3259C175.121 23.0908 175.576 22.6364 175.811 22.3168C176.046 21.9972 176.353 21.3763 176.493 20.9391C176.633 20.5006 176.778 19.6471 176.818 19.0408C176.858 18.3857 176.826 17.5909 176.736 17.0814C176.654 16.6099 176.469 15.9204 176.327 15.5506C176.17 15.1465 175.815 14.6076 175.436 14.2035C174.988 13.7246 174.546 13.4087 173.9 13.1099C173.092 12.7339 172.862 12.6849 171.77 12.6494C170.805 12.6188 170.389 12.6604 169.811 12.8502C169.407 12.9813 168.772 13.3009 168.402 13.5581ZM198.011 8.09493C198.776 8.08636 199.783 8.15861 200.277 8.25536C200.764 8.3521 201.495 8.54805 201.899 8.69133C202.304 8.83339 202.937 9.13465 203.308 9.35877C203.678 9.58288 204.331 10.1168 204.759 10.5455C205.265 11.0537 205.683 11.6244 205.956 12.1828C206.187 12.6543 206.375 13.1368 206.372 13.2544C206.37 13.4222 206.016 13.5765 204.747 13.9659C203.854 14.239 202.876 14.5427 202.573 14.6407C202.269 14.7387 201.952 14.8183 201.869 14.817C201.784 14.817 201.63 14.5537 201.526 14.2341C201.422 13.9145 201.201 13.4736 201.036 13.2544C200.871 13.0352 200.419 12.7045 200.032 12.5196C199.401 12.2183 199.191 12.1828 198.041 12.1828C196.998 12.1828 196.662 12.2293 196.269 12.4277C196.002 12.5625 195.656 12.8649 195.5 13.1013C195.336 13.3499 195.218 13.7099 195.221 13.9586C195.223 14.1937 195.326 14.5525 195.45 14.7546C195.574 14.9566 195.945 15.2555 196.275 15.4183C196.619 15.5873 197.745 15.8874 198.899 16.1176C200.01 16.3405 201.416 16.6626 202.022 16.834C202.628 17.0067 203.565 17.3631 204.104 17.6264C204.715 17.9264 205.332 18.3501 205.746 18.7567C206.119 19.1229 206.547 19.7034 206.724 20.0818C206.983 20.6427 207.045 20.9807 207.085 22.1025C207.122 23.1226 207.083 23.6284 206.925 24.1844C206.809 24.5885 206.568 25.1886 206.389 25.518C206.209 25.8462 205.733 26.4194 205.329 26.7904C204.925 27.1603 204.222 27.6489 203.767 27.8755C203.312 28.102 202.458 28.407 201.869 28.5539C200.976 28.7768 200.458 28.8197 198.776 28.8148C197.031 28.8099 196.596 28.767 195.592 28.5049C194.951 28.3372 193.959 27.9587 193.387 27.6636C192.675 27.295 192.093 26.8749 191.545 26.3287C191.104 25.8903 190.572 25.2008 190.36 24.7967C190.149 24.3926 189.875 23.7178 189.752 23.2965C189.605 22.7956 189.571 22.4968 189.652 22.4295C189.719 22.3719 190.711 22.089 191.856 21.7988C193.002 21.5085 194.007 21.2513 194.092 21.2269C194.186 21.2011 194.312 21.4301 194.423 21.8269C194.521 22.1809 194.769 22.7319 194.975 23.0516C195.179 23.3712 195.581 23.8023 195.867 24.008C196.153 24.2138 196.691 24.4734 197.062 24.5836C197.479 24.7098 198.176 24.7869 198.899 24.7894C199.538 24.7906 200.296 24.7232 200.583 24.6412C200.868 24.5579 201.326 24.2836 201.601 24.0313C201.972 23.6884 202.115 23.4484 202.168 23.0822C202.207 22.8128 202.207 22.4539 202.169 22.2862C202.131 22.1172 201.943 21.8257 201.754 21.6359C201.564 21.4473 201.119 21.1852 200.766 21.0542C200.413 20.9244 199.282 20.6476 198.256 20.4418C197.228 20.2361 195.809 19.8761 195.102 19.6409C194.394 19.4058 193.457 19.0017 193.02 18.742C192.581 18.4824 191.934 17.9619 191.581 17.5847C191.227 17.2063 190.814 16.6356 190.663 16.316C190.425 15.8078 190.39 15.5335 190.39 14.1423C190.39 12.7364 190.426 12.4645 190.689 11.8154C190.872 11.3684 191.237 10.8173 191.622 10.4071C191.97 10.036 192.606 9.52532 193.036 9.27059C193.465 9.01587 194.174 8.69623 194.612 8.56152C195.049 8.42681 195.684 8.27005 196.021 8.21249C196.357 8.15616 197.253 8.10228 198.011 8.09493ZM101.347 8.2027C103.635 8.2027 103.861 8.22107 103.912 8.41701C103.942 8.53458 104.858 11.8277 105.95 15.7343C107.04 19.6409 107.997 23.0846 108.077 23.3884C108.198 23.8513 108.269 23.9394 108.519 23.9394C108.798 23.9394 108.85 23.8231 109.341 22.1025C109.629 21.0921 110.626 17.5651 113.247 8.26393L115.689 8.23086C117.797 8.2027 118.135 8.22352 118.159 8.38395C118.174 8.48682 117.668 10.4573 117.034 12.7645C116.399 15.0718 115.042 20.0169 114.02 23.7558C112.997 27.4934 112.026 31.2408 111.863 32.0834C111.7 32.9247 111.416 33.9399 111.232 34.338C111.016 34.8082 110.685 35.2503 110.288 35.6006C109.951 35.8969 109.372 36.2607 109.002 36.4076C108.344 36.6685 108.193 36.6746 97.3053 36.6758V32.0221L101.898 31.9572C104.424 31.9217 106.504 31.8801 106.522 31.8654C106.538 31.8507 106.628 31.6866 106.722 31.5017C106.817 31.3167 107.092 30.5587 107.334 29.8178C107.576 29.0769 107.776 28.4425 107.777 28.4094C107.779 28.3751 107.517 28.3078 107.196 28.2588C106.876 28.2098 106.255 27.9918 105.817 27.7751C105.357 27.546 104.773 27.1199 104.431 26.7623C104.106 26.4218 103.71 25.8683 103.549 25.5315C103.387 25.1947 102.257 21.2268 101.035 16.714C99.8124 12.2012 98.8106 8.48069 98.8093 8.44763C98.8081 8.41334 98.813 8.34476 98.8216 8.29455C98.8289 8.24434 99.9655 8.2027 101.347 8.2027ZM27.2494 8.63132L27.2714 9.36611C27.2837 9.77025 27.2971 10.2528 27.302 10.4377C27.3081 10.7047 27.3682 10.7732 27.5862 10.7708C27.7785 10.7683 27.9634 10.6018 28.1985 10.2197C28.3835 9.91843 28.7693 9.5045 29.0559 9.29876C29.3412 9.09302 29.852 8.84441 30.1888 8.74644C30.5929 8.62765 31.3645 8.56764 34.1288 8.57009L34.108 13.0401L32.1447 13.1013C30.239 13.1613 30.1582 13.1748 29.3584 13.5605C28.8538 13.8042 28.3921 14.1361 28.1667 14.4178C27.9646 14.6701 27.7037 15.1244 27.5886 15.4281C27.4 15.9192 27.3731 16.6516 27.3106 28.287H24.7999C23.4183 28.287 22.283 28.2453 22.2756 28.1951C22.2695 28.1449 22.245 23.7766 22.2217 18.4898C22.1985 13.2017 22.2046 8.80645 22.234 8.72072C22.2756 8.60071 22.8476 8.57254 27.2494 8.63132ZM37.3732 8.57009C39.2152 8.57009 39.8117 8.60683 39.8398 8.72317C39.8607 8.80767 39.8754 13.2299 39.8643 28.2257L34.7816 28.287L34.7608 18.5106C34.7498 13.1331 34.7865 8.69623 34.8428 8.65214C34.898 8.60683 36.037 8.57009 37.3732 8.57009ZM45.437 8.57009L45.6121 9.1518C45.7089 9.47143 46.7413 13.0817 47.9085 17.1745C49.9882 24.4722 50.0347 24.6167 50.336 24.6142C50.6348 24.6118 50.6875 24.4501 55.1811 8.63132L57.8156 8.59826C60.2577 8.56764 60.4512 8.58111 60.4745 8.78196C60.488 8.90075 60.0936 10.2662 59.5976 11.8154C59.1016 13.3646 58.2136 16.1201 57.6257 17.9387C57.0378 19.7573 56.0531 22.8299 54.3164 28.2882L46.2943 28.287L46.2208 28.0114C46.1804 27.8596 45.0989 24.4563 43.8178 20.4492C42.5355 16.4409 41.1687 12.1706 40.7792 10.9582C40.3898 9.74576 40.0958 8.71215 40.1264 8.66194C40.1571 8.61173 41.3647 8.57009 45.437 8.57009ZM232.273 9.55104H233.498L236.01 12.0603L236.004 13.285L233.832 15.4918C232.637 16.7042 229.236 20.1651 226.272 23.1814C223.308 26.1977 220.8 28.6629 220.699 28.6605C220.598 28.658 220.012 28.1192 219.399 27.4615C218.785 26.8039 217.557 25.4948 215.056 22.8373L215.061 19.8675C215.064 17.0643 215.079 16.8842 215.31 16.6528C215.445 16.5181 215.651 16.4091 215.77 16.4103C215.887 16.4115 217.003 17.4292 218.25 18.671C219.495 19.914 220.598 20.9317 220.699 20.9342C220.8 20.9354 223.445 18.3746 226.578 15.2444L232.273 9.55104Z" fill="#0045BF"/>
</svg>
