<svg width="181" height="43" viewBox="0 0 181 43" fill="none" xmlns="http://www.w3.org/2000/svg">
<path d="M175.971 8.47873V6.2617V4.04468H180.79V8.47873H175.971Z" fill="#1F2229"/>
<path d="M175.971 31.2273V21.2025V11.1777H180.79V31.2273H175.971Z" fill="#1F2229"/>
<path fill-rule="evenodd" clip-rule="evenodd" d="M7.3167 6.74525e-05C8.63896 -0.00378824 9.23069 0.152367 14.2556 1.83923C19.0011 3.43356 19.9321 3.68611 21.0982 3.70346C22.3164 3.72081 23.0025 3.53767 28.1335 1.83538C33.8196 -0.0519845 33.8196 -0.0519844 35.4579 0.0232016C36.7378 0.0829649 37.3391 0.214059 38.2046 0.626618C38.8137 0.915795 39.7466 1.58669 40.2766 2.11684C40.8067 2.647 41.4774 3.58008 41.7666 4.18928C42.179 5.05681 42.3101 5.65445 42.3679 6.93646C42.4431 8.57128 42.4393 8.58863 40.5908 14.1659C38.9216 19.2091 38.7404 19.8974 38.7366 21.2025C38.7308 22.525 38.8888 23.1188 40.5773 28.1428C42.4084 33.5967 42.4219 33.6487 42.3622 35.2816C42.3101 36.6581 42.2022 37.1266 41.6933 38.1734C41.2828 39.0159 40.7199 39.7542 39.9586 40.4463C39.2955 41.0497 38.3954 41.6416 37.7709 41.8826C36.9903 42.1852 36.281 42.2951 35.0724 42.2951C33.5189 42.2971 33.1565 42.2045 28.0371 40.5022C23.3148 38.933 22.4725 38.7074 21.2909 38.7035C20.0959 38.6997 19.2941 38.9137 14.2556 40.5774C8.58113 42.4513 8.56571 42.4551 6.93121 42.38C5.64943 42.3221 5.05191 42.191 4.18455 41.7785C3.57546 41.4893 2.64256 40.8184 2.11251 40.2882C1.58245 39.7581 0.911686 38.825 0.622564 38.2158C0.208156 37.3463 0.0790147 36.7545 0.0211902 35.4686C-0.0501265 33.8319 -0.0481991 33.8203 1.8388 28.1428C3.51571 23.0918 3.72581 22.3053 3.72195 21.1061C3.7181 19.9282 3.49258 19.0723 1.95253 14.4069C0.979148 11.465 0.131057 8.55779 0.0655223 7.94859C-0.0154319 7.19094 0.048175 6.44294 0.269835 5.58697C0.447163 4.8968 0.774835 4.0312 0.996495 3.65912C1.22008 3.28898 1.67111 2.6952 1.99879 2.34048C2.32646 1.98768 2.85459 1.5115 3.17262 1.28594C3.49066 1.05846 4.22695 0.676742 4.81098 0.439617C5.57812 0.125378 6.27008 0.00392315 7.3167 6.74525e-05ZM16.1831 11.4245C15.3427 11.8371 14.4542 12.5157 13.4808 13.4873C12.5055 14.4628 11.8328 15.3457 11.4203 16.1901C11.083 16.8803 10.6724 18.0081 10.5105 18.6963C10.3467 19.3865 10.2137 20.5143 10.2137 21.2025C10.2137 21.8927 10.3486 23.0205 10.5125 23.7087C10.6763 24.3989 11.1293 25.5691 11.5205 26.3094C11.9157 27.0593 12.7464 28.1813 13.3883 28.833C14.0243 29.4788 14.9784 30.2576 15.5085 30.5642C16.0386 30.8707 17.0351 31.3237 17.7251 31.5724C18.4151 31.8192 19.6275 32.0717 20.4236 32.1334C21.4625 32.2144 22.3029 32.1489 23.4112 31.9002C24.2593 31.7093 25.5603 31.2447 26.3024 30.8668C27.11 30.4562 28.1239 29.7121 28.8235 29.0161C29.4692 28.3761 30.2479 27.4198 30.5544 26.8897C30.8609 26.3595 31.31 25.384 31.5509 24.7209C31.7919 24.0577 32.0424 22.8875 32.1099 22.1183C32.1831 21.2777 32.133 20.1442 31.9827 19.2747C31.8265 18.3609 31.4507 17.2601 30.965 16.2865C30.4041 15.1645 29.82 14.376 28.8255 13.3948C27.9504 12.5311 27.0078 11.8216 26.206 11.4284C25.5179 11.089 24.3884 10.6784 23.7003 10.5165C23.0103 10.3526 21.8403 10.2254 21.0982 10.2331C20.3561 10.2408 19.2285 10.3719 18.5925 10.528C17.9564 10.6823 16.8712 11.0871 16.1831 11.4245Z" fill="#1CA8DD"/>
<path fill-rule="evenodd" clip-rule="evenodd" d="M155.552 4.03308L160.263 4.14104V8.38231L155.54 8.4787L155.552 4.03308ZM170.382 4.04465V11.1777H173.851V14.8406H170.382V31.2273H165.563V14.8406H162.286V11.1777H165.563L165.53 7.74033C165.513 5.84911 165.571 4.24322 165.66 4.17381C165.748 4.10248 166.847 4.04465 170.382 4.04465ZM64.9487 10.5531C65.5308 10.6051 66.4849 10.8133 67.0689 11.0138C67.651 11.2143 68.4625 11.6153 68.8711 11.9045C69.2797 12.1937 69.8676 12.8221 70.1799 13.2983C70.4921 13.7764 70.8738 14.5996 71.0299 15.1298C71.186 15.6599 71.3113 16.2017 71.3113 16.3347C71.3094 16.514 70.6984 16.5757 68.9 16.5757C66.8858 16.5757 66.4907 16.5275 66.4907 16.2865C66.4907 16.1284 66.3712 15.7583 66.2266 15.4671C66.082 15.176 65.6715 14.8155 65.3111 14.6652C64.9371 14.509 64.2779 14.428 63.7633 14.4724C63.1426 14.5283 62.7109 14.6999 62.3639 15.0334C62.0864 15.2994 61.8185 15.7544 61.7664 16.0455C61.7144 16.3366 61.7915 16.8147 61.938 17.1058C62.0845 17.3969 62.6261 17.8654 63.1426 18.1469C63.6592 18.4283 64.7752 18.8505 65.6233 19.0838C66.4714 19.319 67.7281 19.7662 68.4182 20.0766C69.1063 20.3889 69.9601 20.921 70.3148 21.2603C70.6675 21.5996 71.1436 22.2243 71.373 22.6484C71.7103 23.2769 71.7874 23.7434 71.7874 25.1546C71.7855 26.5928 71.7026 27.067 71.3055 27.9288C71.0337 28.5187 70.4304 29.3322 69.9119 29.8084C69.4089 30.2711 68.5415 30.8629 67.9845 31.1232C67.4274 31.3815 66.3654 31.6958 65.6233 31.8192C64.567 31.9965 63.9599 31.9907 62.8285 31.798C62.0074 31.6591 60.82 31.2736 60.0818 30.9073C59.1797 30.462 58.5552 29.9819 58.0483 29.3477C57.6474 28.8445 57.1771 27.9982 57.0055 27.468C56.834 26.9378 56.6432 26.265 56.4678 25.4438H58.8771C61.0012 25.4438 61.298 25.4842 61.3925 25.7811C61.4522 25.9662 61.6084 26.3364 61.7394 26.6005C61.8705 26.8665 62.2772 27.2849 62.6434 27.5336C63.2043 27.9114 63.5031 27.9731 64.5285 27.9191C65.6541 27.8594 65.7968 27.7996 66.4078 27.1306C66.853 26.6448 67.0689 26.2188 67.0689 25.8293C67.0689 25.5112 66.9494 25.0119 66.8029 24.7208C66.6564 24.4297 66.1129 23.9593 65.5982 23.6779C65.0817 23.3964 63.7922 22.8643 62.7321 22.498C61.672 22.1317 60.4365 21.6478 59.9854 21.4223C59.5344 21.1948 58.8521 20.7282 58.4666 20.3832C58.0811 20.0381 57.6127 19.4539 57.4219 19.0819C57.233 18.7117 57.0171 17.9734 56.9419 17.4432C56.8456 16.7588 56.9034 16.1438 57.1405 15.3226C57.3236 14.6864 57.7129 13.8188 58.004 13.3947C58.295 12.9706 58.8713 12.3672 59.2838 12.0549C59.6963 11.7425 60.3806 11.3338 60.8046 11.1449C61.2287 10.956 62.096 10.7246 62.7321 10.6302C63.3682 10.5357 64.3647 10.501 64.9487 10.5531ZM84.8017 10.5376C85.3838 10.5878 86.3823 10.7574 87.0183 10.9155C87.6544 11.0717 88.6509 11.4534 89.2349 11.7638C89.817 12.0741 90.7654 12.7855 91.3397 13.3427C91.9141 13.9017 92.6601 14.7924 92.9974 15.3226C93.3347 15.8527 93.8088 16.807 94.0498 17.4432C94.362 18.2606 94.5259 19.2091 94.7283 22.7467L78.441 22.7448L78.4449 23.2749C78.4468 23.566 78.6049 24.1521 78.7957 24.5762C78.9846 25.0004 79.5262 25.7194 79.9946 26.1725C80.49 26.6506 81.2956 27.1653 81.9105 27.3967C82.7567 27.7148 83.281 27.7784 84.5126 27.7128C85.5496 27.6589 86.3071 27.5027 86.8256 27.2386C87.2496 27.0227 87.9435 26.4482 89.1386 25.0755L91.4997 25.0678C93.2634 25.0601 93.8609 25.1199 93.8628 25.2992C93.8647 25.4322 93.5564 26.0607 93.1766 26.6969C92.7989 27.3331 92.1242 28.2276 91.6809 28.6864C91.2357 29.1433 90.3529 29.8643 89.7168 30.2884C89.0807 30.7126 87.9532 31.2447 87.2111 31.4721C86.2551 31.7632 85.3549 31.8828 84.1271 31.8808C83.0362 31.8789 81.9626 31.7517 81.2359 31.5358C80.5998 31.3468 79.6014 30.942 79.0193 30.6335C78.4353 30.3251 77.5043 29.6388 76.9473 29.1086C76.3902 28.5784 75.6327 27.6878 75.2646 27.1306C74.8945 26.5735 74.4242 25.6423 74.216 25.0582C74.0098 24.476 73.7457 23.3906 73.6281 22.6484C73.4797 21.7114 73.472 20.8863 73.605 19.9494C73.711 19.2072 73.9192 18.2529 74.0695 17.8288C74.2179 17.4046 74.5572 16.6239 74.8212 16.0937C75.0872 15.5635 75.7792 14.6093 76.3594 13.9731C76.9395 13.3369 77.8416 12.5407 78.362 12.2033C78.8824 11.8659 79.7633 11.411 80.3203 11.1912C80.8774 10.9714 81.8739 10.715 82.5369 10.6205C83.2 10.5241 84.2177 10.4875 84.8017 10.5376ZM80.0312 16.1785C79.5802 16.6084 79.0405 17.3294 78.8304 17.7806C78.6203 18.2317 78.4468 18.7079 78.4449 18.8409C78.441 19.0279 79.7036 19.0819 84.1271 19.0819C88.5488 19.0819 89.8113 19.0279 89.8093 18.8409C89.8055 18.7079 89.6493 18.2529 89.4585 17.8288C89.2677 17.4046 88.7916 16.7318 88.4023 16.3347C88.011 15.9375 87.3248 15.4228 86.8738 15.1915C86.2666 14.8811 85.6267 14.7558 84.4162 14.7095C83.1402 14.6594 82.5639 14.7288 81.8141 15.0199C81.2841 15.2262 80.4823 15.7486 80.0312 16.1785ZM107.835 10.5396C108.471 10.5878 109.599 10.8018 110.341 11.0157C111.083 11.2297 112.166 11.677 112.75 12.0105C113.332 12.344 114.29 13.0959 114.878 13.68C115.559 14.3586 116.204 15.2686 116.655 16.1901C117.045 16.9863 117.409 17.875 117.569 18.6963H112.75L112.295 17.877C112.045 17.4258 111.459 16.728 110.994 16.327C110.524 15.9202 109.718 15.4691 109.184 15.3129C108.654 15.1568 107.721 15.0315 107.112 15.0315C106.484 15.0334 105.565 15.1992 104.992 15.4132C104.381 15.6426 103.664 16.1207 103.18 16.6181C102.741 17.073 102.178 17.8345 101.927 18.3107C101.534 19.0626 101.474 19.452 101.474 21.2025C101.474 23.0108 101.528 23.3308 101.978 24.1907C102.255 24.7208 102.905 25.5286 103.423 25.9855C103.999 26.4925 104.74 26.9243 105.329 27.0959C105.859 27.2502 106.769 27.3755 107.353 27.3755C107.935 27.3755 108.803 27.2482 109.281 27.0901C109.757 26.934 110.537 26.4713 111.015 26.0626C111.492 25.6558 112.078 25.0023 112.75 23.9015H117.569L117.459 24.4316C117.397 24.7227 117.074 25.5267 116.738 26.2149C116.337 27.04 115.665 27.9307 114.776 28.8194C113.875 29.7217 113.007 30.3733 112.172 30.7743C111.482 31.1059 110.441 31.4933 109.859 31.636C109.275 31.7787 107.974 31.8866 106.968 31.877C105.615 31.8635 104.809 31.7478 103.884 31.4317C103.194 31.1965 102.197 30.7588 101.667 30.46C101.137 30.1612 100.308 29.5404 99.8245 29.0797C99.3426 28.617 98.6276 27.763 98.2382 27.1788C97.8489 26.5966 97.3554 25.6192 97.1415 25.01C96.9275 24.4008 96.6654 23.2942 96.5594 22.552C96.4341 21.6748 96.4302 20.7475 96.5517 19.9012C96.6519 19.186 96.889 18.1237 97.074 17.5396C97.261 16.9574 97.8546 15.8296 98.3924 15.0334C99.1268 13.948 99.7281 13.333 100.808 12.5657C101.598 12.0028 102.7 11.3743 103.257 11.168C103.814 10.9618 104.811 10.715 105.474 10.6225C106.137 10.528 107.199 10.4894 107.835 10.5396ZM153.179 10.4316C153.206 10.4181 153.227 11.5343 153.227 15.419L152.408 15.4228C151.957 15.4247 151.242 15.5327 150.818 15.6619C150.394 15.791 149.687 16.246 149.247 16.6701C148.761 17.1405 148.366 17.7459 148.237 18.2143C148.104 18.7001 148.025 21.2584 148.023 31.2273H143.012V11.1777H147.638L147.632 12.0934C147.628 12.5966 147.672 13.0747 147.728 13.1537C147.784 13.2328 148.198 12.8954 148.65 12.4019C149.101 11.9083 149.858 11.3319 150.336 11.1199C150.812 10.9078 151.637 10.6726 152.167 10.5955C152.697 10.5184 153.152 10.4432 153.179 10.4316ZM120.46 11.1777H125.279L125.275 17.395C125.271 22.8335 125.314 23.7415 125.612 24.6476C125.815 25.2645 126.225 25.9489 126.628 26.3421C126.998 26.7065 127.605 27.0863 127.977 27.1865C128.347 27.2868 129.086 27.3697 129.616 27.3697C130.146 27.3697 130.905 27.2829 131.302 27.1788C131.699 27.0728 132.343 26.7046 132.73 26.3595C133.12 26.0144 133.619 25.3435 133.839 24.8654C134.218 24.0441 134.24 23.6624 134.261 11.1777H139.157V31.2273H134.531L134.544 28.8175L133.794 29.685C133.382 30.1631 132.619 30.7858 132.1 31.0712C131.582 31.3565 130.55 31.6938 129.808 31.8192C128.785 31.9946 128.097 31.9965 126.965 31.8307C126.144 31.7112 125.017 31.4027 124.46 31.1463C123.903 30.8899 123.08 30.2827 122.629 29.7968C122.178 29.311 121.636 28.5669 121.424 28.1427C121.212 27.7186 120.909 26.8299 120.751 26.1667C120.528 25.2201 120.464 23.4889 120.462 18.0697L120.46 11.1777ZM155.54 11.1777H160.359V31.2273H155.54V11.1777Z" fill="#1F2229"/>
<path d="M18.9296 17.0344C19.2207 16.8879 19.7854 16.6894 20.1825 16.591C20.5795 16.4927 21.2522 16.4599 21.6763 16.5159C22.1003 16.5718 22.7518 16.7433 23.1219 16.8956C23.4919 17.0479 24.0895 17.4509 24.4461 17.7902C24.8046 18.1295 25.2575 18.7541 25.4541 19.1782C25.6796 19.664 25.8126 20.3947 25.8165 21.1543C25.8184 21.8174 25.7047 22.6406 25.564 22.9857C25.4233 23.3308 25.0108 23.9516 24.6484 24.3661C24.2861 24.7805 23.6423 25.2779 23.2182 25.4707C22.7267 25.6943 21.9924 25.8216 21.1944 25.8216C20.3926 25.8216 19.664 25.6943 19.1705 25.4688C18.7465 25.276 18.0911 24.7786 17.7134 24.3661C17.3356 23.9516 16.9077 23.2653 16.7631 22.8411C16.6186 22.417 16.501 21.6786 16.501 21.2025C16.501 20.7263 16.6186 19.9879 16.7631 19.5638C16.9077 19.1397 17.3356 18.4572 17.7134 18.0466C18.0911 17.6359 18.6386 17.181 18.9296 17.0344Z" fill="#1CA8DD"/>
</svg>
