<svg width="409" height="142" viewBox="0 0 409 142" fill="none" xmlns="http://www.w3.org/2000/svg">
<path d="M326.437 125.229V108.113C326.437 106.504 326.639 105.034 327.057 103.717C327.463 102.399 328.058 101.272 328.844 100.359C329.616 99.4473 330.516 98.7506 331.529 98.2819C332.543 97.8132 333.645 97.5724 334.836 97.5724C335.938 97.5724 336.926 97.7232 337.801 98.0411C338.662 98.3581 339.422 98.8518 340.068 99.5234C340.702 100.195 341.196 101.082 341.513 102.209C341.829 103.324 341.994 104.692 341.994 106.301V125.229H349.431V105.262C349.431 102.792 349.101 100.664 348.43 98.89C347.771 97.1163 346.859 95.6848 345.719 94.6077C344.566 93.5309 343.236 92.7455 341.715 92.2514C340.208 91.7574 338.573 91.5039 336.825 91.5039C335.596 91.5039 334.443 91.6183 333.392 91.8459C332.328 92.0746 331.365 92.4287 330.503 92.9101C329.616 93.3788 328.844 93.9743 328.16 94.6838C327.463 95.3934 326.893 96.2168 326.437 97.1795H326.158V91.5798H319V125.229H326.437Z" fill="#EF4723"/>
<path d="M311.626 91.6436H304.189V125.305H311.626V91.6436Z" fill="#EF4723"/>
<path d="M311.905 74.8193H303.924V82.3954H311.905V74.8193Z" fill="#EF4723"/>
<path d="M297.957 101.513C297.158 99.4223 296.006 97.6485 294.511 96.1664C293.016 94.6967 291.217 93.5693 289.114 92.7963C286.998 92.0235 284.642 91.6436 282.019 91.6436C279.536 91.6436 277.255 92.0364 275.165 92.8092C273.075 93.5946 271.263 94.7347 269.717 96.2423C268.185 97.75 266.994 99.5617 266.145 101.665C265.296 103.78 264.865 106.124 264.865 108.696C264.865 111.268 265.271 113.599 266.069 115.664C266.88 117.742 268.032 119.503 269.553 120.96C271.073 122.429 272.885 123.531 274.988 124.304C277.103 125.064 279.447 125.444 282.019 125.444C284.502 125.444 286.795 125.064 288.898 124.292C291.014 123.519 292.838 122.391 294.384 120.896C295.917 119.401 297.095 117.602 297.919 115.512C298.755 113.421 299.16 111.103 299.16 108.544C299.16 105.947 298.767 103.603 297.957 101.513ZM290.761 112.991C290.305 114.334 289.658 115.487 288.835 116.449C288.011 117.412 287.011 118.16 285.832 118.667C284.667 119.186 283.4 119.439 282.019 119.439C280.638 119.439 279.359 119.186 278.193 118.679C277.027 118.172 276.027 117.438 275.203 116.487C274.367 115.537 273.734 114.397 273.265 113.092C272.809 111.774 272.581 110.305 272.581 108.696C272.581 107.036 272.809 105.529 273.265 104.186C273.734 102.83 274.367 101.665 275.203 100.689C276.027 99.7137 277.027 98.9535 278.193 98.4216C279.359 97.902 280.638 97.6485 282.019 97.6485C283.438 97.6485 284.73 97.902 285.87 98.396C287.023 98.8903 288.011 99.5996 288.873 100.55C289.722 101.5 290.368 102.64 290.799 103.996C291.229 105.351 291.457 106.872 291.457 108.544C291.457 110.178 291.217 111.661 290.761 112.991Z" fill="#EF4723"/>
<path d="M230.025 108.696C230.025 111.281 230.405 113.625 231.166 115.727C231.913 117.831 233.041 119.604 234.51 121.048C235.967 122.493 237.741 123.608 239.806 124.368C241.871 125.141 244.189 125.521 246.761 125.521C249.054 125.521 251.107 125.217 252.931 124.621C254.743 124.026 256.288 123.189 257.568 122.125C258.847 121.061 259.874 119.794 260.608 118.325C261.343 116.855 261.812 115.271 262.053 113.586H254.679C254.502 114.397 254.223 115.183 253.856 115.905C253.488 116.64 252.982 117.273 252.335 117.818C251.689 118.35 250.904 118.768 249.966 119.072C249.016 119.376 247.952 119.515 246.761 119.515C245.482 119.515 244.278 119.262 243.176 118.743C242.074 118.236 241.111 117.489 240.287 116.526C239.464 115.563 238.83 114.397 238.387 113.042C237.956 111.686 237.741 110.216 237.741 108.62C237.741 107.024 237.956 105.554 238.387 104.199C238.83 102.843 239.464 101.69 240.287 100.728C241.111 99.7519 242.074 99.0044 243.176 98.4977C244.278 97.9784 245.482 97.7249 246.761 97.7249C247.952 97.7249 249.016 97.8758 249.928 98.1684C250.853 98.4722 251.626 98.8905 252.272 99.4352C252.906 99.9674 253.438 100.601 253.856 101.336C254.274 102.07 254.54 102.843 254.679 103.654H262.053C261.812 101.969 261.343 100.385 260.608 98.9159C259.874 97.4588 258.847 96.192 257.53 95.1278C256.225 94.051 254.667 93.2273 252.855 92.6192C251.043 92.0238 249.016 91.7197 246.761 91.7197C244.329 91.7197 242.086 92.1125 240.047 92.8854C238.007 93.6581 236.233 94.7985 234.738 96.2935C233.256 97.8008 232.09 99.5999 231.267 101.69C230.443 103.793 230.025 106.124 230.025 108.696Z" fill="#EF4723"/>
<path d="M212.465 114.765C212.465 116.653 212.68 118.274 213.086 119.63C213.504 120.985 214.15 122.1 215.012 122.974C215.886 123.849 217.013 124.482 218.394 124.9C219.762 125.318 221.422 125.521 223.348 125.521H228.517V119.313H224.589C223.715 119.313 222.98 119.226 222.385 119.035C221.79 118.857 221.308 118.566 220.941 118.173C220.573 117.793 220.307 117.286 220.143 116.665C219.991 116.045 219.902 115.272 219.902 114.347V97.6619H228.517V91.8596H219.902V81.6484H212.465V91.8596H206.131V97.6619H212.465L212.465 114.765Z" fill="#EF4723"/>
<path d="M202.698 91.9346H195.262V125.596H202.698V91.9346Z" fill="#EF4723"/>
<path d="M202.964 75.1094H194.982V82.6855H202.964V75.1094Z" fill="#EF4723"/>
<path d="M407.796 43.0078C406.998 40.9174 405.845 39.1439 404.35 37.6742C402.868 36.1919 401.056 35.0771 398.953 34.3043C396.838 33.5315 394.469 33.1387 391.859 33.1387C389.376 33.1387 387.095 33.5315 385.005 34.3043C382.914 35.0897 381.103 36.2298 379.57 37.7374C378.024 39.2577 376.833 41.0694 375.985 43.1725C375.136 45.2882 374.705 47.6192 374.705 50.2037C374.705 52.7755 375.11 55.0939 375.908 57.1717C376.719 59.2369 377.885 61.0103 379.392 62.4674C380.913 63.937 382.724 65.0392 384.828 65.7993C386.943 66.5595 389.287 66.9521 391.859 66.9521C394.329 66.9521 396.622 66.5595 398.738 65.7867C400.854 65.0266 402.678 63.8862 404.211 62.3912C405.757 60.8965 406.935 59.0975 407.758 57.0197C408.594 54.9166 409 52.5982 409 50.039C409 47.4546 408.594 45.1109 407.796 43.0078ZM400.6 54.4987C400.144 55.8288 399.498 56.9817 398.675 57.9445C397.851 58.9202 396.85 59.6547 395.672 60.1743C394.507 60.6936 393.24 60.9471 391.859 60.9471C390.478 60.9471 389.211 60.6939 388.033 60.187C386.867 59.6677 385.866 58.9455 385.043 57.9953C384.219 57.045 383.573 55.9049 383.105 54.5872C382.648 53.2696 382.42 51.8128 382.42 50.2037C382.42 48.5441 382.648 47.0367 383.105 45.6937C383.573 44.3381 384.219 43.1725 385.043 42.1844C385.866 41.2088 386.867 40.4613 388.033 39.9293C389.211 39.4098 390.478 39.1439 391.859 39.1439C393.278 39.1439 394.557 39.3971 395.71 39.8911C396.863 40.3854 397.851 41.1073 398.713 42.0451C399.562 42.9952 400.195 44.1479 400.638 45.5035C401.069 46.8591 401.284 48.3667 401.284 50.039C401.284 51.6861 401.057 53.1684 400.6 54.4987Z" fill="#EF4723"/>
<path d="M362.352 16.3516V26.5374V28.8684C362.352 29.578 362.352 30.414 362.379 31.3641C362.405 32.3145 362.442 33.3278 362.492 34.392C362.53 35.4562 362.606 36.4825 362.695 37.4579H362.416C361.91 36.7106 361.301 36.0517 360.592 35.507C359.883 34.9622 359.072 34.5188 358.185 34.1515C357.285 33.7966 356.31 33.5307 355.258 33.366C354.194 33.2006 353.054 33.1126 351.812 33.1126C349.659 33.1126 347.632 33.5054 345.757 34.3035C343.869 35.1015 342.222 36.2545 340.79 37.7748C339.371 39.2824 338.257 41.1068 337.458 43.2605C336.648 45.4141 336.255 47.796 336.255 50.4184C336.255 52.9902 336.635 55.3213 337.382 57.3864C338.143 59.4642 339.194 61.2124 340.55 62.6186C341.905 64.0377 343.502 65.1145 345.339 65.8238C347.176 66.546 349.152 66.9136 351.268 66.9136C352.497 66.9136 353.687 66.7992 354.802 66.5713C355.93 66.3427 356.981 65.9759 357.944 65.4945C358.907 65.0131 359.769 64.405 360.516 63.6701C361.276 62.9353 361.91 62.0613 362.416 61.0477H362.695V66.8501H369.79V16.3516H362.352ZM361.656 54.5611C361.2 55.9167 360.553 57.0568 359.73 58.0072C358.906 58.9446 357.931 59.6795 356.803 60.1735C355.676 60.6675 354.447 60.9083 353.117 60.9083C351.787 60.9083 350.57 60.6797 349.468 60.2114C348.366 59.7427 347.403 59.0714 346.58 58.1718C345.756 57.285 345.11 56.1828 344.654 54.8652C344.198 53.5475 343.97 52.0654 343.97 50.4184C343.97 48.7208 344.198 47.1623 344.654 45.7435C345.11 44.3247 345.756 43.1337 346.58 42.1581C347.403 41.17 348.379 40.4225 349.506 39.8903C350.634 39.371 351.837 39.1175 353.117 39.1175C354.447 39.1175 355.676 39.3584 356.803 39.8524C357.931 40.3467 358.906 41.0686 359.73 42.0187C360.553 42.9691 361.2 44.1092 361.656 45.4648C362.124 46.8204 362.352 48.3406 362.352 50.0129C362.352 51.6853 362.125 53.2055 361.656 54.5611Z" fill="#EF4723"/>
<path d="M330.946 40.0166C330.376 38.5345 329.502 37.2675 328.336 36.2286C327.158 35.2026 325.689 34.4169 323.928 33.8723C322.154 33.3401 320.101 33.0615 317.758 33.0615C315.693 33.0615 313.805 33.3147 312.082 33.8343C310.359 34.341 308.889 35.1011 307.673 36.1021C306.457 37.1028 305.494 38.2811 304.785 39.6367C304.063 41.0049 303.67 42.5252 303.581 44.2102H310.676C310.765 43.3868 310.967 42.6393 311.284 41.9424C311.613 41.2584 312.069 40.6756 312.665 40.1686C313.26 39.6746 313.982 39.2947 314.831 39.0412C315.68 38.788 316.656 38.6484 317.758 38.6484C318.911 38.6484 319.899 38.787 320.722 39.0792C321.546 39.3577 322.243 39.7634 322.787 40.308C323.332 40.8529 323.738 41.4989 323.991 42.2844C324.244 43.0572 324.371 43.9314 324.371 44.8815C324.371 45.1729 324.308 45.439 324.168 45.6543C324.029 45.8708 323.801 46.0598 323.472 46.1992C323.155 46.35 322.724 46.503 322.167 46.63C321.622 46.7564 320.9 46.8832 320.038 47.0225L313.488 48.0488C311.512 48.3529 309.814 48.7836 308.395 49.3156C306.977 49.8605 305.811 50.5318 304.924 51.3302C304.025 52.1283 303.353 53.0657 302.922 54.1172C302.479 55.1815 302.264 56.385 302.264 57.7153C302.264 59.0962 302.517 60.3504 303.024 61.4526C303.531 62.5676 304.265 63.543 305.228 64.3666C306.191 65.19 307.382 65.8108 308.813 66.2289C310.232 66.6468 311.841 66.8749 313.628 66.8749C314.869 66.8749 316.035 66.7606 317.112 66.5329C318.189 66.3043 319.189 65.9881 320.102 65.5828C321.026 65.1774 321.837 64.6578 322.547 64.0497C323.256 63.4416 323.864 62.7322 324.371 61.9213H324.713V66.7991H331.808V45.135C331.808 43.2092 331.529 41.4989 330.946 40.0166ZM324.371 52.9516C324.371 54.3072 324.13 55.5108 323.649 56.575C323.167 57.6392 322.509 58.5134 321.685 59.2103C320.862 59.907 319.911 60.4392 318.835 60.7685C317.745 61.1105 316.617 61.2752 315.427 61.2752C314.502 61.2752 313.678 61.173 312.943 60.9582C312.209 60.7564 311.613 60.4642 311.145 60.097C310.688 59.742 310.334 59.2989 310.08 58.7666C309.827 58.2347 309.7 57.6519 309.7 57.0184C309.7 56.3848 309.814 55.8149 310.017 55.3335C310.22 54.8392 310.537 54.4084 310.98 54.0285C311.411 53.6483 311.981 53.3189 312.665 53.0402C313.349 52.7743 314.185 52.5714 315.148 52.4447L320.925 51.5455C321.343 51.4579 321.723 51.38 322.065 51.292C322.407 51.2166 322.724 51.1144 322.99 51.0135C323.269 50.8991 323.522 50.7726 323.75 50.5953C323.978 50.4299 324.194 50.2533 324.371 50.0886L324.371 52.9516Z" fill="#EF4723"/>
<path d="M267.322 49.9756C267.322 52.5727 267.702 54.9164 268.462 57.0194C269.21 59.1225 270.325 60.8963 271.794 62.3404C273.264 63.7848 275.038 64.8996 277.103 65.6597C279.168 66.4325 281.486 66.8127 284.058 66.8127C286.351 66.8127 288.403 66.5213 290.215 65.9132C292.027 65.3177 293.585 64.4815 294.865 63.4173C296.144 62.3531 297.158 61.0862 297.893 59.6166C298.627 58.1471 299.109 56.5634 299.337 54.8784H291.976C291.786 55.6892 291.507 56.4748 291.153 57.1968C290.773 57.9316 290.278 58.565 289.632 59.1099C288.986 59.6419 288.201 60.06 287.251 60.3641C286.313 60.6679 285.249 60.8202 284.058 60.8202C282.766 60.8202 281.575 60.5543 280.473 60.0347C279.37 59.528 278.408 58.7806 277.584 57.8175C276.761 56.8548 276.115 55.6892 275.684 54.3338C275.253 52.9782 275.038 51.5085 275.038 49.9121C275.038 48.3286 275.253 46.8462 275.684 45.5033C276.115 44.1477 276.761 42.9823 277.584 42.0193C278.408 41.0439 279.37 40.309 280.473 39.7897C281.575 39.2701 282.766 39.0169 284.058 39.0169C285.249 39.0169 286.3 39.1678 287.225 39.473C288.137 39.7642 288.923 40.1823 289.569 40.7272C290.202 41.2594 290.735 41.8928 291.153 42.6274C291.558 43.3623 291.837 44.135 291.976 44.946H299.337C299.109 43.2611 298.627 41.6773 297.893 40.2205C297.158 38.7508 296.144 37.484 294.827 36.4072C293.522 35.343 291.963 34.5193 290.152 33.9112C288.327 33.3158 286.3 33.0117 284.058 33.0117C281.613 33.0117 279.383 33.4046 277.343 34.1773C275.291 34.9501 273.53 36.0904 272.035 37.5852C270.54 39.0928 269.387 40.8919 268.564 42.995C267.74 45.0854 267.322 47.4164 267.322 49.9756Z" fill="#EF4723"/>
<path d="M255.022 66.6979V50.3169C255.022 48.898 255.174 47.5424 255.478 46.2627C255.769 44.9959 256.225 43.8685 256.846 42.9181C257.467 41.9427 258.252 41.2078 259.19 40.6632C260.127 40.131 261.217 39.8649 262.458 39.8649C262.775 39.8649 263.117 39.8918 263.459 39.9281C263.801 39.9792 264.143 40.0546 264.46 40.1568C264.777 40.2444 265.131 40.3708 265.499 40.5241C265.866 40.6627 266.234 40.841 266.588 41.0307L268.527 33.6449C268.109 33.5184 267.703 33.3914 267.285 33.3029C266.867 33.2153 266.462 33.1375 266.082 33.101C265.689 33.0499 265.309 33.0256 264.941 32.9988C264.574 32.9719 264.207 32.96 263.839 32.96C262.775 32.96 261.812 33.0864 260.913 33.3275C260.013 33.5807 259.19 33.9483 258.43 34.4423C257.669 34.9363 257.011 35.5191 256.44 36.1905C255.858 36.8621 255.364 37.6475 254.958 38.547H254.756V33.0361H247.585V66.6975L255.022 66.6979Z" fill="#EF4723"/>
<path d="M242.947 47.999C242.947 45.6299 242.58 43.5015 241.833 41.6265C241.098 39.7389 240.033 38.1552 238.64 36.8631C237.234 35.5834 235.574 34.5953 233.648 33.9237C231.723 33.2397 229.582 32.8975 227.238 32.8975C224.856 32.8975 222.639 33.2777 220.599 34.0378C218.547 34.7979 216.786 35.9001 215.291 37.3571C213.796 38.8013 212.643 40.5244 211.82 42.526C210.984 44.5151 210.578 46.7193 210.578 49.1138C210.578 51.8756 210.958 54.3463 211.718 56.5252C212.466 58.7169 213.568 60.5665 215.012 62.0868C216.469 63.5944 218.23 64.7474 220.321 65.5329C222.411 66.3183 224.78 66.7111 227.453 66.7111C229.518 66.7111 231.431 66.42 233.205 65.8369C234.966 65.2667 236.499 64.4687 237.804 63.468C239.121 62.4544 240.186 61.2761 241.009 59.9458C241.833 58.6157 242.365 57.184 242.593 55.6637H235.295C235.118 56.3479 234.827 57.0066 234.434 57.6274C234.041 58.2482 233.534 58.8057 232.888 59.2871C232.242 59.7684 231.482 60.1486 230.582 60.4274C229.683 60.6933 228.669 60.8327 227.517 60.8327C226.186 60.8327 224.97 60.604 223.868 60.1107C222.766 59.6417 221.815 58.9324 221.005 58.0076C220.207 57.0954 219.56 55.9804 219.079 54.663C218.598 53.358 218.306 51.9012 218.218 50.2795H242.947V47.999ZM218.56 45.2499C218.838 44.249 219.244 43.3368 219.763 42.5134C220.295 41.6898 220.929 40.9931 221.663 40.4356C222.398 39.8781 223.234 39.4476 224.172 39.1435C225.109 38.8394 226.136 38.7001 227.238 38.7001C228.429 38.7001 229.493 38.8266 230.405 39.0927C231.33 39.3461 232.128 39.7516 232.812 40.2962C233.509 40.8285 234.066 41.5124 234.51 42.3361C234.941 43.1595 235.232 44.1349 235.359 45.2499H218.56Z" fill="#EF4723"/>
<path d="M173.357 85.6517C174.776 85.6517 176.005 85.8025 177.044 86.1075C178.083 86.3989 178.919 86.8297 179.59 87.3872C180.262 87.9318 180.743 88.5908 181.034 89.3509C181.338 90.1111 181.491 90.9597 181.491 91.9354C181.491 92.949 181.313 93.8865 180.971 94.7605C180.629 95.6347 180.11 96.3948 179.413 97.0409C178.729 97.6872 177.867 98.1685 176.828 98.5232C175.802 98.8652 174.624 99.0427 173.294 99.0427H160.751V85.6517H173.357ZM174.662 105.314C176.094 105.314 177.36 105.491 178.45 105.833C179.552 106.175 180.464 106.669 181.174 107.315C181.883 107.962 182.415 108.722 182.795 109.596C183.163 110.47 183.34 111.433 183.34 112.484C183.34 113.637 183.176 114.689 182.833 115.626C182.479 116.577 181.947 117.4 181.212 118.109C180.477 118.832 179.565 119.364 178.488 119.731C177.411 120.098 176.132 120.288 174.662 120.288H160.751V105.314H174.662ZM175.283 126.699C177.817 126.699 180.072 126.357 182.061 125.673C184.062 124.976 185.735 124.001 187.09 122.734C188.446 121.467 189.472 119.972 190.156 118.249C190.84 116.526 191.195 114.651 191.195 112.624C191.195 111.243 190.98 109.963 190.536 108.76C190.105 107.569 189.485 106.492 188.687 105.516C187.876 104.554 186.888 103.768 185.722 103.148C184.556 102.526 183.252 102.071 181.833 101.805V101.513C183.074 101.158 184.164 100.652 185.101 100.006C186.039 99.3595 186.824 98.5993 187.445 97.7251C188.066 96.8511 188.522 95.9137 188.813 94.9001C189.117 93.8865 189.269 92.797 189.269 91.6569C189.269 89.6803 188.952 87.9321 188.332 86.4118C187.711 84.9042 186.761 83.5992 185.481 82.5223C184.189 81.4328 182.58 80.6221 180.654 80.0646C178.729 79.52 176.474 79.2412 173.902 79.2412H152.973V126.699H175.283Z" fill="#EF4723"/>
<path d="M160.967 66.9131L160.41 31.402H160.689L176.119 66.9131H182.112L197.53 30.7684H197.809L197.188 66.9131H204.967V19.4551H195.047L179.35 56.3726H179.147L163.235 19.4551H153.188V66.9131H160.967Z" fill="#EF4723"/>
<path d="M51.7853 3.41901C55.659 1.17928 60.0545 0 64.5291 0C69.0036 0 73.3991 1.17928 77.2728 3.41901L116.342 26C120.21 28.2364 123.422 31.4513 125.654 35.3218C127.886 39.1923 129.06 43.582 129.058 48.05V93.156C129.065 97.6287 127.893 102.024 125.661 105.9C123.428 109.776 120.214 112.995 116.342 115.234L77.2728 137.787C73.3991 140.027 69.0036 141.206 64.5291 141.206C60.0545 141.206 55.659 140.027 51.7853 137.787L12.7158 115.206C8.84786 112.97 5.63657 109.755 3.40455 105.884C1.17252 102.014 -0.00163845 97.624 2.7504e-05 93.156V48.05C-0.00654596 43.5773 1.16529 39.1818 3.39756 35.306C5.62983 31.4302 8.84375 28.2108 12.7158 25.972L51.7853 3.41901Z" fill="#EF4723"/>
</svg>
