<svg width="538" height="150" viewBox="0 0 538 150" fill="none" xmlns="http://www.w3.org/2000/svg">
<g clip-path="url(#clip0_4192_377)">
<path fill-rule="evenodd" clip-rule="evenodd" d="M537.305 124.86C537.305 136.031 530.739 139.414 519.082 139.414C514.518 139.414 507.355 138.428 503.002 137.018L505.038 130.005C508.233 131.239 514.343 132.296 518.837 132.296C525.648 132.296 528.738 130.816 528.738 125.389C528.738 121.406 526.702 119.539 518.485 118.834C508.128 118.023 502.475 115.345 502.475 106.394C502.475 95.187 509.462 91.9092 520.943 91.9092C525.473 91.9092 531.09 92.8254 535.866 94.3056C535.163 96.6318 534.391 98.9226 533.653 101.319C530.142 100.085 525.192 99.0282 520.768 99.0282C514.413 99.0282 511.042 100.085 511.042 105.689C511.042 109.495 513.535 111.01 521.224 111.609C532.424 112.596 537.305 116.155 537.305 124.86ZM494.961 109.389V135.855C489.66 138.076 481.795 139.414 475.791 139.414C462.273 139.414 457.252 136.031 457.252 124.331C457.252 111.539 464.661 109.495 474.913 109.495C479.126 109.495 482.567 109.918 486.816 110.834C486.816 101.425 484.814 98.535 475.018 98.535C470.419 98.535 466.206 98.9928 462.589 100.438L460.342 94.0236C464.31 92.9316 469.752 91.2396 476.036 91.2396C489.203 91.2396 494.961 95.8212 494.961 109.389ZM486.816 117.037C484.007 116.332 480.215 116.05 476.388 116.05C468.804 116.05 466.241 116.86 466.241 123.873C466.241 131.415 468.277 132.578 476.317 132.578C480.004 132.578 483.831 131.873 486.816 130.816V117.037ZM421.299 115.591C421.299 134.058 414.733 139.379 400.443 139.379C394.439 139.379 386.399 138.04 381.553 135.996V76.227L389.945 72.7734V95.187C392.227 93.5658 396.195 91.9092 401.848 91.9092C415.014 91.9092 421.299 97.3014 421.299 115.591ZM412.521 115.591C412.521 102.728 409.537 99.4512 400.514 99.4512C392.227 99.4512 389.945 102.446 389.945 105.477V130.498C392.93 131.591 396.827 132.085 400.443 132.085C409.537 132.085 412.521 129.617 412.521 115.591ZM373.373 115.415C373.373 133.882 366.772 139.379 352.552 139.379C338.403 139.379 331.696 133.882 331.696 115.415C331.696 97.0548 338.508 91.9092 352.552 91.9092C366.667 91.9092 373.373 97.0548 373.373 115.415ZM364.56 115.591C364.56 101.495 361.646 98.9928 352.552 98.9928C343.424 98.9928 340.509 101.495 340.509 115.591C340.509 129.089 343.424 132.26 352.552 132.26C361.646 132.26 364.56 129.089 364.56 115.591ZM449.037 92.4378C450.547 92.4378 452.127 92.544 453.636 92.7198V100.332C452.127 100.05 450.266 99.8736 448.439 99.8736C442.436 99.8736 437.028 101.918 437.028 105.407V138.146H428.637V93.1428H437.028V96.42C438.644 94.1298 442.611 92.4378 449.037 92.4378ZM323.481 92.4378C324.991 92.4378 326.57 92.544 328.08 92.7198V100.332C326.57 100.05 324.71 99.8736 322.849 99.8736C316.845 99.8736 311.473 101.918 311.473 105.407V138.146H303.081V93.1428H311.473V96.42C313.053 94.1298 317.02 92.4378 323.481 92.4378ZM295.673 130.604L297.253 137.512C294.409 138.498 289.915 139.379 286.228 139.379C276.046 139.379 271.622 136.384 271.622 123.062V84.6144L280.014 81.1608V93.1428H295.743V100.614H280.014V122.534C280.014 129.089 281.804 131.944 287.527 131.944C290.617 131.944 293.356 131.415 295.673 130.604ZM264.109 115.345V117.389H233.562C233.632 129.512 237.811 132.014 246.904 132.014C250.064 132.014 255.892 131.133 259.614 129.899L261.089 136.877C256.595 138.322 250.064 139.379 245.921 139.379C232.649 139.379 224.644 133.882 224.644 115.415C224.644 97.5834 231.947 91.9092 245.114 91.9092C258.105 91.9092 264.109 96.5262 264.109 115.345ZM255.436 110.552C255.015 100.966 252.557 98.9226 245.289 98.9226C237.178 98.9226 234.335 101.566 233.632 110.552H255.436ZM219.764 133.882L215.304 139.978C206.562 135.926 204.596 127.503 204.56 119.785V76.2624L212.847 72.879L212.882 117.917C212.776 126.692 214.356 130.921 219.764 133.882ZM152.737 76.2978H196.099V84.0156H161.656V101.566H186.127V109.213H161.656V130.428H196.099V138.146H152.737V76.2978Z" fill="#0071BB"/>
<path d="M83.9131 0C85.1768 0 85.7035 1.05724 85.6335 1.69157C79.9457 35.6288 90.0224 51.1702 101.258 64.4208C95.0784 84.6138 83.316 98.5344 67.5866 106.429C49.1183 80.4558 49.9258 48.809 60.9507 18.3959C66.6386 10.079 73.6959 4.12322 82.3679 0.422894C82.9651 0.105724 83.4564 0 83.9131 0Z" fill="url(#paint0_radial_4192_377)"/>
<path d="M67.5883 106.43C76.4008 118.835 89.6374 129.971 108.317 139.063C84.5114 155.556 50.103 153.97 9.51501 130.394C9.30435 130.158 9.10529 129.912 8.91813 129.653C4.14307 123.662 1.08843 117.636 0 111.857C0.105332 110.694 0.772437 109.919 2.03642 110.235C26.9299 116.826 49.471 115.416 67.5883 106.43Z" fill="url(#paint1_radial_4192_377)"/>
<path d="M67.5771 106.426C83.3065 98.5316 95.069 84.6116 101.248 64.418C114.274 78.6554 124.281 88.3118 124.737 105.016C125.053 117.597 118.312 131.271 108.306 139.059C89.6268 129.967 76.3896 118.831 67.5771 106.426Z" fill="#009A3D"/>
</g>
<defs>
<radialGradient id="paint0_radial_4192_377" cx="0" cy="0" r="1" gradientUnits="userSpaceOnUse" gradientTransform="translate(84.9664 83.733) scale(88.5841 88.9134)">
<stop stop-color="#D3D800"/>
<stop offset="0.4" stop-color="#D3D800"/>
<stop offset="1" stop-color="white"/>
</radialGradient>
<radialGradient id="paint1_radial_4192_377" cx="0" cy="0" r="1" gradientUnits="userSpaceOnUse" gradientTransform="translate(75.3122 125.283) scale(79.3149 79.6098)">
<stop stop-color="#0071BB"/>
<stop offset="0.4" stop-color="#0071BB"/>
<stop offset="1" stop-color="white"/>
</radialGradient>
<clipPath id="clip0_4192_377">
<rect width="538" height="150" fill="white"/>
</clipPath>
</defs>
</svg>
