<svg width="283" height="82" viewBox="0 0 283 82" fill="none" xmlns="http://www.w3.org/2000/svg">
<path fill-rule="evenodd" clip-rule="evenodd" d="M0 29.5564V14.7887H12.1615L12.1706 14.7783H13.3343L20.6893 22.1932L13.389 29.5564H0Z" fill="#FDB721"/>
<path fill-rule="evenodd" clip-rule="evenodd" d="M97.3153 52.8476V66.2627H84.6281C80.6284 66.2627 77.7689 63.2447 77.7689 59.5552C77.7689 55.8657 80.6284 52.8476 84.6281 52.8476H97.3153ZM86.9165 14.7783C86.4002 14.7783 85.8874 14.7967 85.3734 14.7967L69.1113 14.8001V29.7448L85.8324 29.7574C89.8894 29.762 92.805 30.8093 94.5129 32.5199C96.3548 34.3635 97.2866 36.8236 97.2866 39.8829V40.5165C93.7494 40.5165 90.211 40.4856 86.6749 40.4856C83.1388 40.4856 79.8821 40.8282 76.6677 41.5111C73.4521 42.1951 71.2805 43.3031 68.7884 44.8305C66.2975 46.3578 64.3068 48.4111 62.8209 50.9857C61.3339 53.5603 60.5898 56.6987 60.5898 60.3996C60.5898 64.1006 61.2332 67.5208 62.5199 70.1756C63.8054 72.8305 65.6542 74.9823 68.0661 76.6334C70.4781 78.2833 72.6679 79.4693 76.0037 80.1934C79.3406 80.9176 83.0576 81.2796 87.1569 81.2796C96.2724 81.2796 105.394 81.2166 114.513 81.2166C114.513 67.7385 114.53 54.2226 114.53 40.7273C114.53 36.7846 114.087 33.204 113.203 29.9854C112.319 26.768 110.812 24.0318 108.681 21.778C106.551 19.5254 103.718 17.7964 100.182 16.5898C96.6444 15.3822 92.2223 14.7783 86.9176 14.7783H86.9165Z" fill="#505153"/>
<path fill-rule="evenodd" clip-rule="evenodd" d="M265.785 52.8476V66.2627H253.098C249.098 66.2627 246.237 63.2447 246.237 59.5552C246.237 55.8657 249.097 52.8476 253.098 52.8476H265.785ZM255.386 14.7783C254.87 14.7783 254.356 14.7967 253.842 14.7967L237.581 14.8001V29.7448L254.302 29.7574C258.36 29.762 261.275 30.8093 262.982 32.5199C264.824 34.3635 265.756 36.8236 265.756 39.8829V40.5165C262.219 40.5165 258.681 40.4856 255.147 40.4856C251.613 40.4856 248.354 40.8282 245.138 41.5111C241.924 42.1951 239.751 43.3031 237.261 44.8305C234.769 46.3578 232.779 48.4111 231.292 50.9857C229.805 53.5603 229.061 56.6987 229.061 60.3996C229.061 64.1006 229.704 67.5208 230.991 70.1756C232.276 72.8305 234.125 74.9823 236.537 76.6334C238.949 78.2833 241.139 79.4693 244.474 80.1934C247.81 80.9176 251.528 81.2796 255.629 81.2796C264.743 81.2796 273.865 81.2166 282.984 81.2166C282.984 67.7385 283 54.2226 283 40.7273C283 36.7846 282.559 33.204 281.674 29.9854C280.79 26.768 279.282 24.0318 277.151 21.778C275.023 19.5254 272.188 17.7964 268.651 16.5898C265.113 15.3822 260.692 14.7783 255.387 14.7783H255.386Z" fill="#505153"/>
<path fill-rule="evenodd" clip-rule="evenodd" d="M148.72 14.7783C143.428 14.7783 139.019 15.3756 135.492 16.5691C131.964 17.7637 129.138 19.4752 127.014 21.7034C124.889 23.9317 123.385 26.6371 122.503 29.822C121.622 33.0057 121.18 36.5465 121.18 40.4465C121.18 53.7969 121.198 67.1654 121.198 80.4977C126.934 80.4977 132.669 80.5226 138.406 80.5407C138.406 66.8866 138.379 53.2177 138.379 39.6112C138.379 36.5873 139.306 34.1539 141.146 32.3291C142.853 30.6347 145.748 29.601 149.804 29.5965L166.253 29.5851V14.801L150.263 14.7965C149.754 14.7965 149.237 14.7783 148.722 14.7783H148.72Z" fill="#505153"/>
<path fill-rule="evenodd" clip-rule="evenodd" d="M45.8527 80.5405C40.5928 80.5405 36.208 79.9408 32.7007 78.7425C29.1945 77.5432 26.3841 75.8249 24.2717 73.5888C22.1593 71.3505 20.6645 68.6354 19.7882 65.4379C18.9108 62.2414 18.4727 58.6854 18.4727 54.7698C18.4727 48.5236 18.5249 39.1221 18.5816 29.5065L26.115 21.953L18.6668 14.487C18.6963 8.93276 18.7156 3.88717 18.7156 0.0432419C24.4181 0.0432419 30.1207 0.0182069 35.8233 0C35.8233 3.91334 35.8028 9.01127 35.7733 14.6156H53.94V29.2926H35.6882C35.6269 39.2757 35.5701 49.0972 35.5701 55.6084C35.5701 58.6444 36.4941 61.0898 38.3204 62.9207C40.0139 64.6185 42.8958 65.6541 46.9276 65.6632L53.7913 65.6757V80.5177L47.3828 80.5211C46.8822 80.5223 46.3635 80.5393 45.8516 80.5393L45.8527 80.5405Z" fill="#505153"/>
<path fill-rule="evenodd" clip-rule="evenodd" d="M224.623 52.3571C224.625 48.4046 224.626 44.4509 224.626 40.4996C224.626 36.5482 224.187 33.0688 223.306 29.8894C222.426 26.71 220.924 24.0071 218.803 21.7818C216.68 19.5554 213.858 17.8474 210.335 16.6544C202.942 14.153 192.371 14.153 184.978 16.6544C181.455 17.8474 178.632 19.5565 176.51 21.7818C174.389 24.0071 172.887 26.7088 172.007 29.8894C171.126 33.0688 170.687 36.6048 170.687 40.4996C170.687 45.7051 170.802 48.0118 170.802 54.9072C170.802 58.802 171.242 62.3391 172.123 65.5185C173.002 68.6979 174.504 71.3997 176.626 73.6261C178.748 75.8514 181.57 77.5594 185.094 78.7524C188.615 79.9442 193.02 80.5407 198.303 80.5407C198.817 80.5407 199.329 80.5226 199.841 80.5226L221.868 80.5192V65.7562L199.383 65.7438C195.338 65.7404 192.44 64.7069 190.736 63.0159C188.9 61.1913 187.974 58.7623 187.974 55.7425V52.3401H207.446V52.3582H224.622L224.623 52.3571ZM187.859 40.417V39.6654C187.859 36.6455 188.783 34.2177 190.621 32.3931C192.092 30.933 194.442 29.9652 197.656 29.723C200.869 29.9652 203.22 30.933 204.69 32.3931C206.529 34.2177 207.454 36.6455 207.454 39.6654V40.417H187.86H187.859Z" fill="#505153"/>
</svg>
