<svg width="595" height="57" viewBox="0 0 595 57" fill="none" xmlns="http://www.w3.org/2000/svg">
<path d="M114.599 3.49023H104.066L90.0908 21.5039L76.0474 3.49023H65.3759L82.9998 25.4954C83.692 26.4544 83.692 27.2838 82.9998 28.2428L64.4854 51.6217H75.0183L90.0908 32.5712L104.887 51.6217H115.42L96.9747 28.2428C96.2826 27.2838 96.2826 26.4544 96.9747 25.4954L114.599 3.49023Z" fill="black"/>
<path d="M30.4918 3.83627C30.0075 3.00686 29.4627 2.66992 28.8401 2.66992C28.2175 2.66992 27.6726 3.0155 27.1884 3.83627L0 51.631H10.6021L14.3206 44.6845C14.874 43.7255 15.6264 43.2417 16.7333 43.2417H40.895C41.9932 43.2417 42.7542 43.7255 43.3077 44.6845L47.0954 51.631H57.6284L30.5091 3.83627M19.3622 35.3277L27.5516 19.8542C28.0358 18.9643 28.1742 18.4805 28.7882 18.4805C29.4022 18.4805 29.5492 18.9643 29.9556 19.785L38.2834 35.3277H19.3535H19.3622Z" fill="black"/>
<path d="M181.878 3.83627C181.394 3.00686 180.849 2.66992 180.227 2.66992C179.604 2.66992 179.059 3.0155 178.575 3.83627L151.387 51.631H161.989L165.707 44.6845C166.261 43.7255 167.013 43.2417 168.12 43.2417H192.281C193.38 43.2417 194.141 43.7255 194.694 44.6845L198.482 51.631H209.015L181.895 3.83627M170.748 35.3277L178.938 19.8542C179.422 18.9643 179.561 18.4805 180.175 18.4805C180.789 18.4805 180.936 18.9643 181.342 19.785L189.67 35.3277H170.74H170.748Z" fill="black"/>
<path d="M130.269 3.49023H139.375V51.6302H130.269V3.49023Z" fill="black"/>
<path d="M247.385 3.49008V51.6302H278.983V47.0425H252.426V29.3572H276.951V24.7695H252.426V8.06909H278.845V3.48145H247.376L247.385 3.49008Z" fill="black"/>
<path d="M330.014 3.49023V44.4853L304.442 3.49023H298.406V51.6302H303.388V10.6612L328.959 51.6302H334.986V3.49023H330.005H330.014Z" fill="black"/>
<path d="M356.536 3.49008V51.6302H388.135V47.0425H361.578V29.3572H386.103V24.7695H361.578V8.06909H387.997V3.48145H356.527L356.536 3.49008Z" fill="black"/>
<path d="M482.845 27.0944V31.5525H499.191C499.119 34.3171 498.524 36.8572 497.373 39.1726C495.987 41.9459 494.017 44.1059 491.442 45.6783C488.862 47.2507 485.93 48.0282 482.655 48.0282C479.023 48.0282 475.771 47.242 472.882 45.6783C469.994 44.1059 467.737 41.7731 466.094 38.6802C464.46 35.5872 463.638 31.8808 463.638 27.5609C463.638 23.2411 464.52 19.552 466.293 16.4763C468.066 13.4006 470.435 11.0679 473.41 9.47821C476.386 7.88853 479.594 7.09366 483.045 7.09366C486.805 7.09366 490.185 7.93171 493.203 9.59915C496.221 11.2752 498.472 13.6425 499.957 16.7269L503.96 13.7289C501.947 10.1694 499.043 7.40469 495.235 5.45211C491.432 3.49958 487.367 2.51465 483.045 2.51465C478.718 2.51465 474.673 3.53413 470.911 5.5558C467.149 7.5861 464.148 10.4804 461.9 14.2559C459.651 18.0314 458.519 22.4636 458.519 27.5696C458.519 32.6756 459.548 37.0559 461.606 40.8487C463.655 44.6415 466.449 47.5532 469.96 49.5834C473.479 51.6135 477.309 52.6243 481.469 52.6243C485.049 52.6243 488.138 51.9854 490.713 50.7238C493.293 49.4537 495.359 47.8729 496.906 45.972C497.744 44.9439 498.496 43.8553 499.172 42.7149V51.6396H504.151V27.103H482.845V27.0944Z" fill="black"/>
<path d="M524.985 3.49023H529.964V51.6302H524.985V3.49023Z" fill="black"/>
<path d="M438.965 51.6302H444.932L429.834 30.1435C432.289 29.9707 434.46 29.4178 436.345 28.4761C438.663 27.3184 440.409 25.7373 441.586 23.7243C442.762 21.7199 443.359 19.4477 443.359 16.9162C443.359 14.3848 442.77 12.0349 441.586 10.0045C440.409 7.97422 438.654 6.38449 436.345 5.22682C434.028 4.06909 431.278 3.49023 428.087 3.49023H407.565V51.6302H412.616V30.2126H424.463L438.965 51.6302ZM412.607 8.06927H428.018C431.252 8.06927 433.777 8.86408 435.593 10.4624C437.409 12.0607 438.317 14.2034 438.317 16.9162C438.317 18.7046 437.91 20.2684 437.106 21.5989C436.293 22.9294 435.109 23.9575 433.535 24.6832C431.961 25.4004 430.102 25.7632 427.966 25.7632H412.624V8.07787L412.607 8.06927Z" fill="black"/>
<path d="M583.762 51.6302H589.274L569.348 3.49023H564.036L543.978 51.6302H549.413L555.216 37.4181H578.031L583.762 51.6302ZM557.001 33.0291L566.673 9.31334L576.25 33.0291H557.001Z" fill="black"/>
</svg>
