<svg width="406" height="150" viewBox="0 0 406 150" fill="none" xmlns="http://www.w3.org/2000/svg">
<g clip-path="url(#clip0_4192_361)">
<path d="M406.356 25.7146C406.356 67.2499 406.356 108.785 406.356 150.357C279.205 150.357 152.053 150.357 24.8439 150.237C24.6145 149.965 24.4626 149.715 24.2679 149.676C19.374 148.673 15.1646 146.255 11.4553 143.048C6.17079 138.479 2.555 132.801 1.03877 125.88C0.991899 125.666 0.591844 125.53 0.356445 125.357C0.356446 92.2526 0.356446 59.1478 0.476254 25.9853C0.751052 25.6955 0.992798 25.4824 1.04823 25.2285C2.17426 20.07 4.50853 15.4729 7.95136 11.5493C12.8101 6.01203 18.8486 2.35215 26.1878 1.03964C26.3959 1.00241 26.538 0.593188 26.7108 0.357422C144.365 0.357422 262.02 0.357422 379.731 0.481672C380.023 0.758358 380.241 1.00514 380.495 1.04942C386.61 2.11697 391.866 4.90326 396.379 9.11162C401.098 13.5136 404.178 18.8948 405.673 25.1907C405.725 25.4074 406.121 25.5418 406.356 25.7146ZM3.92232 100.179C3.92233 105.892 3.89727 111.606 3.92704 117.319C4.01751 134.679 16.3063 146.939 33.5932 146.939C155.799 146.939 278.006 146.939 400.212 146.939C401.022 146.939 401.832 146.939 402.709 146.939C402.745 146.46 402.787 146.172 402.787 145.884C402.79 108.387 402.763 70.8898 402.802 33.3927C402.82 15.9427 388.674 3.78686 373.038 4.15104C356.962 4.52548 340.871 4.23413 324.787 4.23413C227.449 4.23413 130.112 4.23767 32.774 4.22264C28.3672 4.22196 24.1265 4.98181 20.2171 6.99504C9.23947 12.6483 3.93383 21.8084 3.92616 34.1124C3.91252 56.0155 3.92233 77.9186 3.92232 100.179Z" fill="#F9FCFB"/>
<path d="M3.92196 99.9998C3.92197 77.9181 3.91216 56.015 3.9258 34.1119C3.93347 21.8079 9.23911 12.6478 20.2168 6.99455C24.1261 4.98132 28.3668 4.22147 32.7736 4.22215C130.111 4.23718 227.449 4.23364 324.786 4.23364C340.871 4.23364 356.962 4.52498 373.038 4.15055C388.673 3.78637 402.82 15.9422 402.801 33.3922C402.762 70.8893 402.79 108.387 402.787 145.884C402.787 146.171 402.745 146.459 402.708 146.939C401.831 146.939 401.021 146.939 400.211 146.939C278.005 146.939 155.799 146.939 33.5928 146.939C16.306 146.939 4.01715 134.678 3.92668 117.319C3.89691 111.605 3.92197 105.892 3.92196 99.9998ZM339.5 64.3736C340.036 65.0848 340.6 65.7766 341.101 66.5116C341.961 67.7726 341.696 68.3001 340.138 68.3593C338.776 68.4111 337.408 68.3322 336.046 68.3904C335.49 68.4142 334.942 68.647 334.391 68.7847C334.58 69.3652 334.64 70.0395 334.979 70.5114C337.615 74.1759 340.247 77.8465 343.025 81.4013C343.584 82.117 344.748 82.7096 345.655 82.7404C349.803 82.8814 353.959 82.8292 358.111 82.7742C358.754 82.7657 359.721 82.5524 359.94 82.1252C360.162 81.6943 359.789 80.7723 359.418 80.2498C357.151 77.0529 354.804 73.913 352.499 70.7422C352.108 70.2033 351.795 69.6069 351.253 68.7241C352.259 68.6311 352.876 68.5288 353.494 68.5245C356.164 68.5063 358.835 68.5644 361.503 68.4841C362.193 68.4633 362.871 68.0416 363.555 67.8041C363.331 67.1643 363.248 66.4183 362.861 65.9004C356.678 57.6191 350.478 49.3492 344.2 41.1408C343.678 40.4585 342.563 39.8705 341.714 39.858C334.774 39.7555 327.831 39.7571 320.891 39.8552C320.034 39.8673 318.883 40.4047 318.381 41.0814C312.257 49.3314 306.22 57.6459 300.202 65.9734C299.83 66.4885 299.47 67.4419 299.702 67.8499C299.949 68.284 300.903 68.4726 301.555 68.4886C304.282 68.5552 307.013 68.5021 309.742 68.528C310.35 68.5338 310.957 68.6815 311.891 68.8081C311.365 69.6275 311.051 70.1757 310.681 70.6832C308.373 73.8516 306.031 76.9949 303.759 80.1892C303.382 80.7191 302.983 81.5845 303.174 82.0625C303.34 82.4793 304.321 82.7621 304.947 82.771C309.158 82.8311 313.372 82.836 317.583 82.7692C318.285 82.758 319.256 82.5225 319.634 82.0292C322.668 78.071 325.604 74.0365 328.535 69.9998C329.24 69.0281 328.867 68.4223 327.697 68.3883C326.274 68.347 324.847 68.4214 323.427 68.3489C322.825 68.3182 322.236 68.041 321.641 67.8759C321.864 67.2995 321.975 66.6422 322.326 66.1598C324.701 62.893 327.145 59.677 329.514 56.4061C329.86 55.9278 329.925 55.2443 330.12 54.6557C329.535 54.4658 328.955 54.1405 328.362 54.1121C326.764 54.0355 325.158 54.1276 323.559 54.0616C323.025 54.0396 322.502 53.7419 321.975 53.5703C322.145 53.0888 322.212 52.531 322.501 52.1378C324.894 48.8847 327.312 45.6487 329.759 42.4361C330.911 40.9236 332.235 40.9353 333.39 42.457C335.796 45.6266 338.177 48.8156 340.536 52.0208C340.885 52.4954 341.056 53.1022 341.513 54.087C338.91 54.087 336.737 54.0494 334.566 54.1141C334.04 54.1298 333.24 54.356 333.081 54.7149C332.909 55.1034 333.214 55.8511 333.527 56.2855C335.436 58.9357 337.408 61.5412 339.5 64.3736ZM203.371 54.5037C201.192 50.553 197.11 48.8654 192.097 49.8041C188.285 50.518 185.205 52.3337 183.166 55.8825C180.425 47.1729 167.249 47.918 162.758 56.0109C162.758 54.4517 162.709 53.1691 162.773 51.8922C162.828 50.785 162.506 50.2537 161.288 50.2767C158.202 50.335 155.115 50.3341 152.029 50.2763C150.852 50.2543 150.442 50.7434 150.444 51.8536C150.456 61.6149 150.459 71.3763 150.44 81.1377C150.438 82.3588 150.942 82.8358 152.154 82.8162C155.002 82.7702 157.855 82.7163 160.7 82.834C162.386 82.9038 162.814 82.2798 162.792 80.6598C162.708 74.3517 162.717 68.0413 162.811 61.7335C162.822 60.957 163.363 59.7755 163.984 59.4878C168.178 57.5434 171.338 59.6302 171.354 64.2378C171.373 69.8327 171.385 75.4279 171.339 81.0224C171.328 82.3239 171.771 82.8483 173.093 82.8199C175.882 82.76 178.675 82.7198 181.461 82.8322C183.159 82.9008 183.769 82.3511 183.746 80.5985C183.663 74.2309 183.732 67.8614 183.695 61.493C183.689 60.4041 183.927 59.5904 185.067 59.3475C189.494 58.4046 192.419 59.0562 192.284 64.4802C192.15 69.8932 192.299 75.3128 192.226 80.7282C192.205 82.2405 192.601 82.8896 194.214 82.8302C197 82.7275 199.795 82.7372 202.581 82.8277C204.076 82.8762 204.526 82.3294 204.513 80.8585C204.452 73.8951 204.551 66.9299 204.439 59.9678C204.411 58.2263 203.812 56.494 203.371 54.5037ZM59.4775 59.1069C59.4775 53.2776 59.4472 47.4481 59.5011 41.6193C59.5129 40.3405 59.1577 39.7633 57.8116 39.7851C54.6094 39.837 51.4057 39.8166 48.2028 39.7946C47.105 39.7871 46.6255 40.1721 46.6312 41.3672C46.6717 49.8135 46.5483 58.2617 46.6846 66.706C46.818 74.9806 51.4289 80.6281 59.4013 82.5669C64.2593 83.7483 69.1529 83.7092 74.0121 82.5535C81.4591 80.7822 86.1638 75.51 86.4666 67.8313C86.8131 59.0427 86.6626 50.2347 86.7458 41.4353C86.7574 40.1992 86.1853 39.7608 84.9988 39.7877C82.8645 39.836 80.7284 39.8009 78.5931 39.8009C73.7759 39.8008 73.7821 39.8009 73.7744 44.5509C73.7628 51.7477 73.8116 58.9456 73.6982 66.1408C73.629 70.5338 71.1797 72.8207 66.8768 72.8547C62.2557 72.8913 59.8025 70.7267 59.5499 66.2422C59.423 63.9886 59.4953 61.7238 59.4775 59.1069ZM281.55 73.7498C281.55 63.0963 281.53 52.4428 281.574 41.7895C281.58 40.3647 281.216 39.726 279.682 39.7744C276.836 39.8642 273.984 39.8579 271.137 39.7766C269.637 39.7338 269.186 40.3189 269.213 41.7751C269.289 45.8209 269.243 49.8689 269.234 53.916C269.234 54.322 269.16 54.7278 269.093 55.4222C266.153 50.5089 261.927 49.0191 256.876 49.7993C251.823 50.5797 249.327 54.1168 248.171 58.7884C246.86 64.0816 246.863 69.4128 248.274 74.667C250.472 82.855 256.85 84.4754 262.946 82.8046C265.671 82.0576 267.532 80.0899 269.24 77.473C269.24 78.8952 269.299 79.9032 269.225 80.9013C269.125 82.2611 269.609 82.8576 271.039 82.8232C273.946 82.7534 276.857 82.7451 279.762 82.8263C281.228 82.8672 281.604 82.2151 281.567 80.8914C281.504 78.6315 281.55 76.3686 281.55 73.7498ZM114.122 68.3928C114.122 72.5561 114.149 76.7197 114.106 80.8826C114.093 82.2073 114.494 82.8569 115.937 82.8231C118.901 82.7535 121.868 82.7841 124.833 82.8114C125.907 82.8213 126.458 82.5082 126.451 81.2869C126.411 74.0311 126.525 66.7732 126.396 59.5194C126.295 53.8637 123.376 50.282 118.455 49.7789C116.441 49.573 114.312 49.8451 112.316 50.2752C109.224 50.9413 106.873 52.8597 105.006 56.037C105.006 54.2233 104.974 52.9792 105.016 51.7376C105.052 50.6631 104.592 50.2668 103.529 50.281C100.446 50.3221 97.3605 50.3381 94.2777 50.2745C93.013 50.2484 92.6323 50.7594 92.6357 51.9616C92.6632 61.6561 92.6648 71.3507 92.6347 81.0452C92.6306 82.3625 93.1456 82.8428 94.4346 82.8188C97.2805 82.7657 100.13 82.7371 102.974 82.8283C104.532 82.8782 105.051 82.3125 105.033 80.759C104.967 74.9311 105.007 69.102 105.007 63.2734C105.007 59.4467 105.395 59.0512 109.224 58.9924C109.58 58.9869 109.938 58.9809 110.291 59.0173C112.856 59.282 113.997 60.4479 114.105 63.0404C114.174 64.7029 114.121 66.3705 114.122 68.3928ZM242.119 58.8315C240.449 54.0174 237.008 51.1703 232.122 50.1954C229.877 49.7476 227.528 49.629 225.232 49.674C215.584 49.8633 210.07 55.0675 209.164 64.6789C208.263 74.2415 213.175 81.1507 222.117 82.8128C227.126 83.7437 232.158 83.5598 237.15 82.714C241.123 82.0408 241.105 81.9425 241.846 77.8483C241.909 77.4978 241.996 77.1512 242.079 76.8045C242.381 75.5378 242.01 74.8973 240.586 74.9227C237.562 74.9766 234.533 75.0215 231.511 74.9091C229.569 74.8368 227.602 74.6372 225.711 74.206C223.49 73.6994 222.192 72.1752 221.97 69.7034C228.146 69.7034 234.246 69.7131 240.346 69.6978C242.296 69.6929 243.093 69.1132 243.021 67.2168C242.919 64.5065 242.484 61.8088 242.119 58.8315ZM136.944 82.8028C138.841 82.8028 140.739 82.7491 142.633 82.8207C143.998 82.8723 144.558 82.3596 144.554 80.9641C144.525 71.3358 144.519 61.7073 144.56 52.0791C144.566 50.6443 144.006 50.2316 142.652 50.2715C139.987 50.35 137.318 50.294 134.651 50.2948C132.184 50.2954 132.183 50.296 132.182 52.6958C132.181 61.2544 132.182 69.813 132.182 78.3716C132.182 82.8028 132.182 82.8028 136.944 82.8028ZM145.047 42.586C144.954 38.9174 144.329 37.7274 141.936 37.5487C139.471 37.3647 136.973 37.4002 134.504 37.5592C132.59 37.6824 131.654 38.7561 131.466 40.6782C131.363 41.7362 131.365 42.8218 131.473 43.8792C131.641 45.525 132.506 46.7233 134.236 46.8576C136.472 47.0311 138.727 47.1552 140.963 47.0593C144.049 46.927 144.866 45.9761 145.047 42.586Z" fill="#18995D"/>
<path d="M339.429 64.2675C337.408 61.5411 335.437 58.9355 333.527 56.2854C333.214 55.851 332.909 55.1033 333.082 54.7147C333.241 54.3558 334.041 54.1296 334.567 54.1139C336.737 54.0493 338.911 54.0869 341.513 54.0869C341.056 53.102 340.885 52.4953 340.536 52.0207C338.178 48.8154 335.796 45.6264 333.39 42.4568C332.235 40.9351 330.912 40.9235 329.759 42.436C327.312 45.6485 324.895 48.8845 322.501 52.1376C322.212 52.5308 322.145 53.0886 321.975 53.5701C322.503 53.7418 323.025 54.0395 323.559 54.0615C325.158 54.1274 326.764 54.0353 328.363 54.1119C328.956 54.1404 329.535 54.4657 330.12 54.6556C329.925 55.2441 329.861 55.9276 329.514 56.4059C327.146 59.6769 324.701 62.8928 322.326 66.1596C321.976 66.6421 321.864 67.2994 321.642 67.8758C322.237 68.0409 322.826 68.318 323.427 68.3487C324.848 68.4212 326.275 68.3468 327.698 68.3882C328.867 68.4222 329.24 69.0279 328.535 69.9996C325.604 74.0363 322.668 78.0708 319.635 82.0291C319.257 82.5223 318.285 82.7579 317.583 82.769C313.372 82.8358 309.158 82.8309 304.947 82.7708C304.321 82.7619 303.34 82.4792 303.174 82.0624C302.983 81.5843 303.383 80.7189 303.76 80.189C306.031 76.9948 308.374 73.8515 310.682 70.6831C311.051 70.1756 311.365 69.6274 311.891 68.8079C310.957 68.6814 310.35 68.5336 309.742 68.5278C307.013 68.502 304.283 68.555 301.555 68.4884C300.903 68.4725 299.949 68.2839 299.702 67.8497C299.47 67.4417 299.83 66.4883 300.202 65.9733C306.221 57.6457 312.258 49.3312 318.381 41.0812C318.883 40.4045 320.034 39.8672 320.892 39.8551C327.832 39.757 334.775 39.7554 341.715 39.8578C342.563 39.8704 343.678 40.4583 344.2 41.1407C350.479 49.3491 356.678 57.619 362.861 65.9002C363.248 66.4182 363.331 67.1641 363.555 67.804C362.872 68.0415 362.193 68.4632 361.503 68.4839C358.836 68.5642 356.164 68.5061 353.495 68.5244C352.876 68.5286 352.259 68.6309 351.254 68.724C351.795 69.6067 352.108 70.2031 352.5 70.742C354.804 73.9128 357.151 77.0528 359.419 80.2497C359.789 80.7722 360.162 81.6941 359.94 82.1251C359.721 82.5523 358.754 82.7655 358.112 82.774C353.959 82.829 349.803 82.8812 345.655 82.7402C344.749 82.7095 343.584 82.1169 343.025 81.4011C340.247 77.8463 337.615 74.1758 334.98 70.5113C334.64 70.0393 334.58 69.3651 334.391 68.7846C334.942 68.6468 335.49 68.414 336.046 68.3902C337.408 68.332 338.776 68.4109 340.139 68.3591C341.696 68.2999 341.962 67.7724 341.102 66.5115C340.6 65.7764 340.036 65.0847 339.429 64.2675Z" fill="#FCFDFD"/>
<path d="M203.423 54.6312C203.812 56.4946 204.411 58.2269 204.439 59.9684C204.551 66.9305 204.451 73.8958 204.512 80.8592C204.525 82.33 204.075 82.8769 202.581 82.8284C199.794 82.7379 197 82.7281 194.214 82.8308C192.601 82.8903 192.205 82.2412 192.225 80.7288C192.299 75.3135 192.149 69.8939 192.284 64.4809C192.418 59.0569 189.493 58.4052 185.067 59.3482C183.927 59.591 183.688 60.4047 183.695 61.4936C183.732 67.8621 183.663 74.2316 183.746 80.5992C183.768 82.3518 183.159 82.9014 181.46 82.8328C178.675 82.7204 175.881 82.7606 173.093 82.8206C171.77 82.849 171.328 82.3246 171.339 81.0231C171.384 75.4285 171.373 69.8333 171.353 64.2385C171.338 59.6308 168.178 57.5441 163.983 59.4884C163.362 59.7762 162.822 60.9577 162.81 61.7342C162.717 68.0419 162.708 74.3524 162.792 80.6604C162.813 82.2805 162.386 82.9044 160.699 82.8347C157.855 82.717 155.002 82.7708 152.154 82.8168C150.941 82.8364 150.437 82.3595 150.439 81.1383C150.458 71.377 150.456 61.6156 150.443 51.8543C150.442 50.7441 150.852 50.2549 152.029 50.277C155.114 50.3347 158.202 50.3356 161.287 50.2774C162.506 50.2544 162.828 50.7857 162.772 51.8928C162.708 53.1697 162.758 54.4524 162.758 56.0115C167.248 47.9186 180.425 47.1735 183.166 55.8832C185.205 52.3344 188.285 50.5186 192.097 49.8048C197.109 48.8661 201.192 50.5536 203.423 54.6312Z" fill="#FCFEFD"/>
<path d="M59.4772 59.2861C59.495 61.7244 59.4227 63.9893 59.5496 66.2428C59.8021 70.7273 62.2554 72.892 66.8765 72.8554C71.1794 72.8213 73.6286 70.5344 73.6979 66.1414C73.8113 58.9462 73.7625 51.7483 73.7741 44.5516C73.7818 39.8015 73.7756 39.8014 78.5928 39.8015C80.7281 39.8015 82.8642 39.8366 84.9985 39.7883C86.185 39.7615 86.7571 40.1998 86.7454 41.4359C86.6623 50.2353 86.8128 59.0434 86.4663 67.8319C86.1635 75.5106 81.4588 80.7828 74.0118 82.5541C69.1525 83.7098 64.2589 83.7489 59.401 82.5676C51.4286 80.6288 46.8177 74.9813 46.6842 66.7066C46.548 58.2624 46.6714 49.8141 46.6309 41.3678C46.6252 40.1727 47.1047 39.7877 48.2025 39.7952C51.4054 39.8172 54.6091 39.8376 57.8113 39.7858C59.1574 39.7639 59.5126 40.3411 59.5008 41.6199C59.4469 47.4487 59.4772 53.2783 59.4772 59.2861Z" fill="#FCFEFD"/>
<path d="M281.55 73.929C281.55 76.3692 281.504 78.6321 281.567 80.892C281.604 82.2157 281.228 82.8678 279.762 82.8269C276.856 82.7457 273.945 82.754 271.039 82.8238C269.609 82.8582 269.124 82.2616 269.225 80.9019C269.299 79.9038 269.239 78.8957 269.239 77.4736C267.531 80.0905 265.671 82.0582 262.946 82.8052C256.85 84.476 250.472 82.8556 248.274 74.6676C246.863 69.4134 246.86 64.0822 248.17 58.789C249.327 54.1174 251.823 50.5803 256.876 49.7999C261.927 49.0197 266.152 50.5095 269.092 55.4228C269.16 54.7284 269.233 54.3226 269.234 53.9166C269.243 49.8695 269.289 45.8214 269.213 41.7757C269.186 40.3195 269.637 39.7344 271.137 39.7772C273.983 39.8585 276.836 39.8648 279.682 39.775C281.215 39.7266 281.58 40.3653 281.574 41.79C281.529 52.4433 281.55 63.0969 281.55 73.929ZM269.241 65.5389C269.24 64.1157 269.344 62.6815 269.195 61.2743C269.122 60.5937 268.739 59.7447 268.214 59.3486C265.817 57.5401 261.928 58.6132 260.998 61.4684C260.426 63.226 260.245 65.1822 260.27 67.0441C260.292 68.722 260.603 70.483 261.205 72.0447C261.998 74.0977 264.272 74.8355 266.811 74.2432C268.669 73.81 269.239 72.8949 269.24 70.3421C269.241 68.8597 269.241 67.3772 269.241 65.5389Z" fill="#FCFDFD"/>
<path d="M114.122 68.2145C114.121 66.3707 114.174 64.7031 114.105 63.0406C113.998 60.4482 112.856 59.2822 110.291 59.0175C109.938 58.9811 109.58 58.9871 109.224 58.9926C105.395 59.0514 105.007 59.4469 105.007 63.2736C105.007 69.1023 104.967 74.9313 105.034 80.7592C105.051 82.3127 104.532 82.8784 102.974 82.8285C100.13 82.7374 97.2805 82.7659 94.4347 82.819C93.1457 82.843 92.6307 82.3627 92.6348 81.0454C92.6649 71.3509 92.6633 61.6563 92.6357 51.9618C92.6323 50.7596 93.0131 50.2486 94.2778 50.2747C97.3605 50.3383 100.446 50.3223 103.529 50.2812C104.592 50.267 105.052 50.6633 105.016 51.7378C104.974 52.9794 105.006 54.2235 105.006 56.0372C106.873 52.8599 109.224 50.9415 112.316 50.2754C114.312 49.8453 116.441 49.5732 118.455 49.7791C123.376 50.2822 126.295 53.8639 126.396 59.5197C126.525 66.7734 126.411 74.0313 126.451 81.2871C126.458 82.5084 125.907 82.8215 124.833 82.8116C121.868 82.7843 118.901 82.7537 115.937 82.8233C114.494 82.8572 114.093 82.2075 114.106 80.8828C114.149 76.7199 114.122 72.5563 114.122 68.2145Z" fill="#FCFDFD"/>
<path d="M242.155 58.9685C242.484 61.8087 242.919 64.5064 243.021 67.2168C243.093 69.1131 242.296 69.6929 240.346 69.6977C234.246 69.713 228.146 69.7033 221.97 69.7033C222.192 72.1751 223.49 73.6993 225.711 74.2059C227.602 74.6372 229.569 74.8367 231.511 74.909C234.532 75.0214 237.562 74.9765 240.586 74.9226C242.009 74.8972 242.381 75.5377 242.079 76.8045C241.996 77.1512 241.909 77.4977 241.846 77.8482C241.105 81.9424 241.122 82.0407 237.15 82.7139C232.158 83.5598 227.126 83.7437 222.117 82.8127C213.175 81.1506 208.263 74.2415 209.164 64.6788C210.07 55.0674 215.584 49.8633 225.232 49.6739C227.528 49.6289 229.877 49.7475 232.122 50.1953C237.008 51.1702 240.449 54.0174 242.155 58.9685ZM229.523 58.1193C225.027 56.4373 221.802 58.7072 221.949 63.474C225.213 63.474 228.475 63.474 231.818 63.474C231.656 61.4027 231.538 59.5032 229.523 58.1193Z" fill="#FDFEFD"/>
<path d="M136.768 82.8034C132.182 82.8035 132.182 82.8035 132.182 78.3722C132.182 69.8136 132.181 61.255 132.182 52.6964C132.182 50.2967 132.184 50.296 134.651 50.2954C137.318 50.2946 139.987 50.3506 142.652 50.2721C144.006 50.2322 144.566 50.645 144.56 52.0797C144.519 61.7079 144.525 71.3364 144.554 80.9647C144.558 82.3602 143.998 82.8729 142.633 82.8213C140.739 82.7497 138.84 82.8034 136.768 82.8034Z" fill="#FBFDFC"/>
<path d="M145.032 42.7312C144.866 45.9762 144.049 46.927 140.963 47.0594C138.727 47.1553 136.472 47.0312 134.237 46.8577C132.506 46.7233 131.641 45.525 131.473 43.8793C131.365 42.8219 131.363 41.7363 131.467 40.6783C131.654 38.7562 132.591 37.6824 134.504 37.5592C136.974 37.4003 139.471 37.3647 141.936 37.5487C144.33 37.7274 144.954 38.9174 145.032 42.7312Z" fill="#FBFDFC"/>
<path d="M269.241 65.7169C269.241 67.3773 269.241 68.8597 269.241 70.3422C269.239 72.895 268.669 73.8101 266.812 74.2433C264.272 74.8356 261.998 74.0978 261.206 72.0447C260.603 70.483 260.292 68.7221 260.27 67.0441C260.245 65.1823 260.426 63.226 260.998 61.4684C261.928 58.6133 265.818 57.5402 268.214 59.3486C268.739 59.7447 269.122 60.5937 269.195 61.2743C269.344 62.6816 269.24 64.1158 269.241 65.7169Z" fill="#1A9A5E"/>
<path d="M229.646 58.1836C231.538 59.5036 231.656 61.4031 231.819 63.4744C228.476 63.4744 225.213 63.4744 221.949 63.4744C221.803 58.7076 225.027 56.4377 229.646 58.1836Z" fill="#1B9B5F"/>
</g>
<defs>
<clipPath id="clip0_4192_361">
<rect width="406" height="150" fill="white"/>
</clipPath>
</defs>
</svg>
